SplineFontDB: 3.0
FontName: Norasi
FullName: Norasi
FamilyName: Norasi
Weight: Book
Copyright: Copyright (C) 1999, The National Font Project (v.beta). Yannis Haralambous, Virach Sornlertlamvanich and Anutara Tantraporn. All rights reserved.\n\nModified under GNU General Public License, with creators' permission, by Thai Linux Working Group (TLWG).
Version: 004.013: 2012-02-13
ItalicAngle: 0
UnderlinePosition: -150
UnderlineWidth: 50
Ascent: 800
Descent: 200
InvalidEm: 0
sfntRevision: 0x00040353
LayerCount: 2
Layer: 0 1 "Back" 1
Layer: 1 1 "Fore" 0
XUID: [1021 542 582384140 3039965]
StyleMap: 0x0040
FSType: 0
OS2Version: 1
OS2_WeightWidthSlopeOnly: 0
OS2_UseTypoMetrics: 0
CreationTime: 1153665735
ModificationTime: 1465816839
PfmFamily: 17
TTFWeight: 400
TTFWidth: 5
LineGap: 0
VLineGap: 0
Panose: 2 7 5 6 6 0 0 2 0 4
OS2TypoAscent: 800
OS2TypoAOffset: 0
OS2TypoDescent: -200
OS2TypoDOffset: 0
OS2TypoLinegap: 0
OS2WinAscent: 1216
OS2WinAOffset: 0
OS2WinDescent: 488
OS2WinDOffset: 0
HheadAscent: 1216
HheadAOffset: 0
HheadDescent: -488
HheadDOffset: 0
OS2SubXSize: 650
OS2SubYSize: 699
OS2SubXOff: 0
OS2SubYOff: 140
OS2SupXSize: 650
OS2SupYSize: 699
OS2SupXOff: 0
OS2SupYOff: 479
OS2StrikeYSize: 49
OS2StrikeYPos: 258
OS2Vendor: 'PfEd'
OS2CodePages: 00010001.00000000
OS2UnicodeRanges: 8100002f.5000214a.00000000.00000000
Lookup: 4 0 1 "'liga' Standard Ligatures in Latin lookup 0" { "'liga' Standard Ligatures in Latin lookup 0 subtable"  } ['liga' ('latn' <'dflt' > ) ]
Lookup: 4 0 1 "'liga' Standard Ligatures lookup 1" { "'liga' Standard Ligatures lookup 1 subtable"  } ['liga' ('DFLT' <'dflt' > ) ]
Lookup: 4 0 0 "'frac' Diagonal Fractions lookup 2" { "'frac' Diagonal Fractions lookup 2 subtable"  } ['frac' ('DFLT' <'dflt' > ) ]
Lookup: 6 0 0 "'ccmp' Glyph Composition/Decomposition in Thai lookup 3" { "'ccmp' Glyph Composition/Decomposition in Thai lookup 3 subtable"  } ['ccmp' ('DFLT' <'dflt' > 'thai' <'KUY ' 'THA ' 'dflt' > ) ]

StartChar: .notdef
Encoding: 65536 -1 0
Width: 366
Flags: W
LayerCount: 2
Fore
SplineSet
22 542 m 1,0,-1
 22 22 l 1,1,-1
 344 22 l 1,2,-1
 344 542 l 1,3,-1
 22 542 l 1,0,-1
366 0 m 1,4,-1
 0 0 l 1,5,-1
 0 564 l 1,6,-1
 366 564 l 1,7,-1
 366 0 l 1,4,-1
EndSplineSet
EndChar

StartChar: exclam
Encoding: 33 33 4
Width: 332
GlyphClass: 2
Flags: W
LayerCount: 2
Fore
SplineSet
189 176 m 1,0,-1
 176 176 l 1,1,-1
 167 284 l 2,2,3
 165 335 165 335 149 422 c 0,4,5
 130 559 130 559 130 599 c 0,6,7
 130 635 130 635 144 656 c 128,-1,8
 158 677 158 677 183 677 c 0,9,10
 236 677 236 677 236 596 c 0,11,12
 236 589 236 589 235 577 c 128,-1,13
 234 565 234 565 234 560 c 2,14,-1
 189 176 l 1,0,-1
183 98 m 0,15,16
 205 98 205 98 221 81.5 c 128,-1,17
 237 65 237 65 237 42 c 0,18,19
 237 20 237 20 221.5 5.5 c 128,-1,20
 206 -9 206 -9 182 -9 c 0,21,22
 160 -9 160 -9 145 5.5 c 128,-1,23
 130 20 130 20 130 42 c 0,24,25
 130 67 130 67 145 82.5 c 128,-1,26
 160 98 160 98 183 98 c 0,15,16
EndSplineSet
EndChar

StartChar: quotedbl
Encoding: 34 34 5
Width: 407
GlyphClass: 2
Flags: W
LayerCount: 2
Fore
SplineSet
299 431 m 1,0,-1
 278 431 l 1,1,2
 246 600 246 600 246 636 c 0,3,4
 246 653 246 653 258.5 665 c 128,-1,5
 271 677 271 677 289 677 c 0,6,7
 306 677 306 677 318.5 665 c 128,-1,8
 331 653 331 653 331 636 c 0,9,10
 331 588 331 588 306 472 c 1,11,-1
 299 431 l 1,0,-1
130 431 m 1,12,-1
 108 431 l 1,13,14
 78 600 78 600 78 636 c 0,15,16
 78 653 78 653 90.5 665 c 128,-1,17
 103 677 103 677 120 677 c 0,18,19
 138 677 138 677 150.5 665 c 128,-1,20
 163 653 163 653 163 636 c 0,21,22
 163 604 163 604 138 472 c 2,23,-1
 130 431 l 1,12,-1
EndSplineSet
EndChar

StartChar: numbersign
Encoding: 35 35 6
Width: 499
GlyphClass: 2
Flags: W
LayerCount: 2
Fore
SplineSet
472 271 m 1,0,-1
 472 215 l 1,1,-1
 362 215 l 1,2,-1
 331 0 l 1,3,-1
 272 0 l 1,4,-1
 305 215 l 1,5,-1
 170 215 l 1,6,-1
 138 0 l 1,7,-1
 79 0 l 1,8,-1
 111 215 l 1,9,-1
 4 215 l 1,10,-1
 4 271 l 1,11,-1
 122 271 l 1,12,-1
 142 406 l 1,13,-1
 32 406 l 1,14,-1
 32 460 l 1,15,-1
 149 460 l 1,16,-1
 182 662 l 1,17,-1
 239 662 l 1,18,-1
 208 460 l 1,19,-1
 341 460 l 1,20,-1
 371 662 l 1,21,-1
 429 662 l 1,22,-1
 398 460 l 1,23,-1
 497 460 l 1,24,-1
 497 406 l 1,25,-1
 391 406 l 1,26,-1
 371 271 l 1,27,-1
 472 271 l 1,0,-1
333 406 m 1,28,-1
 201 406 l 1,29,-1
 179 271 l 1,30,-1
 313 271 l 1,31,-1
 333 406 l 1,28,-1
EndSplineSet
EndChar

StartChar: dollar
Encoding: 36 36 7
Width: 499
GlyphClass: 2
Flags: W
LayerCount: 2
Fore
SplineSet
425 499 m 1,0,-1
 410 499 l 1,1,2
 397 563 397 563 362 596.5 c 128,-1,3
 327 630 327 630 264 637 c 1,4,-1
 264 391 l 1,5,6
 356 338 356 338 387.5 314.5 c 128,-1,7
 419 291 419 291 437 261 c 0,8,9
 457 229 457 229 457 170 c 0,10,11
 457 98 457 98 406 53 c 0,12,13
 379 31 379 31 349.5 20 c 128,-1,14
 320 9 320 9 264 0 c 1,15,-1
 264 -86 l 1,16,-1
 230 -86 l 1,17,-1
 230 0 l 1,18,19
 167 2 167 2 128 13 c 128,-1,20
 89 24 89 24 44 51 c 1,21,-1
 44 182 l 1,22,-1
 59 182 l 1,23,24
 77 103 77 103 118 66 c 128,-1,25
 159 29 159 29 230 28 c 1,26,-1
 230 311 l 1,27,28
 145 358 145 358 108 393 c 0,29,30
 53 444 53 444 53 513 c 0,31,32
 53 579 53 579 105 623 c 1,33,34
 153 657 153 657 230 664 c 1,35,-1
 230 727 l 1,36,-1
 264 727 l 1,37,-1
 264 664 l 1,38,39
 375 652 375 652 425 611 c 1,40,-1
 425 499 l 1,0,-1
229 407 m 1,41,-1
 229 637 l 1,42,43
 126 616 126 616 126 535 c 0,44,45
 126 500 126 500 146.5 474.5 c 128,-1,46
 167 449 167 449 229 407 c 1,41,-1
264 293 m 1,47,-1
 264 28 l 1,48,49
 378 48 378 48 378 146 c 0,50,51
 378 192 378 192 356 220.5 c 128,-1,52
 334 249 334 249 264 293 c 1,47,-1
EndSplineSet
EndChar

StartChar: percent
Encoding: 37 37 8
Width: 832
GlyphClass: 2
Flags: W
LayerCount: 2
Fore
SplineSet
772 264 m 0,0,1
 772 204 772 204 748.5 144.5 c 128,-1,2
 725 85 725 85 677 42.5 c 128,-1,3
 629 0 629 0 570 0 c 0,4,5
 515 0 515 0 482.5 35 c 128,-1,6
 450 70 450 70 450 129 c 0,7,8
 450 222 450 222 517.5 296.5 c 128,-1,9
 585 371 585 371 669 371 c 0,10,11
 718 371 718 371 745 343 c 128,-1,12
 772 315 772 315 772 264 c 0,0,1
586 29 m 0,13,14
 650 29 650 29 698 107 c 128,-1,15
 746 185 746 185 746 259 c 0,16,17
 746 292 746 292 726 315 c 128,-1,18
 706 338 706 338 677 338 c 0,19,20
 628 338 628 338 590 281 c 0,21,22
 563 242 563 242 543.5 187.5 c 128,-1,23
 524 133 524 133 524 94 c 0,24,25
 524 66 524 66 542 47.5 c 128,-1,26
 560 29 560 29 586 29 c 0,13,14
384 549 m 0,27,28
 384 457 384 457 325 373 c 128,-1,29
 266 289 266 289 179 289 c 0,30,31
 130 289 130 289 96 326 c 128,-1,32
 62 363 62 363 62 416 c 0,33,34
 62 511 62 511 129.5 586.5 c 128,-1,35
 197 662 197 662 283 662 c 0,36,37
 306 662 306 662 320 657 c 128,-1,38
 334 652 334 652 352 636 c 0,39,40
 384 608 384 608 439 608 c 0,41,42
 486 608 486 608 520.5 623 c 128,-1,43
 555 638 555 638 595 677 c 1,44,-1
 634 677 l 1,45,-1
 249 -13 l 1,46,-1
 201 -13 l 1,47,-1
 552 614 l 1,48,49
 502 583 502 583 442 583 c 0,50,51
 403 583 403 583 376 593 c 1,52,53
 384 570 384 570 384 549 c 0,27,28
283 633 m 0,54,55
 248 633 248 633 213 587 c 128,-1,56
 178 541 178 541 158 483 c 128,-1,57
 138 425 138 425 138 384 c 0,58,59
 138 358 138 358 154 341 c 128,-1,60
 170 324 170 324 196 324 c 0,61,62
 257 324 257 324 308 395 c 128,-1,63
 359 466 359 466 359 551 c 0,64,65
 359 570 359 570 350 601 c 1,66,67
 315 609 315 609 294 625 c 0,68,69
 287 633 287 633 283 633 c 0,54,55
EndSplineSet
EndChar

StartChar: ampersand
Encoding: 38 38 9
Width: 777
GlyphClass: 2
Flags: W
LayerCount: 2
Fore
SplineSet
710 426 m 1,0,-1
 710 406 l 1,1,2
 673 400 673 400 654 388 c 128,-1,3
 635 376 635 376 617 346 c 2,4,-1
 592 300 l 2,5,6
 551 231 551 231 491 149 c 1,7,8
 562 59 562 59 645 59 c 0,9,10
 673 59 673 59 692 70 c 128,-1,11
 711 81 711 81 735 111 c 1,12,-1
 750 100 l 1,13,14
 728 47 728 47 688 17 c 128,-1,15
 648 -13 648 -13 599 -13 c 0,16,17
 517 -13 517 -13 429 78 c 1,18,19
 373 29 373 29 323.5 8 c 128,-1,20
 274 -13 274 -13 212 -13 c 0,21,22
 133 -13 133 -13 87.5 27.5 c 128,-1,23
 42 68 42 68 42 139 c 0,24,25
 42 266 42 266 199 354 c 2,26,-1
 237 376 l 1,27,28
 202 472 202 472 202 521 c 0,29,30
 202 586 202 586 247 631.5 c 128,-1,31
 292 677 292 677 356 677 c 0,32,33
 415 677 415 677 453 642.5 c 128,-1,34
 491 608 491 608 491 555 c 0,35,36
 491 503 491 503 457 464 c 0,37,38
 435 441 435 441 410 424 c 128,-1,39
 385 407 385 407 335 384 c 1,40,41
 391 274 391 274 469 179 c 1,42,43
 560 302 560 302 560 360 c 0,44,45
 560 382 560 382 546.5 391.5 c 128,-1,46
 533 401 533 401 495 406 c 1,47,-1
 495 426 l 1,48,-1
 710 426 l 1,0,-1
321 416 m 1,49,50
 383 449 383 449 410.5 483 c 128,-1,51
 438 517 438 517 438 560 c 0,52,53
 438 596 438 596 415 620.5 c 128,-1,54
 392 645 392 645 357 645 c 0,55,56
 324 645 324 645 302.5 621.5 c 128,-1,57
 281 598 281 598 281 562 c 0,58,59
 281 500 281 500 321 416 c 1,49,50
252 343 m 1,60,61
 187 300 187 300 160 264 c 128,-1,62
 133 228 133 228 133 180 c 0,63,64
 133 122 133 122 172 81 c 128,-1,65
 211 40 211 40 264 40 c 0,66,67
 325 40 325 40 404 104 c 1,68,69
 330 195 330 195 252 343 c 1,60,61
EndSplineSet
EndChar

StartChar: quotesingle
Encoding: 39 39 10
Width: 238
GlyphClass: 2
Flags: W
LayerCount: 2
Fore
SplineSet
130 431 m 1,0,-1
 108 431 l 1,1,2
 78 600 78 600 78 636 c 0,3,4
 78 653 78 653 90.5 665 c 128,-1,5
 103 677 103 677 120 677 c 0,6,7
 138 677 138 677 150.5 665 c 128,-1,8
 163 653 163 653 163 636 c 0,9,10
 163 604 163 604 138 472 c 2,11,-1
 130 431 l 1,0,-1
EndSplineSet
EndChar

StartChar: parenleft
Encoding: 40 40 11
Width: 332
GlyphClass: 2
Flags: W
LayerCount: 2
Fore
SplineSet
294 677 m 1,0,-1
 305 661 l 1,1,2
 251 618 251 618 223 584.5 c 128,-1,3
 195 551 195 551 174 504 c 0,4,5
 133 413 133 413 133 255 c 0,6,7
 133 114 133 114 168 12 c 0,8,9
 189 -44 189 -44 216.5 -79 c 128,-1,10
 244 -114 244 -114 305 -161 c 1,11,-1
 291 -177 l 1,12,13
 224 -135 224 -135 173 -75 c 0,14,15
 107 0 107 0 77.5 78 c 128,-1,16
 48 156 48 156 48 252 c 0,17,18
 48 426 48 426 154 557 c 0,19,20
 181 590 181 590 210 615 c 128,-1,21
 239 640 239 640 294 677 c 1,0,-1
EndSplineSet
EndChar

StartChar: parenright
Encoding: 41 41 12
Width: 332
GlyphClass: 2
Flags: W
LayerCount: 2
Fore
SplineSet
38 -177 m 1,0,-1
 29 -161 l 1,1,2
 82 -118 82 -118 109.5 -85 c 128,-1,3
 137 -52 137 -52 160 -4 c 0,4,5
 199 88 199 88 199 245 c 0,6,7
 199 385 199 385 164 488 c 0,8,9
 143 544 143 544 115.5 579 c 128,-1,10
 88 614 88 614 29 661 c 1,11,-1
 41 677 l 1,12,13
 110 634 110 634 160 574 c 0,14,15
 226 497 226 497 256 420 c 128,-1,16
 286 343 286 343 286 248 c 0,17,18
 286 73 286 73 179 -57 c 0,19,20
 151 -91 151 -91 122 -116 c 128,-1,21
 93 -141 93 -141 38 -177 c 1,0,-1
EndSplineSet
EndChar

StartChar: asterisk
Encoding: 42 42 13
Width: 499
GlyphClass: 2
Flags: W
LayerCount: 2
Fore
SplineSet
242 432 m 1,0,1
 242 432 242 432 242 456 c 1,2,3
 199 429 199 429 189 420 c 0,4,5
 161 392 161 392 146 375 c 0,6,7
 127 352 127 352 105 352 c 0,8,9
 69 352 69 352 69 387 c 0,10,11
 69 406 69 406 83 415.5 c 128,-1,12
 97 425 97 425 130 431 c 0,13,14
 164 437 164 437 182.5 444.5 c 128,-1,15
 201 452 201 452 234 472 c 1,16,-1
 223 478 l 2,17,18
 195 497 195 497 138 508 c 0,19,20
 69 521 69 521 69 555 c 0,21,22
 69 571 69 571 78.5 581.5 c 128,-1,23
 88 592 88 592 103 592 c 0,24,25
 122 592 122 592 151 560 c 0,26,27
 195 512 195 512 242 486 c 1,28,-1
 242 499 l 2,29,30
 242 537 242 537 226 590 c 0,31,32
 215 628 215 628 215 642 c 128,-1,33
 215 656 215 656 225.5 666.5 c 128,-1,34
 236 677 236 677 250 677 c 0,35,36
 266 677 266 677 276.5 666 c 128,-1,37
 287 655 287 655 287 639 c 0,38,39
 287 625 287 625 277 593 c 0,40,41
 261 543 261 543 261 510 c 2,42,-1
 261 483 l 1,43,-1
 267 488 l 1,44,45
 299 504 299 504 338 552 c 0,46,47
 375 593 375 593 395 593 c 0,48,49
 411 593 411 593 421 582 c 128,-1,50
 431 571 431 571 431 554 c 0,51,52
 431 535 431 535 419.5 526.5 c 128,-1,53
 408 518 408 518 379 513 c 0,54,55
 325 503 325 503 268 470 c 1,56,-1
 275 464 l 1,57,58
 324 438 324 438 374 431 c 0,59,60
 407 425 407 425 419.5 415.5 c 128,-1,61
 432 406 432 406 432 387 c 0,62,63
 432 371 432 371 422 360.5 c 128,-1,64
 412 350 412 350 397 350 c 0,65,66
 372 350 372 350 337 393 c 0,67,68
 304 435 304 435 261 456 c 1,69,-1
 261 450 l 2,70,71
 261 388 261 388 280 337 c 0,72,73
 289 318 289 318 289 305 c 0,74,75
 289 289 289 289 277 277 c 128,-1,76
 265 265 265 265 249 265 c 0,77,78
 235 265 235 265 224.5 276.5 c 128,-1,79
 214 288 214 288 214 302 c 0,80,81
 214 320 214 320 226 349 c 0,82,83
 247 401 247 401 242 432 c 1,0,1
EndSplineSet
EndChar

StartChar: plus
Encoding: 43 43 14
Width: 563
GlyphClass: 2
Flags: W
LayerCount: 2
Fore
SplineSet
249 286 m 1,0,-1
 249 505 l 1,1,-1
 315 505 l 1,2,-1
 315 286 l 1,3,-1
 535 286 l 1,4,-1
 535 220 l 1,5,-1
 315 220 l 1,6,-1
 315 0 l 1,7,-1
 249 0 l 1,8,-1
 249 220 l 1,9,-1
 29 220 l 1,10,-1
 29 286 l 1,11,-1
 249 286 l 1,0,-1
EndSplineSet
EndChar

StartChar: comma
Encoding: 44 44 15
Width: 249
GlyphClass: 2
Flags: W
LayerCount: 2
Fore
SplineSet
83 -141 m 1,0,-1
 75 -122 l 1,1,2
 157 -64 157 -64 157 -16 c 0,3,4
 157 -10 157 -10 152.5 -5.5 c 128,-1,5
 148 -1 148 -1 142 -1 c 0,6,7
 141 -1 141 -1 133 -4 c 0,8,9
 130 -4 130 -4 124.5 -5 c 128,-1,10
 119 -6 119 -6 116 -6 c 0,11,12
 88 -6 88 -6 72 7.5 c 128,-1,13
 56 21 56 21 56 45 c 0,14,15
 56 70 56 70 73 86.5 c 128,-1,16
 90 103 90 103 116 103 c 0,17,18
 149 103 149 103 172 77 c 128,-1,19
 195 51 195 51 195 13 c 0,20,21
 195 -32 195 -32 164 -74 c 128,-1,22
 133 -116 133 -116 83 -141 c 1,0,-1
EndSplineSet
EndChar

StartChar: hyphen
Encoding: 45 45 16
Width: 332
GlyphClass: 2
Flags: W
LayerCount: 2
Fore
SplineSet
40 256 m 1,0,-1
 286 256 l 1,1,-1
 286 193 l 1,2,-1
 40 193 l 1,3,-1
 40 256 l 1,0,-1
EndSplineSet
EndChar

StartChar: period
Encoding: 46 46 17
Width: 249
GlyphClass: 2
Flags: W
LayerCount: 2
Fore
SplineSet
125 100 m 128,-1,1
 148 100 148 100 165 83 c 128,-1,2
 182 66 182 66 182 42 c 0,3,4
 182 22 182 22 164.5 5 c 128,-1,5
 147 -12 147 -12 125 -12 c 128,-1,6
 103 -12 103 -12 86.5 4.5 c 128,-1,7
 70 21 70 21 70 42 c 0,8,9
 70 67 70 67 86 83.5 c 128,-1,0
 102 100 102 100 125 100 c 128,-1,1
EndSplineSet
EndChar

StartChar: slash
Encoding: 47 47 18
Width: 276
GlyphClass: 2
Flags: W
LayerCount: 2
Fore
SplineSet
287 677 m 1,0,-1
 59 -15 l 1,1,-1
 -9 -15 l 1,2,-1
 220 677 l 1,3,-1
 287 677 l 1,0,-1
EndSplineSet
EndChar

StartChar: zero
Encoding: 48 48 19
Width: 499
GlyphClass: 2
Flags: W
LayerCount: 2
Fore
SplineSet
253 677 m 0,0,1
 352 677 352 677 414 580.5 c 128,-1,2
 476 484 476 484 476 330 c 0,3,4
 476 239 476 239 449.5 158.5 c 128,-1,5
 423 78 423 78 379 38 c 0,6,7
 326 -15 326 -15 250 -15 c 0,8,9
 162 -15 162 -15 104 54 c 0,10,11
 69 96 69 96 46 175 c 128,-1,12
 23 254 23 254 23 335 c 0,13,14
 23 423 23 423 49.5 502.5 c 128,-1,15
 76 582 76 582 120 624 c 0,16,17
 176 677 176 677 253 677 c 0,0,1
250 650 m 0,18,19
 187 650 187 650 153.5 567.5 c 128,-1,20
 120 485 120 485 120 327 c 0,21,22
 120 12 120 12 250 12 c 0,23,24
 379 12 379 12 379 328 c 0,25,26
 379 650 379 650 250 650 c 0,18,19
EndSplineSet
EndChar

StartChar: one
Encoding: 49 49 20
Width: 499
GlyphClass: 2
Flags: W
LayerCount: 2
Fore
SplineSet
183 593 m 0,0,1
 165 593 165 593 111 571 c 1,2,-1
 111 584 l 1,3,-1
 291 677 l 1,4,-1
 299 674 l 1,5,-1
 299 75 l 2,6,7
 299 38 299 38 317 27 c 128,-1,8
 335 16 335 16 394 15 c 1,9,-1
 394 0 l 1,10,-1
 119 0 l 1,11,-1
 119 15 l 1,12,13
 175 17 175 17 193.5 30.5 c 128,-1,14
 212 44 212 44 212 92 c 2,15,-1
 212 546 l 2,16,17
 212 593 212 593 183 593 c 0,0,1
EndSplineSet
EndChar

StartChar: two
Encoding: 50 50 21
Width: 499
GlyphClass: 2
Flags: W
LayerCount: 2
Fore
SplineSet
475 138 m 1,0,-1
 420 0 l 1,1,-1
 29 0 l 1,2,-1
 29 12 l 1,3,-1
 208 201 l 2,4,5
 338 340 338 340 338 461 c 0,6,7
 338 524 338 524 299 563 c 128,-1,8
 260 602 260 602 198 602 c 0,9,10
 145 602 145 602 113.5 574 c 128,-1,11
 82 546 82 546 53 472 c 1,12,-1
 31 478 l 1,13,14
 53 570 53 570 95 614 c 0,15,16
 152 677 152 677 239 677 c 0,17,18
 317 677 317 677 370 625.5 c 128,-1,19
 423 574 423 574 423 499 c 0,20,21
 423 386 423 386 296 252 c 2,22,-1
 127 76 l 1,23,-1
 368 76 l 2,24,25
 401 76 401 76 417.5 87.5 c 128,-1,26
 434 99 434 99 461 142 c 1,27,-1
 475 138 l 1,0,-1
EndSplineSet
EndChar

StartChar: three
Encoding: 51 51 22
Width: 499
GlyphClass: 2
Flags: W
LayerCount: 2
Fore
SplineSet
152 330 m 1,0,-1
 152 343 l 1,1,2
 205 362 205 362 231 376 c 128,-1,3
 257 390 257 390 278 412 c 0,4,5
 319 450 319 450 319 510 c 0,6,7
 319 557 319 557 288.5 587 c 128,-1,8
 258 617 258 617 209 617 c 0,9,10
 120 617 120 617 60 510 c 1,11,-1
 45 514 l 1,12,13
 74 594 74 594 111 627 c 0,14,15
 169 677 169 677 242 677 c 0,16,17
 311 677 311 677 354.5 638.5 c 128,-1,18
 398 600 398 600 398 539 c 0,19,20
 398 498 398 498 377 467 c 128,-1,21
 356 436 356 436 305 401 c 1,22,23
 364 375 364 375 387 349 c 0,24,25
 432 298 432 298 432 220 c 0,26,27
 432 117 432 117 359 53 c 0,28,29
 324 22 324 22 269 3.5 c 128,-1,30
 214 -15 214 -15 157 -15 c 0,31,32
 104 -15 104 -15 73 0.5 c 128,-1,33
 42 16 42 16 42 42 c 0,34,35
 42 58 42 58 53 68 c 128,-1,36
 64 78 64 78 81 78 c 0,37,38
 102 78 102 78 145 53 c 0,39,40
 193 22 193 22 229 22 c 0,41,42
 285 22 285 22 322.5 64.5 c 128,-1,43
 360 107 360 107 360 171 c 0,44,45
 360 223 360 223 333 262.5 c 128,-1,46
 306 302 306 302 259 319 c 0,47,48
 228 330 228 330 152 330 c 1,0,-1
EndSplineSet
EndChar

StartChar: four
Encoding: 52 52 23
Width: 499
GlyphClass: 2
Flags: W
LayerCount: 2
Fore
SplineSet
472 231 m 1,0,-1
 472 167 l 1,1,-1
 371 167 l 1,2,-1
 371 0 l 1,3,-1
 293 0 l 1,4,-1
 293 167 l 1,5,-1
 12 167 l 1,6,-1
 12 231 l 1,7,-1
 327 677 l 1,8,-1
 371 677 l 1,9,-1
 371 231 l 1,10,-1
 472 231 l 1,0,-1
291 231 m 1,11,-1
 291 574 l 1,12,-1
 53 231 l 1,13,-1
 291 231 l 1,11,-1
EndSplineSet
EndChar

StartChar: five
Encoding: 53 53 24
Width: 499
GlyphClass: 2
Flags: W
LayerCount: 2
Fore
SplineSet
182 583 m 1,0,-1
 139 498 l 1,1,2
 226 483 226 483 275 463 c 128,-1,3
 324 443 324 443 357 410 c 0,4,5
 396 373 396 373 412 334.5 c 128,-1,6
 428 296 428 296 428 242 c 0,7,8
 428 129 428 129 360 64 c 0,9,10
 284 -15 284 -15 154 -15 c 0,11,12
 98 -15 98 -15 65 2 c 128,-1,13
 32 19 32 19 32 48 c 0,14,15
 32 85 32 85 75 85 c 0,16,17
 104 85 104 85 151 53 c 0,18,19
 190 23 190 23 218 23 c 0,20,21
 276 23 276 23 316.5 72.5 c 128,-1,22
 357 122 357 122 357 193 c 0,23,24
 357 268 357 268 316.5 316 c 128,-1,25
 276 364 276 364 189 393 c 0,26,27
 129 412 129 412 76 412 c 0,28,29
 64 412 64 412 64 420 c 2,30,-1
 64 425 l 1,31,-1
 174 662 l 1,32,-1
 384 662 l 2,33,34
 412 662 412 662 429 688 c 1,35,-1
 438 681 l 1,36,-1
 400 592 l 2,37,38
 397 583 397 583 376 583 c 2,39,-1
 182 583 l 1,0,-1
EndSplineSet
EndChar

StartChar: six
Encoding: 54 54 25
Width: 499
GlyphClass: 2
Flags: W
LayerCount: 2
Fore
SplineSet
447 684 m 1,0,-1
 448 668 l 1,1,2
 330 648 330 648 251 572.5 c 128,-1,3
 172 497 172 497 152 384 c 1,4,5
 200 411 200 411 223.5 419.5 c 128,-1,6
 247 428 247 428 280 428 c 0,7,8
 366 428 366 428 417.5 371.5 c 128,-1,9
 469 315 469 315 469 220 c 0,10,11
 469 116 469 116 410 50.5 c 128,-1,12
 351 -15 351 -15 258 -15 c 0,13,14
 164 -15 164 -15 104 54 c 0,15,16
 72 92 72 92 53 153 c 128,-1,17
 34 214 34 214 34 278 c 0,18,19
 34 487 34 487 201 603 c 0,20,21
 256 642 256 642 308.5 659 c 128,-1,22
 361 676 361 676 447 684 c 1,0,-1
242 382 m 0,23,24
 186 382 186 382 155 357 c 0,25,26
 127 337 127 337 127 264 c 0,27,28
 127 148 127 148 165.5 81.5 c 128,-1,29
 204 15 204 15 270 15 c 0,30,31
 321 15 321 15 349.5 59 c 128,-1,32
 378 103 378 103 378 185 c 0,33,34
 378 279 378 279 342.5 330.5 c 128,-1,35
 307 382 307 382 242 382 c 0,23,24
EndSplineSet
EndChar

StartChar: seven
Encoding: 55 55 26
Width: 499
GlyphClass: 2
Flags: W
LayerCount: 2
Fore
SplineSet
450 662 m 1,0,-1
 450 646 l 1,1,-1
 237 -7 l 1,2,-1
 171 -7 l 1,3,-1
 371 587 l 1,4,-1
 152 587 l 2,5,6
 111 587 111 587 90.5 572.5 c 128,-1,7
 70 558 70 558 37 507 c 1,8,-1
 21 516 l 1,9,-1
 79 662 l 1,10,-1
 450 662 l 1,0,-1
EndSplineSet
EndChar

StartChar: eight
Encoding: 56 56 27
Width: 499
GlyphClass: 2
Flags: W
LayerCount: 2
Fore
SplineSet
290 371 m 1,0,1
 380 304 380 304 412.5 258.5 c 128,-1,2
 445 213 445 213 445 155 c 0,3,4
 445 78 445 78 391.5 31.5 c 128,-1,5
 338 -15 338 -15 248 -15 c 0,6,7
 163 -15 163 -15 109.5 31.5 c 128,-1,8
 56 78 56 78 56 151 c 0,9,10
 56 203 56 203 80.5 237 c 128,-1,11
 105 271 105 271 186 333 c 1,12,13
 108 400 108 400 85 434.5 c 128,-1,14
 62 469 62 469 62 519 c 0,15,16
 62 586 62 586 116.5 631.5 c 128,-1,17
 171 677 171 677 252 677 c 0,18,19
 327 677 327 677 375 637 c 128,-1,20
 423 597 423 597 423 535 c 0,21,22
 423 483 423 483 393.5 446.5 c 128,-1,23
 364 410 364 410 290 371 c 1,0,1
272 268 m 2,24,-1
 212 312 l 1,25,26
 169 277 169 277 150.5 242 c 128,-1,27
 132 207 132 207 132 160 c 0,28,29
 132 94 132 94 167 54.5 c 128,-1,30
 202 15 202 15 259 15 c 0,31,32
 308 15 308 15 338.5 45.5 c 128,-1,33
 369 76 369 76 369 125 c 0,34,35
 369 166 369 166 348 197 c 128,-1,36
 327 228 327 228 272 268 c 2,24,-1
261 390 m 1,37,38
 265 393 265 393 270 395 c 0,39,40
 354 452 354 452 354 535 c 0,41,42
 354 586 354 586 324.5 616.5 c 128,-1,43
 295 647 295 647 245 647 c 0,44,45
 198 647 198 647 167 619.5 c 128,-1,46
 136 592 136 592 136 549 c 0,47,48
 136 507 136 507 165 469.5 c 128,-1,49
 194 432 194 432 261 390 c 1,37,38
EndSplineSet
EndChar

StartChar: nine
Encoding: 57 57 28
Width: 499
GlyphClass: 2
Flags: W
LayerCount: 2
Fore
SplineSet
59 -22 m 1,0,-1
 56 -1 l 1,1,2
 170 17 170 17 249.5 94 c 128,-1,3
 329 171 329 171 360 294 c 1,4,5
 288 237 288 237 209 237 c 0,6,7
 129 237 129 237 79 293 c 128,-1,8
 29 349 29 349 29 439 c 0,9,10
 29 542 29 542 89 609.5 c 128,-1,11
 149 677 149 677 239 677 c 0,12,13
 336 677 336 677 397 598 c 128,-1,14
 458 519 458 519 458 394 c 0,15,16
 458 292 458 292 415 204 c 128,-1,17
 372 116 372 116 294 59 c 0,18,19
 243 22 243 22 193 5 c 128,-1,20
 143 -12 143 -12 59 -22 c 1,0,-1
362 354 m 2,21,-1
 362 394 l 2,22,23
 362 647 362 647 230 647 c 0,24,25
 184 647 184 647 160 617 c 0,26,27
 144 598 144 598 133 558 c 128,-1,28
 122 518 122 518 122 475 c 0,29,30
 122 385 122 385 155.5 332.5 c 128,-1,31
 189 280 189 280 246 280 c 128,-1,32
 303 280 303 280 347 316 c 0,33,34
 362 332 362 332 362 354 c 2,21,-1
EndSplineSet
EndChar

StartChar: colon
Encoding: 58 58 29
Width: 276
GlyphClass: 2
Flags: W
LayerCount: 2
Fore
SplineSet
136 458 m 128,-1,1
 159 458 159 458 175.5 441.5 c 128,-1,2
 192 425 192 425 192 401 c 0,3,4
 192 381 192 381 175 365 c 128,-1,5
 158 349 158 349 135 349 c 0,6,7
 113 349 113 349 97 364.5 c 128,-1,8
 81 380 81 380 81 401 c 0,9,10
 81 426 81 426 97 442 c 128,-1,0
 113 458 113 458 136 458 c 128,-1,1
136 100 m 128,-1,12
 159 100 159 100 175.5 83 c 128,-1,13
 192 66 192 66 192 42 c 0,14,15
 192 21 192 21 175 4.5 c 128,-1,16
 158 -12 158 -12 135 -12 c 0,17,18
 113 -12 113 -12 97 4.5 c 128,-1,19
 81 21 81 21 81 42 c 0,20,21
 81 67 81 67 97 83.5 c 128,-1,11
 113 100 113 100 136 100 c 128,-1,12
EndSplineSet
EndChar

StartChar: semicolon
Encoding: 59 59 30
Width: 276
GlyphClass: 2
Flags: W
LayerCount: 2
Fore
SplineSet
107 -141 m 1,0,-1
 98 -122 l 1,1,2
 180 -66 180 -66 180 -16 c 0,3,4
 180 -1 180 -1 166 -1 c 1,5,-1
 158 -4 l 2,6,7
 155 -4 155 -4 148.5 -5 c 128,-1,8
 142 -6 142 -6 139 -6 c 0,9,10
 112 -6 112 -6 96.5 7.5 c 128,-1,11
 81 21 81 21 81 45 c 0,12,13
 81 72 81 72 97 87.5 c 128,-1,14
 113 103 113 103 139 103 c 0,15,16
 173 103 173 103 196.5 77 c 128,-1,17
 220 51 220 51 220 13 c 0,18,19
 220 -32 220 -32 189.5 -74 c 128,-1,20
 159 -116 159 -116 107 -141 c 1,0,-1
136 458 m 128,-1,22
 159 458 159 458 175.5 441.5 c 128,-1,23
 192 425 192 425 192 401 c 0,24,25
 192 381 192 381 175 365 c 128,-1,26
 158 349 158 349 135 349 c 0,27,28
 113 349 113 349 97 364.5 c 128,-1,29
 81 380 81 380 81 401 c 0,30,31
 81 426 81 426 97 442 c 128,-1,21
 113 458 113 458 136 458 c 128,-1,22
EndSplineSet
EndChar

StartChar: less
Encoding: 60 60 31
Width: 563
GlyphClass: 2
Flags: W
LayerCount: 2
Fore
SplineSet
536 -10 m 1,0,-1
 28 220 l 1,1,-1
 28 286 l 1,2,-1
 536 516 l 1,3,-1
 536 444 l 1,4,-1
 116 253 l 1,5,-1
 536 62 l 1,6,-1
 536 -10 l 1,0,-1
EndSplineSet
EndChar

StartChar: equal
Encoding: 61 61 32
Width: 563
GlyphClass: 2
Flags: W
LayerCount: 2
Fore
SplineSet
535 387 m 1,0,-1
 535 319 l 1,1,-1
 29 319 l 1,2,-1
 29 387 l 1,3,-1
 535 387 l 1,0,-1
535 186 m 1,4,-1
 535 120 l 1,5,-1
 29 120 l 1,6,-1
 29 186 l 1,7,-1
 535 186 l 1,4,-1
EndSplineSet
EndChar

StartChar: greater
Encoding: 62 62 33
Width: 563
GlyphClass: 2
Flags: W
LayerCount: 2
Fore
SplineSet
28 -10 m 1,0,-1
 28 62 l 1,1,-1
 448 253 l 1,2,-1
 28 444 l 1,3,-1
 28 516 l 1,4,-1
 536 286 l 1,5,-1
 536 220 l 1,6,-1
 28 -10 l 1,0,-1
EndSplineSet
EndChar

StartChar: question
Encoding: 63 63 34
Width: 443
GlyphClass: 2
Flags: W
LayerCount: 2
Fore
SplineSet
245 164 m 1,0,-1
 227 164 l 1,1,2
 230 229 230 229 256 306 c 1,3,-1
 286 371 l 2,4,5
 322 456 322 456 322 526 c 0,6,7
 322 576 322 576 290.5 611 c 128,-1,8
 259 646 259 646 214 646 c 0,9,10
 178 646 178 646 148.5 627 c 128,-1,11
 119 608 119 608 119 584 c 0,12,13
 119 574 119 574 136 554 c 0,14,15
 157 529 157 529 157 510 c 0,16,17
 157 492 157 492 146 480.5 c 128,-1,18
 135 469 135 469 116 469 c 0,19,20
 67 469 67 469 67 532 c 0,21,22
 67 593 67 593 114 635 c 128,-1,23
 161 677 161 677 230 677 c 0,24,25
 270 677 270 677 311 660.5 c 128,-1,26
 352 644 352 644 378 618 c 0,27,28
 415 581 415 581 415 521 c 0,29,30
 415 465 415 465 369 395 c 0,31,32
 354 374 354 374 309 318 c 0,33,34
 258 254 258 254 245 164 c 1,0,-1
237 100 m 128,-1,36
 259 100 259 100 275 83.5 c 128,-1,37
 291 67 291 67 291 44 c 0,38,39
 291 22 291 22 275.5 7.5 c 128,-1,40
 260 -7 260 -7 236 -7 c 0,41,42
 214 -7 214 -7 199.5 7.5 c 128,-1,43
 185 22 185 22 185 42 c 0,44,45
 185 67 185 67 200 83.5 c 128,-1,35
 215 100 215 100 237 100 c 128,-1,36
EndSplineSet
EndChar

StartChar: at
Encoding: 64 64 35
Width: 919
GlyphClass: 2
Flags: W
LayerCount: 2
Fore
SplineSet
688 73 m 1,0,-1
 700 42 l 1,1,2
 626 9 626 9 580.5 -3 c 128,-1,3
 535 -15 535 -15 483 -15 c 0,4,5
 327 -15 327 -15 221.5 83.5 c 128,-1,6
 116 182 116 182 116 327 c 0,7,8
 116 473 116 473 222.5 575 c 128,-1,9
 329 677 329 677 480 677 c 0,10,11
 619 677 619 677 714 592 c 128,-1,12
 809 507 809 507 809 384 c 0,13,14
 809 286 809 286 754 215 c 128,-1,15
 699 144 699 144 625 144 c 0,16,17
 589 144 589 144 564 163 c 128,-1,18
 539 182 539 182 535 215 c 1,19,20
 477 144 477 144 409 144 c 0,21,22
 372 144 372 144 346.5 176.5 c 128,-1,23
 321 209 321 209 321 256 c 0,24,25
 321 312 321 312 343.5 365.5 c 128,-1,26
 366 419 366 419 406 458 c 0,27,28
 455 508 455 508 517 508 c 0,29,30
 543 508 543 508 557.5 497.5 c 128,-1,31
 572 487 572 487 589 456 c 1,32,-1
 599 494 l 1,33,-1
 668 494 l 1,34,-1
 603 240 l 2,35,36
 601 228 601 228 601 223 c 0,37,38
 601 176 601 176 640 176 c 0,39,40
 690 176 690 176 729.5 237 c 128,-1,41
 769 298 769 298 769 374 c 0,42,43
 769 484 769 484 684.5 564.5 c 128,-1,44
 600 645 600 645 482 645 c 0,45,46
 371 645 371 645 293 570 c 0,47,48
 250 525 250 525 225.5 459 c 128,-1,49
 201 393 201 393 201 324 c 0,50,51
 201 193 201 193 282.5 109 c 128,-1,52
 364 25 364 25 492 25 c 0,53,54
 580 25 580 25 688 73 c 1,0,-1
532 464 m 0,55,56
 490 467 490 467 444 415 c 0,57,58
 393 356 393 356 393 272 c 0,59,60
 393 233 393 233 409 210 c 128,-1,61
 425 187 425 187 453 187 c 0,62,63
 487 187 487 187 515.5 227 c 128,-1,64
 544 267 544 267 557.5 313.5 c 128,-1,65
 571 360 571 360 573 398 c 0,66,67
 575 459 575 459 532 464 c 0,55,56
EndSplineSet
EndChar

StartChar: A
Encoding: 65 65 36
Width: 720
GlyphClass: 2
Flags: W
LayerCount: 2
Fore
SplineSet
706 19 m 1,0,-1
 706 0 l 1,1,-1
 451 0 l 1,2,-1
 451 19 l 1,3,4
 491 21 491 21 506 28 c 128,-1,5
 521 35 521 35 521 53 c 0,6,7
 521 76 521 76 502 120 c 2,8,-1
 461 215 l 1,9,-1
 199 215 l 1,10,-1
 152 100 l 2,11,12
 145 76 145 76 145 60 c 0,13,14
 145 19 145 19 212 19 c 1,15,-1
 212 0 l 1,16,-1
 15 0 l 1,17,-1
 15 19 l 1,18,19
 51 20 51 20 71 46.5 c 128,-1,20
 91 73 91 73 139 183 c 2,21,-1
 347 674 l 1,22,-1
 368 674 l 1,23,-1
 617 105 l 2,24,25
 642 50 642 50 657 35.5 c 128,-1,26
 672 21 672 21 706 19 c 1,0,-1
215 256 m 1,27,-1
 447 256 l 1,28,-1
 331 532 l 1,29,-1
 215 256 l 1,27,-1
EndSplineSet
EndChar

StartChar: B
Encoding: 66 66 37
Width: 499
GlyphClass: 2
Flags: W
LayerCount: 2
Fore
SplineSet
152 681 m 1,0,-1
 152 375 l 1,1,2
 168 411 168 411 207 435.5 c 128,-1,3
 246 460 246 460 291 460 c 0,4,5
 367 460 367 460 418 397.5 c 128,-1,6
 469 335 469 335 469 243 c 0,7,8
 469 136 469 136 401 63 c 128,-1,9
 333 -10 333 -10 234 -10 c 0,10,11
 174 -10 174 -10 121.5 10.5 c 128,-1,12
 69 31 69 31 69 54 c 2,13,-1
 69 573 l 2,14,15
 69 604 69 604 59.5 614 c 128,-1,16
 50 624 50 624 21 624 c 0,17,18
 9 624 9 624 3 623 c 1,19,-1
 3 639 l 1,20,-1
 32 647 l 2,21,22
 120 673 120 673 148 683 c 1,23,-1
 152 681 l 1,0,-1
152 322 m 2,24,-1
 152 70 l 2,25,26
 152 51 152 51 181.5 36.5 c 128,-1,27
 211 22 211 22 250 22 c 0,28,29
 312 22 312 22 345.5 68 c 128,-1,30
 379 114 379 114 379 198 c 0,31,32
 379 289 379 289 344.5 343 c 128,-1,33
 310 397 310 397 252 397 c 0,34,35
 214 397 214 397 183 374 c 128,-1,36
 152 351 152 351 152 322 c 2,24,-1
EndSplineSet
EndChar

StartChar: C
Encoding: 67 67 38
Width: 443
GlyphClass: 2
Flags: W
LayerCount: 2
Fore
SplineSet
25 212 m 0,0,1
 25 275 25 275 46.5 324.5 c 128,-1,2
 68 374 68 374 101.5 402.5 c 128,-1,3
 135 431 135 431 172 445.5 c 128,-1,4
 209 460 209 460 245 460 c 0,5,6
 307 460 307 460 352.5 429.5 c 128,-1,7
 398 399 398 399 398 357 c 0,8,9
 398 340 398 340 384 327.5 c 128,-1,10
 370 315 370 315 350 315 c 0,11,12
 335 315 335 315 322 327.5 c 128,-1,13
 309 340 309 340 303 360 c 2,14,-1
 297 384 l 2,15,16
 289 411 289 411 277 421 c 128,-1,17
 265 431 265 431 239 431 c 0,18,19
 178 431 178 431 140.5 382.5 c 128,-1,20
 103 334 103 334 103 256 c 0,21,22
 103 170 103 170 146 116 c 128,-1,23
 189 62 189 62 256 62 c 0,24,25
 299 62 299 62 330.5 83 c 128,-1,26
 362 104 362 104 398 157 c 1,27,-1
 412 146 l 1,28,29
 396 115 396 115 385.5 99 c 128,-1,30
 375 83 375 83 349.5 52 c 128,-1,31
 324 21 324 21 290 5.5 c 128,-1,32
 256 -10 256 -10 215 -10 c 0,33,34
 132 -10 132 -10 78.5 52.5 c 128,-1,35
 25 115 25 115 25 212 c 0,0,1
EndSplineSet
EndChar

StartChar: D
Encoding: 68 68 39
Width: 499
GlyphClass: 2
Flags: W
LayerCount: 2
Fore
SplineSet
344 -10 m 1,0,-1
 340 -7 l 1,1,-1
 340 57 l 1,2,3
 292 -10 292 -10 212 -10 c 0,4,5
 130 -10 130 -10 78 50 c 128,-1,6
 26 110 26 110 26 205 c 0,7,8
 26 311 26 311 87 385.5 c 128,-1,9
 148 460 148 460 234 460 c 0,10,11
 290 460 290 460 340 417 c 1,12,-1
 340 573 l 2,13,14
 340 604 340 604 331 614 c 128,-1,15
 322 624 322 624 294 624 c 0,16,17
 280 624 280 624 272 623 c 1,18,-1
 272 639 l 1,19,20
 368 665 368 665 419 683 c 1,21,-1
 423 681 l 1,22,-1
 423 114 l 2,23,24
 423 79 423 79 432 68 c 128,-1,25
 441 57 441 57 469 57 c 0,26,27
 473 57 473 57 491 59 c 1,28,-1
 491 42 l 1,29,-1
 344 -10 l 1,0,-1
250 42 m 0,30,31
 289 42 289 42 314.5 63.5 c 128,-1,32
 340 85 340 85 340 103 c 2,33,-1
 340 333 l 2,34,35
 340 372 340 372 309 402 c 128,-1,36
 278 432 278 432 239 432 c 0,37,38
 182 432 182 432 147.5 380.5 c 128,-1,39
 113 329 113 329 113 245 c 0,40,41
 113 153 113 153 150.5 97.5 c 128,-1,42
 188 42 188 42 250 42 c 0,30,31
EndSplineSet
EndChar

StartChar: E
Encoding: 69 69 40
Width: 610
GlyphClass: 2
Flags: W
LayerCount: 2
Fore
SplineSet
598 168 m 1,0,-1
 552 0 l 1,1,-1
 12 0 l 1,2,-1
 12 19 l 1,3,4
 66 22 66 22 83 39.5 c 128,-1,5
 100 57 100 57 100 108 c 2,6,-1
 100 554 l 2,7,8
 100 606 100 606 84 622 c 128,-1,9
 68 638 68 638 12 643 c 1,10,-1
 12 662 l 1,11,-1
 543 662 l 1,12,-1
 546 519 l 1,13,-1
 521 519 l 1,14,15
 508 586 508 586 481 605 c 128,-1,16
 454 624 454 624 369 624 c 2,17,-1
 234 624 l 2,18,19
 214 624 214 624 207.5 617.5 c 128,-1,20
 201 611 201 611 201 590 c 2,21,-1
 201 368 l 1,22,-1
 354 368 l 2,23,24
 426 368 426 368 442 393 c 0,25,26
 456 410 456 410 464 463 c 1,27,-1
 488 463 l 1,28,-1
 488 231 l 1,29,-1
 464 231 l 1,30,31
 456 293 456 293 436 310 c 128,-1,32
 416 327 416 327 354 327 c 2,33,-1
 201 327 l 1,34,-1
 201 81 l 2,35,36
 201 57 201 57 208 48 c 0,37,38
 221 37 221 37 306 37 c 2,39,-1
 333 37 l 2,40,41
 440 37 440 37 486 62.5 c 128,-1,42
 532 88 532 88 570 168 c 1,43,-1
 598 168 l 1,0,-1
EndSplineSet
EndChar

StartChar: F
Encoding: 70 70 41
Width: 555
GlyphClass: 2
Flags: W
LayerCount: 2
Fore
SplineSet
479 231 m 1,0,-1
 456 231 l 1,1,2
 447 292 447 292 427 309.5 c 128,-1,3
 407 327 407 327 346 327 c 2,4,-1
 201 327 l 1,5,-1
 201 108 l 2,6,7
 201 55 201 55 217.5 38.5 c 128,-1,8
 234 22 234 22 291 19 c 1,9,-1
 291 0 l 1,10,-1
 12 0 l 1,11,-1
 12 19 l 1,12,13
 69 22 69 22 84.5 40 c 128,-1,14
 100 58 100 58 100 120 c 2,15,-1
 100 554 l 2,16,17
 100 606 100 606 84 622 c 128,-1,18
 68 638 68 638 12 643 c 1,19,-1
 12 662 l 1,20,-1
 543 662 l 1,21,-1
 546 519 l 1,22,-1
 521 519 l 1,23,24
 508 586 508 586 481 605 c 128,-1,25
 454 624 454 624 369 624 c 2,26,-1
 233 624 l 2,27,28
 213 624 213 624 207 617.5 c 128,-1,29
 201 611 201 611 201 590 c 2,30,-1
 201 368 l 1,31,-1
 346 368 l 2,32,33
 406 368 406 368 426.5 386 c 128,-1,34
 447 404 447 404 456 463 c 1,35,-1
 479 463 l 1,36,-1
 479 231 l 1,0,-1
EndSplineSet
EndChar

StartChar: G
Encoding: 71 71 42
Width: 499
GlyphClass: 2
Flags: W
LayerCount: 2
Fore
SplineSet
236 460 m 0,0,1
 275 460 275 460 319 444 c 128,-1,2
 363 428 363 428 393 428 c 2,3,-1
 470 428 l 1,4,-1
 470 388 l 1,5,-1
 387 388 l 1,6,7
 406 345 406 345 406 305 c 0,8,9
 406 261 406 261 388.5 228.5 c 128,-1,10
 371 196 371 196 345 180 c 128,-1,11
 319 164 319 164 295 156.5 c 128,-1,12
 271 149 271 149 250 149 c 0,13,14
 223 149 223 149 193 154 c 1,15,16
 173 148 173 148 153 127 c 128,-1,17
 133 106 133 106 133 91 c 0,18,19
 133 67 133 67 211 64 c 2,20,-1
 340 59 l 2,21,22
 396 57 396 57 428.5 27.5 c 128,-1,23
 461 -2 461 -2 461 -48 c 0,24,25
 461 -120 461 -120 378.5 -169 c 128,-1,26
 296 -218 296 -218 201 -218 c 0,27,28
 129 -218 129 -218 78.5 -189.5 c 128,-1,29
 28 -161 28 -161 28 -122 c 0,30,31
 28 -93 28 -93 50 -66 c 128,-1,32
 72 -39 72 -39 126 1 c 1,33,34
 96 16 96 16 84.5 27.5 c 128,-1,35
 73 39 73 39 73 54 c 0,36,37
 73 64 73 64 76.5 73 c 128,-1,38
 80 82 80 82 89.5 93 c 128,-1,39
 99 104 99 104 107 112 c 128,-1,40
 115 120 115 120 133.5 136 c 128,-1,41
 152 152 152 152 163 163 c 1,42,43
 113 188 113 188 91 219 c 128,-1,44
 69 250 69 250 69 297 c 0,45,46
 69 365 69 365 118 412.5 c 128,-1,47
 167 460 167 460 236 460 c 0,0,1
146 -1 m 1,48,49
 115 -41 115 -41 106.5 -55.5 c 128,-1,50
 98 -70 98 -70 98 -88 c 0,51,52
 98 -121 98 -121 138.5 -141 c 128,-1,53
 179 -161 179 -161 245 -161 c 0,54,55
 329 -161 329 -161 381.5 -134 c 128,-1,56
 434 -107 434 -107 434 -64 c 0,57,58
 434 -37 434 -37 405.5 -26 c 128,-1,59
 377 -15 377 -15 309 -15 c 0,60,61
 206 -15 206 -15 146 -1 c 1,48,49
152 335 m 0,62,63
 152 263 152 263 180 218.5 c 128,-1,64
 208 174 208 174 253 174 c 0,65,66
 288 174 288 174 309 198.5 c 128,-1,67
 330 223 330 223 330 265 c 0,68,69
 330 334 330 334 300 383 c 128,-1,70
 270 432 270 432 226 432 c 0,71,72
 196 432 196 432 174 411 c 128,-1,73
 152 390 152 390 152 335 c 0,62,63
EndSplineSet
EndChar

StartChar: H
Encoding: 72 72 43
Width: 563
GlyphClass: 2
Flags: W
LayerCount: 2
Fore
SplineSet
535 220 m 1,0,-1
 29 220 l 1,1,-1
 29 286 l 1,2,-1
 535 286 l 1,3,-1
 535 220 l 1,0,-1
283 516 m 0,4,5
 305 516 305 516 321.5 499 c 128,-1,6
 338 482 338 482 338 458 c 0,7,8
 338 438 338 438 321 422 c 128,-1,9
 304 406 304 406 281 406 c 0,10,11
 259 406 259 406 243 422 c 128,-1,12
 227 438 227 438 227 458 c 0,13,14
 227 483 227 483 243.5 499.5 c 128,-1,15
 260 516 260 516 283 516 c 0,4,5
283 101 m 0,16,17
 305 101 305 101 321.5 84 c 128,-1,18
 338 67 338 67 338 44 c 0,19,20
 338 22 338 22 321 6 c 128,-1,21
 304 -10 304 -10 281 -10 c 0,22,23
 259 -10 259 -10 243 6 c 128,-1,24
 227 22 227 22 227 44 c 0,25,26
 227 67 227 67 243.5 84 c 128,-1,27
 260 101 260 101 283 101 c 0,16,17
EndSplineSet
EndChar

StartChar: I
Encoding: 73 73 44
Width: 332
GlyphClass: 2
Flags: W
LayerCount: 2
Fore
SplineSet
116 108 m 2,0,-1
 116 554 l 2,1,2
 116 609 116 609 99 624.5 c 128,-1,3
 82 640 82 640 18 643 c 1,4,-1
 18 662 l 1,5,-1
 315 662 l 1,6,-1
 315 643 l 1,7,8
 252 640 252 640 234.5 624 c 128,-1,9
 217 608 217 608 217 554 c 2,10,-1
 217 108 l 2,11,12
 217 55 217 55 235.5 38 c 128,-1,13
 254 21 254 21 315 19 c 1,14,-1
 315 0 l 1,15,-1
 18 0 l 1,16,-1
 18 19 l 1,17,18
 82 21 82 21 99 36.5 c 128,-1,19
 116 52 116 52 116 108 c 2,0,-1
EndSplineSet
EndChar

StartChar: J
Encoding: 74 74 45
Width: 388
GlyphClass: 2
Flags: W
LayerCount: 2
Fore
SplineSet
59 108 m 0,0,1
 80 108 80 108 92 94.5 c 128,-1,2
 104 81 104 81 108 65.5 c 128,-1,3
 112 50 112 50 119 36.5 c 128,-1,4
 126 23 126 23 138 23 c 0,5,6
 176 23 176 23 176 89 c 2,7,-1
 176 554 l 2,8,9
 176 608 176 608 160.5 623.5 c 128,-1,10
 145 639 145 639 83 643 c 1,11,-1
 83 662 l 1,12,-1
 371 662 l 1,13,-1
 371 643 l 1,14,15
 310 639 310 639 294 623.5 c 128,-1,16
 278 608 278 608 278 554 c 2,17,-1
 278 183 l 2,18,19
 278 89 278 89 233.5 37 c 128,-1,20
 189 -15 189 -15 108 -15 c 0,21,22
 65 -15 65 -15 37.5 6 c 128,-1,23
 10 27 10 27 10 59 c 0,24,25
 10 79 10 79 24.5 93.5 c 128,-1,26
 39 108 39 108 59 108 c 0,0,1
EndSplineSet
EndChar

StartChar: K
Encoding: 75 75 46
Width: 720
GlyphClass: 2
Flags: W
LayerCount: 2
Fore
SplineSet
413 643 m 1,0,-1
 413 662 l 1,1,-1
 675 662 l 1,2,-1
 675 643 l 1,3,4
 624 640 624 640 600 627.5 c 128,-1,5
 576 615 576 615 523 565 c 2,6,-1
 333 376 l 1,7,-1
 565 127 l 2,8,9
 634 54 634 54 659 37.5 c 128,-1,10
 684 21 684 21 724 19 c 1,11,-1
 724 0 l 1,12,-1
 417 0 l 1,13,-1
 417 19 l 1,14,15
 431 21 431 21 447 21 c 0,16,17
 488 21 488 21 488 42 c 0,18,19
 488 60 488 60 451 108.5 c 128,-1,20
 414 157 414 157 357 212 c 2,21,-1
 252 316 l 1,22,-1
 226 296 l 1,23,-1
 226 108 l 2,24,25
 226 54 226 54 242.5 38 c 128,-1,26
 259 22 259 22 316 19 c 1,27,-1
 316 0 l 1,28,-1
 34 0 l 1,29,-1
 34 19 l 1,30,31
 93 22 93 22 109 40 c 128,-1,32
 125 58 125 58 125 120 c 2,33,-1
 125 554 l 2,34,35
 125 606 125 606 108.5 622 c 128,-1,36
 92 638 92 638 34 643 c 1,37,-1
 34 662 l 1,38,-1
 318 662 l 1,39,-1
 318 643 l 1,40,41
 258 639 258 639 242 623.5 c 128,-1,42
 226 608 226 608 226 554 c 2,43,-1
 226 349 l 1,44,-1
 403 510 l 2,45,46
 480 580 480 580 480 612 c 0,47,48
 480 628 480 628 471 634 c 128,-1,49
 462 640 462 640 439 642 c 0,50,51
 425 642 425 642 413 643 c 1,0,-1
EndSplineSet
EndChar

StartChar: L
Encoding: 76 76 47
Width: 610
GlyphClass: 2
Flags: W
LayerCount: 2
Fore
SplineSet
354 40 m 2,0,1
 447 40 447 40 494 70 c 128,-1,2
 541 100 541 100 573 174 c 1,3,-1
 598 174 l 1,4,-1
 551 0 l 1,5,-1
 12 0 l 1,6,-1
 12 19 l 1,7,8
 66 22 66 22 83 39.5 c 128,-1,9
 100 57 100 57 100 108 c 2,10,-1
 100 554 l 2,11,12
 100 606 100 606 84 622 c 128,-1,13
 68 638 68 638 12 643 c 1,14,-1
 12 662 l 1,15,-1
 294 662 l 1,16,-1
 294 643 l 1,17,18
 235 640 235 640 218 623.5 c 128,-1,19
 201 607 201 607 201 554 c 2,20,-1
 201 81 l 2,21,22
 201 54 201 54 216.5 47 c 128,-1,23
 232 40 232 40 287 40 c 2,24,-1
 354 40 l 2,0,1
EndSplineSet
EndChar

StartChar: M
Encoding: 77 77 48
Width: 887
GlyphClass: 2
Flags: W
LayerCount: 2
Fore
SplineSet
674 573 m 1,0,-1
 417 0 l 1,1,-1
 404 0 l 1,2,-1
 152 551 l 1,3,-1
 152 146 l 2,4,5
 152 71 152 71 170.5 46.5 c 128,-1,6
 189 22 189 22 248 19 c 1,7,-1
 248 0 l 1,8,-1
 12 0 l 1,9,-1
 12 19 l 1,10,11
 74 23 74 23 91 46 c 128,-1,12
 108 69 108 69 108 146 c 2,13,-1
 108 554 l 2,14,15
 108 608 108 608 92 624 c 128,-1,16
 76 640 76 640 15 643 c 1,17,-1
 15 662 l 1,18,-1
 212 662 l 1,19,-1
 442 157 l 1,20,-1
 664 662 l 1,21,-1
 863 662 l 1,22,-1
 863 643 l 1,23,24
 808 638 808 638 792 622 c 128,-1,25
 776 606 776 606 776 554 c 2,26,-1
 776 108 l 2,27,28
 776 55 776 55 792 38.5 c 128,-1,29
 808 22 808 22 863 19 c 1,30,-1
 863 0 l 1,31,-1
 583 0 l 1,32,-1
 583 19 l 1,33,34
 642 22 642 22 658 40 c 128,-1,35
 674 58 674 58 674 120 c 2,36,-1
 674 573 l 1,0,-1
EndSplineSet
EndChar

StartChar: N
Encoding: 78 78 49
Width: 720
GlyphClass: 2
Flags: W
LayerCount: 2
Fore
SplineSet
707 643 m 1,0,1
 684 640 684 640 675.5 638.5 c 128,-1,2
 667 637 667 637 651 630 c 128,-1,3
 635 623 635 623 629 610.5 c 128,-1,4
 623 598 623 598 617.5 574.5 c 128,-1,5
 612 551 612 551 612 516 c 2,6,-1
 612 -12 l 1,7,-1
 595 -12 l 1,8,-1
 152 539 l 1,9,-1
 152 146 l 2,10,11
 152 71 152 71 170.5 46.5 c 128,-1,12
 189 22 189 22 248 19 c 1,13,-1
 248 0 l 1,14,-1
 12 0 l 1,15,-1
 12 19 l 1,16,17
 74 23 74 23 91 46 c 128,-1,18
 108 69 108 69 108 146 c 2,19,-1
 108 587 l 1,20,21
 79 624 79 624 62 633.5 c 128,-1,22
 45 643 45 643 12 643 c 1,23,-1
 12 662 l 1,24,-1
 183 662 l 1,25,-1
 568 179 l 1,26,-1
 568 516 l 2,27,28
 568 572 568 572 557.5 598.5 c 128,-1,29
 547 625 547 625 529.5 632.5 c 128,-1,30
 512 640 512 640 472 643 c 1,31,-1
 472 662 l 1,32,-1
 707 662 l 1,33,-1
 707 643 l 1,0,1
EndSplineSet
EndChar

StartChar: O
Encoding: 79 79 50
Width: 720
GlyphClass: 2
Flags: W
LayerCount: 2
Fore
SplineSet
360 677 m 0,0,1
 497 677 497 677 592.5 583.5 c 128,-1,2
 688 490 688 490 688 327 c 0,3,4
 688 176 688 176 595 80.5 c 128,-1,5
 502 -15 502 -15 354 -15 c 0,6,7
 297 -15 297 -15 242 6.5 c 128,-1,8
 187 28 187 28 139.5 69 c 128,-1,9
 92 110 92 110 63 178.5 c 128,-1,10
 34 247 34 247 34 331 c 0,11,12
 34 482 34 482 126 579.5 c 128,-1,13
 218 677 218 677 360 677 c 0,0,1
574 328 m 0,14,15
 574 401 574 401 560 457.5 c 128,-1,16
 546 514 546 514 524 547.5 c 128,-1,17
 502 581 502 581 472.5 603 c 128,-1,18
 443 625 443 625 415.5 632.5 c 128,-1,19
 388 640 388 640 360 640 c 0,20,21
 324 640 324 640 290 626.5 c 128,-1,22
 256 613 256 613 222.5 581 c 128,-1,23
 189 549 189 549 168.5 484.5 c 128,-1,24
 148 420 148 420 148 330 c 0,25,26
 148 257 148 257 162.5 200.5 c 128,-1,27
 177 144 177 144 199 111.5 c 128,-1,28
 221 79 221 79 250 58 c 128,-1,29
 279 37 279 37 305.5 29.5 c 128,-1,30
 332 22 332 22 359 22 c 0,31,32
 396 22 396 22 430.5 36 c 128,-1,33
 465 50 465 50 499 82 c 128,-1,34
 533 114 533 114 553.5 177.5 c 128,-1,35
 574 241 574 241 574 328 c 0,14,15
EndSplineSet
EndChar

StartChar: P
Encoding: 80 80 51
Width: 555
GlyphClass: 2
Flags: W
LayerCount: 2
Fore
SplineSet
202 291 m 1,0,-1
 202 108 l 2,1,2
 202 55 202 55 219.5 38 c 128,-1,3
 237 21 237 21 296 19 c 1,4,-1
 296 0 l 1,5,-1
 16 0 l 1,6,-1
 16 19 l 1,7,8
 73 24 73 24 86.5 40.5 c 128,-1,9
 100 57 100 57 100 120 c 2,10,-1
 100 554 l 2,11,12
 100 607 100 607 85.5 622.5 c 128,-1,13
 71 638 71 638 16 643 c 1,14,-1
 16 662 l 1,15,-1
 280 662 l 2,16,17
 351 662 351 662 411 642.5 c 128,-1,18
 471 623 471 623 501 590 c 0,19,20
 542 548 542 548 542 480 c 0,21,22
 542 431 542 431 516.5 388.5 c 128,-1,23
 491 346 491 346 447 322 c 0,24,25
 389 289 389 289 271 289 c 0,26,27
 229 289 229 289 202 291 c 1,0,-1
202 592 m 2,28,-1
 202 331 l 1,29,30
 211 331 211 331 229.5 329.5 c 128,-1,31
 248 328 248 328 259 328 c 0,32,33
 434 328 434 328 434 475 c 0,34,35
 434 553 434 553 386 589 c 128,-1,36
 338 625 338 625 236 625 c 0,37,38
 216 625 216 625 209 618.5 c 128,-1,39
 202 612 202 612 202 592 c 2,28,-1
EndSplineSet
EndChar

StartChar: Q
Encoding: 81 81 52
Width: 720
GlyphClass: 2
Flags: W
LayerCount: 2
Fore
SplineSet
702 -160 m 1,0,-1
 702 -177 l 1,1,-1
 696 -177 l 2,2,3
 684 -179 684 -179 661 -179 c 0,4,5
 416 -179 416 -179 312 -56 c 2,6,-1
 265 -1 l 1,7,8
 212 17 212 17 182.5 34.5 c 128,-1,9
 153 52 153 52 123 85 c 0,10,11
 34 182 34 182 34 330 c 0,12,13
 34 482 34 482 126 579.5 c 128,-1,14
 218 677 218 677 360 677 c 0,15,16
 504 677 504 677 596 579.5 c 128,-1,17
 688 482 688 482 688 331 c 0,18,19
 688 163 688 163 576 63 c 0,20,21
 541 33 541 33 509 18 c 128,-1,22
 477 3 477 3 426 -7 c 1,23,24
 487 -86 487 -86 551.5 -122 c 128,-1,25
 616 -158 616 -158 702 -160 c 1,0,-1
365 640 m 0,26,27
 278 640 278 640 218 576 c 0,28,29
 187 541 187 541 167.5 474 c 128,-1,30
 148 407 148 407 148 335 c 0,31,32
 148 247 148 247 170.5 177 c 128,-1,33
 193 107 193 107 233 70 c 0,34,35
 292 22 292 22 360 22 c 0,36,37
 449 22 449 22 505 86 c 0,38,39
 535 121 535 121 554.5 190 c 128,-1,40
 574 259 574 259 574 333 c 0,41,42
 574 418 574 418 551.5 486 c 128,-1,43
 529 554 529 554 488 590 c 0,44,45
 432 640 432 640 365 640 c 0,26,27
EndSplineSet
EndChar

StartChar: R
Encoding: 82 82 53
Width: 666
GlyphClass: 2
Flags: W
LayerCount: 2
Fore
SplineSet
659 19 m 1,0,-1
 659 0 l 1,1,-1
 498 0 l 1,2,-1
 261 308 l 1,3,-1
 204 306 l 1,4,-1
 204 108 l 2,5,6
 204 54 204 54 220.5 38 c 128,-1,7
 237 22 237 22 294 19 c 1,8,-1
 294 0 l 1,9,-1
 18 0 l 1,10,-1
 18 19 l 1,11,12
 74 24 74 24 88.5 41 c 128,-1,13
 103 58 103 58 103 120 c 2,14,-1
 103 554 l 2,15,16
 103 607 103 607 88 622.5 c 128,-1,17
 73 638 73 638 18 643 c 1,18,-1
 18 662 l 1,19,-1
 293 662 l 2,20,21
 363 662 363 662 421 644 c 128,-1,22
 479 626 479 626 508 595 c 0,23,24
 546 553 546 553 546 486 c 0,25,26
 546 411 546 411 497 371 c 0,27,28
 472 351 472 351 445 340.5 c 128,-1,29
 418 330 418 330 366 319 c 1,30,-1
 573 66 l 2,31,32
 594 41 594 41 612 31 c 128,-1,33
 630 21 630 21 659 19 c 1,0,-1
204 589 m 2,34,-1
 204 343 l 1,35,36
 277 345 277 345 312 351.5 c 128,-1,37
 347 358 347 358 381 376 c 0,38,39
 438 406 438 406 438 488 c 0,40,41
 438 558 438 558 393 591.5 c 128,-1,42
 348 625 348 625 255 625 c 0,43,44
 225 625 225 625 214.5 617.5 c 128,-1,45
 204 610 204 610 204 589 c 2,34,-1
EndSplineSet
EndChar

StartChar: S
Encoding: 83 83 54
Width: 555
GlyphClass: 2
Flags: W
LayerCount: 2
Fore
SplineSet
245 677 m 0,0,1
 284 677 284 677 335 659.5 c 128,-1,2
 386 642 386 642 394 642 c 0,3,4
 420 642 420 642 426 677 c 1,5,-1
 447 677 l 1,6,-1
 469 463 l 1,7,-1
 444 463 l 1,8,9
 423 540 423 540 384 580 c 0,10,11
 331 636 331 636 261 636 c 0,12,13
 215 636 215 636 186 610 c 128,-1,14
 157 584 157 584 157 542 c 0,15,16
 157 501 157 501 191.5 466 c 128,-1,17
 226 431 226 431 275 403.5 c 128,-1,18
 324 376 324 376 373 346 c 128,-1,19
 422 316 422 316 456.5 270.5 c 128,-1,20
 491 225 491 225 491 168 c 0,21,22
 491 90 491 90 432 37.5 c 128,-1,23
 373 -15 373 -15 287 -15 c 0,24,25
 240 -15 240 -15 185.5 3 c 128,-1,26
 131 21 131 21 122 21 c 0,27,28
 111 21 111 21 103 11 c 128,-1,29
 95 1 95 1 94 -13 c 1,30,-1
 72 -13 l 1,31,-1
 42 199 l 1,32,-1
 64 199 l 1,33,34
 103 108 103 108 152 65 c 128,-1,35
 201 22 201 22 267 22 c 0,36,37
 322 22 322 22 356 53 c 128,-1,38
 390 84 390 84 390 135 c 0,39,40
 390 153 390 153 386.5 166 c 128,-1,41
 383 179 383 179 369 202 c 128,-1,42
 355 225 355 225 319.5 252.5 c 128,-1,43
 284 280 284 280 227 311 c 0,44,45
 144 355 144 355 107 400 c 128,-1,46
 70 445 70 445 70 505 c 0,47,48
 70 585 70 585 125.5 631 c 128,-1,49
 181 677 181 677 245 677 c 0,0,1
EndSplineSet
EndChar

StartChar: T
Encoding: 84 84 55
Width: 610
GlyphClass: 2
Flags: W
LayerCount: 2
Fore
SplineSet
253 620 m 1,0,-1
 201 620 l 2,1,2
 116 620 116 620 87 597 c 128,-1,3
 58 574 58 574 41 492 c 1,4,-1
 18 492 l 1,5,-1
 23 662 l 1,6,-1
 587 662 l 1,7,-1
 593 492 l 1,8,-1
 570 492 l 1,9,10
 552 575 552 575 523.5 597.5 c 128,-1,11
 495 620 495 620 410 620 c 2,12,-1
 356 620 l 1,13,-1
 356 108 l 2,14,15
 356 55 356 55 374 38.5 c 128,-1,16
 392 22 392 22 453 19 c 1,17,-1
 453 0 l 1,18,-1
 160 0 l 1,19,-1
 160 19 l 1,20,21
 222 22 222 22 237.5 39 c 128,-1,22
 253 56 253 56 253 120 c 2,23,-1
 253 620 l 1,0,-1
EndSplineSet
EndChar

StartChar: U
Encoding: 85 85 56
Width: 720
GlyphClass: 2
Flags: W
LayerCount: 2
Fore
SplineSet
611 516 m 2,0,-1
 611 253 l 2,1,2
 611 146 611 146 579 89 c 0,3,4
 518 -15 518 -15 354 -15 c 0,5,6
 227 -15 227 -15 165.5 48 c 128,-1,7
 104 111 104 111 104 242 c 2,8,-1
 104 554 l 2,9,10
 104 607 104 607 88.5 622.5 c 128,-1,11
 73 638 73 638 15 643 c 1,12,-1
 15 662 l 1,13,-1
 297 662 l 1,14,-1
 297 643 l 1,15,16
 237 638 237 638 222 623 c 128,-1,17
 207 608 207 608 207 554 c 2,18,-1
 207 233 l 2,19,20
 207 141 207 141 231 101 c 0,21,22
 272 29 272 29 378 29 c 0,23,24
 433 29 433 29 478 51 c 128,-1,25
 523 73 523 73 543 108 c 0,26,27
 567 152 567 152 567 245 c 2,28,-1
 567 516 l 2,29,30
 567 590 567 590 549 614.5 c 128,-1,31
 531 639 531 639 473 643 c 1,32,-1
 473 662 l 1,33,-1
 705 662 l 1,34,-1
 705 643 l 1,35,36
 643 635 643 635 627 613.5 c 128,-1,37
 611 592 611 592 611 516 c 2,0,-1
EndSplineSet
EndChar

StartChar: V
Encoding: 86 86 57
Width: 720
GlyphClass: 2
Flags: W
LayerCount: 2
Fore
SplineSet
697 662 m 1,0,-1
 697 643 l 1,1,2
 661 641 661 641 646 625.5 c 128,-1,3
 631 610 631 610 605 551 c 2,4,-1
 384 -12 l 1,5,-1
 368 -12 l 1,6,-1
 122 538 l 2,7,8
 90 605 90 605 71 623.5 c 128,-1,9
 52 642 52 642 16 643 c 1,10,-1
 16 662 l 1,11,-1
 283 662 l 1,12,-1
 283 643 l 1,13,14
 268 642 268 642 253 642 c 0,15,16
 207 638 207 638 207 609 c 0,17,18
 207 591 207 591 248 499 c 2,19,-1
 398 161 l 1,20,-1
 546 529 l 2,21,22
 565 575 565 575 565 601 c 0,23,24
 565 621 565 621 548.5 631 c 128,-1,25
 532 641 532 641 492 643 c 1,26,-1
 492 662 l 1,27,-1
 697 662 l 1,0,-1
EndSplineSet
EndChar

StartChar: W
Encoding: 87 87 58
Width: 720
GlyphClass: 2
Flags: W
LayerCount: 2
Fore
SplineSet
286 662 m 2,0,1
 467 662 467 662 576.5 578 c 128,-1,2
 686 494 686 494 686 334 c 0,3,4
 686 289 686 289 675.5 245.5 c 128,-1,5
 665 202 665 202 637 156.5 c 128,-1,6
 609 111 609 111 567 77 c 128,-1,7
 525 43 525 43 456 21.5 c 128,-1,8
 387 0 387 0 300 0 c 2,9,-1
 16 0 l 1,10,-1
 16 19 l 1,11,12
 73 22 73 22 88.5 38 c 128,-1,13
 104 54 104 54 104 108 c 2,14,-1
 104 554 l 2,15,16
 104 609 104 609 89.5 623.5 c 128,-1,17
 75 638 75 638 16 643 c 1,18,-1
 16 662 l 1,19,-1
 286 662 l 2,0,1
207 586 m 2,20,-1
 207 78 l 2,21,22
 207 53 207 53 217.5 45 c 128,-1,23
 228 37 228 37 258 37 c 0,24,25
 384 37 384 37 454 78 c 0,26,27
 576 149 576 149 576 327 c 0,28,29
 576 492 576 492 457 576 c 0,30,31
 386 625 386 625 258 625 c 0,32,33
 227 625 227 625 217 617 c 128,-1,34
 207 609 207 609 207 586 c 2,20,-1
EndSplineSet
EndChar

StartChar: X
Encoding: 88 88 59
Width: 610
GlyphClass: 2
Flags: W
LayerCount: 2
Fore
SplineSet
253 620 m 1,0,-1
 201 620 l 2,1,2
 116 620 116 620 87 597 c 128,-1,3
 58 574 58 574 41 492 c 1,4,-1
 18 492 l 1,5,-1
 23 662 l 1,6,-1
 587 662 l 1,7,-1
 593 492 l 1,8,-1
 570 492 l 1,9,10
 552 575 552 575 523.5 597.5 c 128,-1,11
 495 620 495 620 410 620 c 2,12,-1
 356 620 l 1,13,-1
 356 108 l 2,14,15
 356 55 356 55 374 38.5 c 128,-1,16
 392 22 392 22 453 19 c 1,17,-1
 453 0 l 1,18,-1
 160 0 l 1,19,-1
 160 19 l 1,20,21
 222 22 222 22 237.5 39 c 128,-1,22
 253 56 253 56 253 120 c 2,23,-1
 253 620 l 1,0,-1
EndSplineSet
EndChar

StartChar: Y
Encoding: 89 89 60
Width: 720
GlyphClass: 2
Flags: W
LayerCount: 2
Fore
SplineSet
703 662 m 1,0,-1
 703 643 l 1,1,2
 665 640 665 640 637.5 617.5 c 128,-1,3
 610 595 610 595 565 529 c 2,4,-1
 417 303 l 1,5,-1
 417 108 l 2,6,7
 417 52 417 52 435 36 c 128,-1,8
 453 20 453 20 520 19 c 1,9,-1
 520 0 l 1,10,-1
 214 0 l 1,11,-1
 214 19 l 1,12,13
 282 22 282 22 298.5 38.5 c 128,-1,14
 315 55 315 55 315 120 c 2,15,-1
 315 294 l 1,16,-1
 185 486 l 1,17,18
 107 594 107 594 82 618 c 128,-1,19
 57 642 57 642 22 643 c 1,20,-1
 22 662 l 1,21,-1
 302 662 l 1,22,-1
 302 643 l 1,23,24
 291 642 291 642 277 642 c 0,25,26
 231 639 231 639 231 614 c 0,27,28
 231 592 231 592 248 570 c 2,29,-1
 395 347 l 1,30,-1
 539 573 l 2,31,32
 554 596 554 596 554 609 c 0,33,34
 554 628 554 628 538.5 635 c 128,-1,35
 523 642 523 642 483 643 c 1,36,-1
 483 662 l 1,37,-1
 703 662 l 1,0,-1
EndSplineSet
EndChar

StartChar: Z
Encoding: 90 90 61
Width: 610
GlyphClass: 2
Flags: W
LayerCount: 2
Fore
SplineSet
574 176 m 1,0,-1
 598 176 l 1,1,-1
 573 0 l 1,2,-1
 9 0 l 1,3,-1
 9 15 l 1,4,-1
 447 624 l 1,5,-1
 226 624 l 2,6,7
 127 624 127 624 91 582 c 0,8,9
 68 550 68 550 57 491 c 1,10,-1
 31 491 l 1,11,-1
 51 662 l 1,12,-1
 577 662 l 1,13,-1
 577 647 l 1,14,-1
 145 38 l 1,15,-1
 401 38 l 2,16,17
 487 38 487 38 527 78 c 0,18,19
 554 109 554 109 574 176 c 1,0,-1
EndSplineSet
EndChar

StartChar: bracketleft
Encoding: 91 91 62
Width: 332
GlyphClass: 2
Flags: W
LayerCount: 2
Fore
SplineSet
299 -130 m 1,0,-1
 299 -157 l 1,1,-1
 88 -157 l 1,2,-1
 88 662 l 1,3,-1
 299 662 l 1,4,-1
 299 637 l 1,5,-1
 209 637 l 2,6,7
 185 637 185 637 174.5 626.5 c 128,-1,8
 164 616 164 616 164 593 c 2,9,-1
 164 -79 l 2,10,11
 164 -130 164 -130 212 -130 c 2,12,-1
 299 -130 l 1,0,-1
EndSplineSet
EndChar

StartChar: backslash
Encoding: 92 92 63
Width: 276
GlyphClass: 2
Flags: W
LayerCount: 2
Fore
SplineSet
-9 677 m 1,0,-1
 59 677 l 1,1,-1
 287 -15 l 1,2,-1
 220 -15 l 1,3,-1
 -9 677 l 1,0,-1
EndSplineSet
EndChar

StartChar: bracketright
Encoding: 93 93 64
Width: 332
GlyphClass: 2
Flags: W
LayerCount: 2
Fore
SplineSet
34 -130 m 1,0,-1
 125 -130 l 2,1,2
 148 -130 148 -130 158 -120 c 128,-1,3
 168 -110 168 -110 168 -86 c 2,4,-1
 168 584 l 2,5,6
 168 637 168 637 120 637 c 2,7,-1
 34 637 l 1,8,-1
 34 662 l 1,9,-1
 245 662 l 1,10,-1
 245 -157 l 1,11,-1
 34 -157 l 1,12,-1
 34 -130 l 1,0,-1
EndSplineSet
EndChar

StartChar: asciicircum
Encoding: 94 94 65
Width: 468
GlyphClass: 2
Flags: W
LayerCount: 2
Fore
SplineSet
92 297 m 1,0,-1
 23 297 l 1,1,-1
 205 662 l 1,2,-1
 265 662 l 1,3,-1
 447 297 l 1,4,-1
 378 297 l 1,5,-1
 234 586 l 1,6,-1
 92 297 l 1,0,-1
EndSplineSet
EndChar

StartChar: underscore
Encoding: 95 95 66
Width: 499
GlyphClass: 2
Flags: W
LayerCount: 2
Fore
SplineSet
499 -125 m 1,0,-1
 0 -125 l 1,1,-1
 0 -75 l 1,2,-1
 499 -75 l 1,3,-1
 499 -125 l 1,0,-1
EndSplineSet
EndChar

StartChar: grave
Encoding: 96 96 67
Width: 332
GlyphClass: 2
Flags: W
LayerCount: 2
Fore
SplineSet
242 507 m 1,0,-1
 202 507 l 1,1,-1
 48 603 l 2,2,3
 19 620 19 620 19 647 c 0,4,5
 19 678 19 678 53 678 c 0,6,7
 72 678 72 678 95 655 c 2,8,-1
 242 507 l 1,0,-1
EndSplineSet
EndChar

StartChar: a
Encoding: 97 97 68
Width: 443
GlyphClass: 2
Flags: W
LayerCount: 2
Fore
SplineSet
224 460 m 0,0,1
 264 460 264 460 293 449 c 128,-1,2
 322 438 322 438 336 423.5 c 128,-1,3
 350 409 350 409 357.5 384 c 128,-1,4
 365 359 365 359 366.5 342.5 c 128,-1,5
 368 326 368 326 368 300 c 2,6,-1
 368 105 l 2,7,8
 368 72 368 72 374.5 59.5 c 128,-1,9
 381 47 381 47 398 47 c 0,10,11
 417 47 417 47 442 66 c 1,12,-1
 442 40 l 1,13,14
 416 11 416 11 397 0.5 c 128,-1,15
 378 -10 378 -10 352 -10 c 0,16,17
 321 -10 321 -10 306.5 7.5 c 128,-1,18
 292 25 292 25 289 63 c 1,19,20
 200 -10 200 -10 142 -10 c 0,21,22
 96 -10 96 -10 66.5 20 c 128,-1,23
 37 50 37 50 37 97 c 0,24,25
 37 125 37 125 48 148 c 128,-1,26
 59 171 59 171 76 187.5 c 128,-1,27
 93 204 93 204 122.5 220.5 c 128,-1,28
 152 237 152 237 180 248.5 c 128,-1,29
 208 260 208 260 251 277 c 0,30,31
 275 286 275 286 287 291 c 1,32,-1
 287 353 l 2,33,34
 287 437 287 437 211 437 c 0,35,36
 181 437 181 437 160 422.5 c 128,-1,37
 139 408 139 408 139 387 c 0,38,39
 139 381 139 381 141.5 367 c 128,-1,40
 144 353 144 353 144 347 c 0,41,42
 144 331 144 331 130.5 318 c 128,-1,43
 117 305 117 305 100 305 c 0,44,45
 82 305 82 305 69 318 c 128,-1,46
 56 331 56 331 56 349 c 0,47,48
 56 396 56 396 104.5 428 c 128,-1,49
 153 460 153 460 224 460 c 0,0,1
287 123 m 2,50,-1
 287 268 l 1,51,52
 197 235 197 235 161 204 c 128,-1,53
 125 173 125 173 125 129 c 0,54,55
 125 88 125 88 144.5 68 c 128,-1,56
 164 48 164 48 187 48 c 0,57,58
 220 48 220 48 261 70 c 0,59,60
 277 80 277 80 282 90 c 128,-1,61
 287 100 287 100 287 123 c 2,50,-1
EndSplineSet
EndChar

StartChar: b
Encoding: 98 98 69
Width: 499
GlyphClass: 2
Flags: W
LayerCount: 2
Fore
SplineSet
152 681 m 1,0,-1
 152 375 l 1,1,2
 168 411 168 411 207 435.5 c 128,-1,3
 246 460 246 460 291 460 c 0,4,5
 367 460 367 460 418 397.5 c 128,-1,6
 469 335 469 335 469 243 c 0,7,8
 469 136 469 136 401 63 c 128,-1,9
 333 -10 333 -10 234 -10 c 0,10,11
 174 -10 174 -10 121.5 10.5 c 128,-1,12
 69 31 69 31 69 54 c 2,13,-1
 69 573 l 2,14,15
 69 604 69 604 59.5 614 c 128,-1,16
 50 624 50 624 21 624 c 0,17,18
 9 624 9 624 3 623 c 1,19,-1
 3 639 l 1,20,-1
 32 647 l 2,21,22
 120 673 120 673 148 683 c 1,23,-1
 152 681 l 1,0,-1
152 322 m 2,24,-1
 152 70 l 2,25,26
 152 51 152 51 181.5 36.5 c 128,-1,27
 211 22 211 22 250 22 c 0,28,29
 312 22 312 22 345.5 68 c 128,-1,30
 379 114 379 114 379 198 c 0,31,32
 379 289 379 289 344.5 343 c 128,-1,33
 310 397 310 397 252 397 c 0,34,35
 214 397 214 397 183 374 c 128,-1,36
 152 351 152 351 152 322 c 2,24,-1
EndSplineSet
EndChar

StartChar: c
Encoding: 99 99 70
Width: 443
GlyphClass: 2
Flags: W
LayerCount: 2
Fore
SplineSet
25 212 m 0,0,1
 25 275 25 275 46.5 324.5 c 128,-1,2
 68 374 68 374 101.5 402.5 c 128,-1,3
 135 431 135 431 172 445.5 c 128,-1,4
 209 460 209 460 245 460 c 0,5,6
 307 460 307 460 352.5 429.5 c 128,-1,7
 398 399 398 399 398 357 c 0,8,9
 398 340 398 340 384 327.5 c 128,-1,10
 370 315 370 315 350 315 c 0,11,12
 335 315 335 315 322 327.5 c 128,-1,13
 309 340 309 340 303 360 c 2,14,-1
 297 384 l 2,15,16
 289 411 289 411 277 421 c 128,-1,17
 265 431 265 431 239 431 c 0,18,19
 178 431 178 431 140.5 382.5 c 128,-1,20
 103 334 103 334 103 256 c 0,21,22
 103 170 103 170 146 116 c 128,-1,23
 189 62 189 62 256 62 c 0,24,25
 299 62 299 62 330.5 83 c 128,-1,26
 362 104 362 104 398 157 c 1,27,-1
 412 146 l 1,28,29
 396 115 396 115 385.5 99 c 128,-1,30
 375 83 375 83 349.5 52 c 128,-1,31
 324 21 324 21 290 5.5 c 128,-1,32
 256 -10 256 -10 215 -10 c 0,33,34
 132 -10 132 -10 78.5 52.5 c 128,-1,35
 25 115 25 115 25 212 c 0,0,1
EndSplineSet
EndChar

StartChar: d
Encoding: 100 100 71
Width: 499
GlyphClass: 2
Flags: W
LayerCount: 2
Fore
SplineSet
344 -10 m 1,0,-1
 340 -7 l 1,1,-1
 340 57 l 1,2,3
 292 -10 292 -10 212 -10 c 0,4,5
 130 -10 130 -10 78 50 c 128,-1,6
 26 110 26 110 26 205 c 0,7,8
 26 311 26 311 87 385.5 c 128,-1,9
 148 460 148 460 234 460 c 0,10,11
 290 460 290 460 340 417 c 1,12,-1
 340 573 l 2,13,14
 340 604 340 604 331 614 c 128,-1,15
 322 624 322 624 294 624 c 0,16,17
 280 624 280 624 272 623 c 1,18,-1
 272 639 l 1,19,20
 368 665 368 665 419 683 c 1,21,-1
 423 681 l 1,22,-1
 423 114 l 2,23,24
 423 79 423 79 432 68 c 128,-1,25
 441 57 441 57 469 57 c 0,26,27
 473 57 473 57 491 59 c 1,28,-1
 491 42 l 1,29,-1
 344 -10 l 1,0,-1
250 42 m 0,30,31
 289 42 289 42 314.5 63.5 c 128,-1,32
 340 85 340 85 340 103 c 2,33,-1
 340 333 l 2,34,35
 340 372 340 372 309 402 c 128,-1,36
 278 432 278 432 239 432 c 0,37,38
 182 432 182 432 147.5 380.5 c 128,-1,39
 113 329 113 329 113 245 c 0,40,41
 113 153 113 153 150.5 97.5 c 128,-1,42
 188 42 188 42 250 42 c 0,30,31
EndSplineSet
EndChar

StartChar: e
Encoding: 101 101 72
Width: 443
GlyphClass: 2
Flags: W
LayerCount: 2
Fore
SplineSet
25 214 m 0,0,1
 25 332 25 332 87.5 396 c 128,-1,2
 150 460 150 460 234 460 c 0,3,4
 316 460 316 460 362 403 c 0,5,6
 381 379 381 379 390 352.5 c 128,-1,7
 399 326 399 326 406 277 c 1,8,-1
 97 277 l 1,9,10
 101 190 101 190 125 145 c 0,11,12
 166 59 166 59 253 59 c 0,13,14
 300 59 300 59 336 83 c 128,-1,15
 372 107 372 107 409 164 c 1,16,-1
 423 157 l 1,17,18
 360 -10 360 -10 212 -10 c 0,19,20
 126 -10 126 -10 75.5 50.5 c 128,-1,21
 25 111 25 111 25 214 c 0,0,1
100 309 m 1,22,-1
 303 309 l 1,23,24
 293 374 293 374 272 398.5 c 128,-1,25
 251 423 251 423 205 423 c 0,26,27
 115 423 115 423 100 309 c 1,22,-1
EndSplineSet
EndChar

StartChar: f
Encoding: 102 102 73
Width: 332
GlyphClass: 2
Flags: W
LayerCount: 2
Fore
SplineSet
341 580 m 0,0,1
 326 580 326 580 314.5 591.5 c 128,-1,2
 303 603 303 603 296 617.5 c 128,-1,3
 289 632 289 632 275 643.5 c 128,-1,4
 261 655 261 655 243 655 c 0,5,6
 186 655 186 655 186 565 c 2,7,-1
 186 450 l 1,8,-1
 309 450 l 1,9,-1
 309 417 l 1,10,-1
 187 417 l 1,11,-1
 187 104 l 2,12,13
 187 48 187 48 203 32.5 c 128,-1,14
 219 17 219 17 280 15 c 1,15,-1
 280 0 l 1,16,-1
 21 0 l 1,17,-1
 21 15 l 1,18,19
 74 18 74 18 88.5 33.5 c 128,-1,20
 103 49 103 49 103 104 c 2,21,-1
 103 417 l 1,22,-1
 21 417 l 1,23,-1
 21 450 l 1,24,-1
 103 450 l 1,25,26
 104 511 104 511 111 543.5 c 128,-1,27
 118 576 118 576 138 609 c 0,28,29
 157 644 157 644 194.5 663.5 c 128,-1,30
 232 683 232 683 278 683 c 128,-1,31
 324 683 324 683 354 665.5 c 128,-1,32
 384 648 384 648 384 621 c 0,33,34
 384 604 384 604 371.5 592 c 128,-1,35
 359 580 359 580 341 580 c 0,0,1
EndSplineSet
EndChar

StartChar: g
Encoding: 103 103 74
Width: 499
GlyphClass: 2
Flags: W
LayerCount: 2
Fore
SplineSet
236 460 m 0,0,1
 275 460 275 460 319 444 c 128,-1,2
 363 428 363 428 393 428 c 2,3,-1
 470 428 l 1,4,-1
 470 388 l 1,5,-1
 387 388 l 1,6,7
 406 345 406 345 406 305 c 0,8,9
 406 261 406 261 388.5 228.5 c 128,-1,10
 371 196 371 196 345 180 c 128,-1,11
 319 164 319 164 295 156.5 c 128,-1,12
 271 149 271 149 250 149 c 0,13,14
 223 149 223 149 193 154 c 1,15,16
 173 148 173 148 153 127 c 128,-1,17
 133 106 133 106 133 91 c 0,18,19
 133 67 133 67 211 64 c 2,20,-1
 340 59 l 2,21,22
 396 57 396 57 428.5 27.5 c 128,-1,23
 461 -2 461 -2 461 -48 c 0,24,25
 461 -120 461 -120 378.5 -169 c 128,-1,26
 296 -218 296 -218 201 -218 c 0,27,28
 129 -218 129 -218 78.5 -189.5 c 128,-1,29
 28 -161 28 -161 28 -122 c 0,30,31
 28 -93 28 -93 50 -66 c 128,-1,32
 72 -39 72 -39 126 1 c 1,33,34
 96 16 96 16 84.5 27.5 c 128,-1,35
 73 39 73 39 73 54 c 0,36,37
 73 64 73 64 76.5 73 c 128,-1,38
 80 82 80 82 89.5 93 c 128,-1,39
 99 104 99 104 107 112 c 128,-1,40
 115 120 115 120 133.5 136 c 128,-1,41
 152 152 152 152 163 163 c 1,42,43
 113 188 113 188 91 219 c 128,-1,44
 69 250 69 250 69 297 c 0,45,46
 69 365 69 365 118 412.5 c 128,-1,47
 167 460 167 460 236 460 c 0,0,1
146 -1 m 1,48,49
 115 -41 115 -41 106.5 -55.5 c 128,-1,50
 98 -70 98 -70 98 -88 c 0,51,52
 98 -121 98 -121 138.5 -141 c 128,-1,53
 179 -161 179 -161 245 -161 c 0,54,55
 329 -161 329 -161 381.5 -134 c 128,-1,56
 434 -107 434 -107 434 -64 c 0,57,58
 434 -37 434 -37 405.5 -26 c 128,-1,59
 377 -15 377 -15 309 -15 c 0,60,61
 206 -15 206 -15 146 -1 c 1,48,49
152 335 m 0,62,63
 152 263 152 263 180 218.5 c 128,-1,64
 208 174 208 174 253 174 c 0,65,66
 288 174 288 174 309 198.5 c 128,-1,67
 330 223 330 223 330 265 c 0,68,69
 330 334 330 334 300 383 c 128,-1,70
 270 432 270 432 226 432 c 0,71,72
 196 432 196 432 174 411 c 128,-1,73
 152 390 152 390 152 335 c 0,62,63
EndSplineSet
EndChar

StartChar: h
Encoding: 104 104 75
Width: 499
GlyphClass: 2
Flags: W
LayerCount: 2
Fore
SplineSet
157 343 m 1,0,-1
 157 103 l 2,1,2
 157 51 157 51 169.5 35 c 128,-1,3
 182 19 182 19 226 15 c 1,4,-1
 226 0 l 1,5,-1
 9 0 l 1,6,-1
 9 15 l 1,7,8
 52 21 52 21 62.5 35.5 c 128,-1,9
 73 50 73 50 73 103 c 2,10,-1
 73 573 l 2,11,12
 73 606 73 606 63.5 615 c 128,-1,13
 54 624 54 624 22 624 c 0,14,15
 15 624 15 624 10 623 c 1,16,-1
 10 639 l 1,17,-1
 37 647 l 2,18,19
 144 680 144 680 152 683 c 1,20,-1
 157 680 l 1,21,-1
 157 376 l 1,22,23
 192 422 192 422 226 441 c 128,-1,24
 260 460 260 460 305 460 c 0,25,26
 428 460 428 460 428 302 c 2,27,-1
 428 103 l 2,28,29
 428 51 428 51 438 36.5 c 128,-1,30
 448 22 448 22 488 15 c 1,31,-1
 488 0 l 1,32,-1
 275 0 l 1,33,-1
 275 15 l 1,34,35
 318 19 318 19 330.5 35 c 128,-1,36
 343 51 343 51 343 103 c 2,37,-1
 343 300 l 2,38,39
 343 406 343 406 268 406 c 0,40,41
 213 406 213 406 157 343 c 1,0,-1
EndSplineSet
EndChar

StartChar: i
Encoding: 105 105 76
Width: 276
GlyphClass: 2
Flags: W
LayerCount: 2
Fore
SplineSet
62 394 m 0,0,1
 47 394 47 394 21 390 c 1,2,-1
 21 406 l 1,3,-1
 174 460 l 1,4,-1
 179 457 l 1,5,-1
 179 103 l 2,6,7
 179 48 179 48 191 34 c 128,-1,8
 203 20 203 20 253 15 c 1,9,-1
 253 0 l 1,10,-1
 16 0 l 1,11,-1
 16 15 l 1,12,13
 68 18 68 18 81.5 33 c 128,-1,14
 95 48 95 48 95 103 c 2,15,-1
 95 334 l 2,16,17
 95 367 95 367 87.5 380.5 c 128,-1,18
 80 394 80 394 62 394 c 0,0,1
127 683 m 0,19,20
 149 683 149 683 164.5 668.5 c 128,-1,21
 180 654 180 654 180 633 c 0,22,23
 180 611 180 611 165 596.5 c 128,-1,24
 150 582 150 582 127 582 c 0,25,26
 106 582 106 582 92 596.5 c 128,-1,27
 78 611 78 611 78 633 c 0,28,29
 78 654 78 654 92.5 668.5 c 128,-1,30
 107 683 107 683 127 683 c 0,19,20
EndSplineSet
EndChar

StartChar: j
Encoding: 106 106 77
Width: 276
GlyphClass: 2
Flags: W
LayerCount: 2
Fore
SplineSet
78 394 m 0,0,1
 72 394 72 394 32 390 c 1,2,-1
 32 406 l 1,3,4
 101 426 101 426 187 460 c 1,5,-1
 193 457 l 1,6,-1
 193 0 l 2,7,8
 193 -106 193 -106 149.5 -162 c 128,-1,9
 106 -218 106 -218 23 -218 c 0,10,11
 -16 -218 -16 -218 -43 -202.5 c 128,-1,12
 -70 -187 -70 -187 -70 -163 c 0,13,14
 -70 -146 -70 -146 -58.5 -135.5 c 128,-1,15
 -47 -125 -47 -125 -29 -125 c 0,16,17
 -8 -125 -8 -125 17.5 -155 c 128,-1,18
 43 -185 43 -185 62 -185 c 0,19,20
 84 -185 84 -185 95 -166 c 0,21,22
 108 -140 108 -140 108 -45 c 2,23,-1
 108 334 l 2,24,25
 108 394 108 394 78 394 c 0,0,1
142 683 m 0,26,27
 164 683 164 683 178.5 668.5 c 128,-1,28
 193 654 193 654 193 633 c 0,29,30
 193 611 193 611 178.5 596.5 c 128,-1,31
 164 582 164 582 142 582 c 0,32,33
 121 582 121 582 106.5 596.5 c 128,-1,34
 92 611 92 611 92 633 c 0,35,36
 92 654 92 654 107 668.5 c 128,-1,37
 122 683 122 683 142 683 c 0,26,27
EndSplineSet
EndChar

StartChar: k
Encoding: 107 107 78
Width: 499
GlyphClass: 2
Flags: W
LayerCount: 2
Fore
SplineSet
7 623 m 1,0,-1
 7 639 l 1,1,-1
 37 647 l 2,2,3
 62 654 62 654 102 665 c 128,-1,4
 142 676 142 676 163 683 c 1,5,-1
 166 681 l 1,6,-1
 166 261 l 1,7,-1
 303 384 l 2,8,9
 327 404 327 404 327 417 c 0,10,11
 327 427 327 427 316 431 c 128,-1,12
 305 435 305 435 275 437 c 1,13,-1
 275 450 l 1,14,-1
 480 450 l 1,15,-1
 480 435 l 1,16,-1
 472 435 l 2,17,18
 447 435 447 435 430.5 431 c 128,-1,19
 414 427 414 427 370.5 397.5 c 128,-1,20
 327 368 327 368 264 309 c 2,21,-1
 234 283 l 1,22,-1
 388 88 l 2,23,24
 420 50 420 50 446 33.5 c 128,-1,25
 472 17 472 17 505 15 c 1,26,-1
 505 0 l 1,27,-1
 287 0 l 1,28,-1
 287 15 l 1,29,-1
 306 15 l 2,30,31
 327 15 327 15 327 29 c 0,32,33
 327 34 327 34 323.5 40 c 128,-1,34
 320 46 320 46 314 53.5 c 128,-1,35
 308 61 308 61 306 64 c 2,36,-1
 166 250 l 1,37,-1
 166 67 l 2,38,39
 166 41 166 41 179 29.5 c 128,-1,40
 192 18 192 18 221 16 c 2,41,-1
 242 15 l 1,42,-1
 242 0 l 1,43,-1
 7 0 l 1,44,-1
 7 15 l 1,45,46
 61 23 61 23 71.5 32.5 c 128,-1,47
 82 42 82 42 82 82 c 2,48,-1
 82 564 l 2,49,50
 82 600 82 600 73 612.5 c 128,-1,51
 64 625 64 625 40 625 c 0,52,53
 35 625 35 625 7 623 c 1,0,-1
EndSplineSet
EndChar

StartChar: l
Encoding: 108 108 79
Width: 276
GlyphClass: 2
Flags: W
LayerCount: 2
Fore
SplineSet
19 623 m 1,0,-1
 19 639 l 1,1,2
 117 663 117 663 179 683 c 1,3,-1
 182 681 l 1,4,-1
 182 83 l 2,5,6
 182 43 182 43 195.5 30.5 c 128,-1,7
 209 18 209 18 256 15 c 1,8,-1
 256 0 l 1,9,-1
 21 0 l 1,10,-1
 21 15 l 1,11,12
 68 20 68 20 83 33.5 c 128,-1,13
 98 47 98 47 98 86 c 2,14,-1
 98 564 l 2,15,16
 98 599 98 599 89 612 c 128,-1,17
 80 625 80 625 56 625 c 0,18,19
 49 625 49 625 25 623 c 2,20,-1
 19 623 l 1,0,-1
EndSplineSet
EndChar

StartChar: m
Encoding: 109 109 80
Width: 777
GlyphClass: 2
Flags: W
LayerCount: 2
Fore
SplineSet
19 398 m 1,0,-1
 19 415 l 1,1,2
 101 438 101 438 160 460 c 1,3,-1
 166 458 l 1,4,-1
 166 384 l 1,5,6
 228 431 228 431 258 445.5 c 128,-1,7
 288 460 288 460 321 460 c 0,8,9
 400 460 400 460 428 376 c 1,10,11
 503 460 503 460 590 460 c 0,12,13
 706 460 706 460 706 283 c 2,14,-1
 706 76 l 2,15,16
 706 19 706 19 749 18 c 2,17,-1
 775 15 l 1,18,-1
 775 0 l 1,19,-1
 557 0 l 1,20,-1
 557 15 l 1,21,22
 600 20 600 20 611.5 32 c 128,-1,23
 623 44 623 44 623 86 c 2,24,-1
 623 297 l 2,25,26
 623 360 623 360 606 384.5 c 128,-1,27
 589 409 589 409 546 409 c 0,28,29
 483 409 483 409 438 347 c 1,30,-1
 438 95 l 2,31,32
 438 49 438 49 452.5 32.5 c 128,-1,33
 467 16 467 16 510 15 c 1,34,-1
 510 0 l 1,35,-1
 286 0 l 1,36,-1
 286 15 l 1,37,38
 329 18 329 18 341.5 31 c 128,-1,39
 354 44 354 44 354 86 c 2,40,-1
 354 303 l 2,41,42
 354 409 354 409 289 409 c 0,43,44
 262 409 262 409 232.5 397 c 128,-1,45
 203 385 203 385 185 368 c 0,46,47
 183 365 183 365 179 360.5 c 128,-1,48
 175 356 175 356 172.5 353 c 128,-1,49
 170 350 170 350 170 349 c 2,50,-1
 170 67 l 2,51,52
 170 38 170 38 184 27.5 c 128,-1,53
 198 17 198 17 239 15 c 1,54,-1
 239 0 l 1,55,-1
 16 0 l 1,56,-1
 16 15 l 1,57,58
 58 16 58 16 72 30 c 128,-1,59
 86 44 86 44 86 85 c 2,60,-1
 86 338 l 2,61,62
 86 375 86 375 78.5 388 c 128,-1,63
 71 401 71 401 51 401 c 0,64,65
 32 401 32 401 19 398 c 1,0,-1
EndSplineSet
EndChar

StartChar: n
Encoding: 110 110 81
Width: 499
GlyphClass: 2
Flags: W
LayerCount: 2
Fore
SplineSet
16 398 m 1,0,-1
 16 415 l 1,1,2
 96 439 96 439 154 460 c 1,3,-1
 161 458 l 1,4,-1
 161 379 l 1,5,6
 212 426 212 426 242 443 c 128,-1,7
 272 460 272 460 306 460 c 0,8,9
 361 460 361 460 392 420.5 c 128,-1,10
 423 381 423 381 423 311 c 2,11,-1
 423 81 l 2,12,13
 423 45 423 45 435.5 32.5 c 128,-1,14
 448 20 448 20 485 15 c 1,15,-1
 485 0 l 1,16,-1
 277 0 l 1,17,-1
 277 15 l 1,18,19
 314 18 314 18 327 35.5 c 128,-1,20
 340 53 340 53 340 100 c 2,21,-1
 340 308 l 2,22,23
 340 406 340 406 267 406 c 0,24,25
 243 406 243 406 221.5 394 c 128,-1,26
 200 382 200 382 164 349 c 1,27,-1
 164 67 l 2,28,29
 164 40 164 40 178 29 c 128,-1,30
 192 18 192 18 230 15 c 1,31,-1
 230 0 l 1,32,-1
 18 0 l 1,33,-1
 18 15 l 1,34,35
 56 18 56 18 68.5 33 c 128,-1,36
 81 48 81 48 81 89 c 2,37,-1
 81 338 l 2,38,39
 81 374 81 374 72 387.5 c 128,-1,40
 63 401 63 401 42 401 c 0,41,42
 22 401 22 401 16 398 c 1,0,-1
EndSplineSet
EndChar

StartChar: o
Encoding: 111 111 82
Width: 499
GlyphClass: 2
Flags: W
LayerCount: 2
Fore
SplineSet
250 460 m 0,0,1
 346 460 346 460 408 396 c 128,-1,2
 470 332 470 332 470 234 c 0,3,4
 470 131 470 131 406 60.5 c 128,-1,5
 342 -10 342 -10 248 -10 c 128,-1,6
 154 -10 154 -10 91.5 57.5 c 128,-1,7
 29 125 29 125 29 226 c 0,8,9
 29 330 29 330 90.5 395 c 128,-1,10
 152 460 152 460 250 460 c 0,0,1
119 275 m 0,11,12
 119 234 119 234 126.5 191.5 c 128,-1,13
 134 149 134 149 150 109 c 128,-1,14
 166 69 166 69 194.5 43.5 c 128,-1,15
 223 18 223 18 261 18 c 0,16,17
 316 18 316 18 347.5 66 c 128,-1,18
 379 114 379 114 379 199 c 0,19,20
 379 301 379 301 339.5 366.5 c 128,-1,21
 300 432 300 432 237 432 c 0,22,23
 184 432 184 432 151.5 389.5 c 128,-1,24
 119 347 119 347 119 275 c 0,11,12
EndSplineSet
EndChar

StartChar: p
Encoding: 112 112 83
Width: 499
GlyphClass: 2
Flags: W
LayerCount: 2
Fore
SplineSet
9 393 m 1,0,-1
 9 409 l 1,1,2
 80 431 80 431 152 460 c 1,3,-1
 160 458 l 1,4,-1
 160 381 l 1,5,6
 224 460 224 460 303 460 c 0,7,8
 376 460 376 460 423 400 c 128,-1,9
 470 340 470 340 470 248 c 0,10,11
 470 139 470 139 409.5 64.5 c 128,-1,12
 349 -10 349 -10 261 -10 c 0,13,14
 228 -10 228 -10 206 -0.5 c 128,-1,15
 184 9 184 9 160 34 c 1,16,-1
 160 -125 l 2,17,18
 160 -172 160 -172 175.5 -185 c 128,-1,19
 191 -198 191 -198 248 -199 c 1,20,-1
 248 -217 l 1,21,-1
 4 -217 l 1,22,-1
 4 -201 l 1,23,24
 49 -195 49 -195 62 -182.5 c 128,-1,25
 75 -170 75 -170 75 -130 c 2,26,-1
 75 337 l 2,27,28
 75 372 75 372 67 383 c 128,-1,29
 59 394 59 394 34 394 c 0,30,31
 18 394 18 394 9 393 c 1,0,-1
160 334 m 2,32,-1
 160 88 l 2,33,34
 160 66 160 66 194 44 c 128,-1,35
 228 22 228 22 264 22 c 0,36,37
 317 22 317 22 350.5 73.5 c 128,-1,38
 384 125 384 125 384 208 c 0,39,40
 384 295 384 295 350.5 347.5 c 128,-1,41
 317 400 317 400 261 400 c 0,42,43
 226 400 226 400 193 378.5 c 128,-1,44
 160 357 160 357 160 334 c 2,32,-1
EndSplineSet
EndChar

StartChar: q
Encoding: 113 113 84
Width: 499
GlyphClass: 2
Flags: W
LayerCount: 2
Fore
SplineSet
360 425 m 1,0,-1
 415 457 l 1,1,-1
 425 457 l 1,2,-1
 425 -141 l 2,3,4
 425 -172 425 -172 436 -182.5 c 128,-1,5
 447 -193 447 -193 488 -204 c 1,6,-1
 488 -217 l 1,7,-1
 252 -217 l 1,8,-1
 252 -201 l 1,9,10
 306 -197 306 -197 323.5 -181.5 c 128,-1,11
 341 -166 341 -166 341 -125 c 2,12,-1
 341 64 l 1,13,14
 273 -10 273 -10 185 -10 c 0,15,16
 113 -10 113 -10 68 50 c 128,-1,17
 23 110 23 110 23 205 c 0,18,19
 23 313 23 313 87 387 c 128,-1,20
 151 461 151 461 245 461 c 0,21,22
 300 461 300 461 360 425 c 1,0,-1
110 242 m 0,23,24
 110 209 110 209 116 178.5 c 128,-1,25
 122 148 122 148 136 118 c 128,-1,26
 150 88 150 88 177 69.5 c 128,-1,27
 204 51 204 51 242 51 c 0,28,29
 291 51 291 51 327 82 c 0,30,31
 341 92 341 92 341 127 c 2,32,-1
 341 333 l 2,33,34
 341 434 341 434 248 434 c 0,35,36
 184 434 184 434 147 382 c 128,-1,37
 110 330 110 330 110 242 c 0,23,24
EndSplineSet
EndChar

StartChar: r
Encoding: 114 114 85
Width: 332
GlyphClass: 2
Flags: W
LayerCount: 2
Fore
SplineSet
296 362 m 0,0,1
 280 362 280 362 259.5 379.5 c 128,-1,2
 239 397 239 397 230 397 c 0,3,4
 210 397 210 397 185 368 c 128,-1,5
 160 339 160 339 160 315 c 2,6,-1
 160 89 l 2,7,8
 160 48 160 48 177 32.5 c 128,-1,9
 194 17 194 17 245 15 c 1,10,-1
 245 0 l 1,11,-1
 4 0 l 1,12,-1
 4 15 l 1,13,14
 52 23 52 23 64 34.5 c 128,-1,15
 76 46 76 46 76 83 c 2,16,-1
 76 334 l 2,17,18
 76 367 76 367 68.5 380.5 c 128,-1,19
 61 394 61 394 42 394 c 0,20,21
 26 394 26 394 7 390 c 1,22,-1
 7 406 l 1,23,24
 92 433 92 433 155 460 c 1,25,-1
 160 458 l 1,26,-1
 160 366 l 1,27,28
 197 419 197 419 223 439.5 c 128,-1,29
 249 460 249 460 280 460 c 0,30,31
 305 460 305 460 320 445.5 c 128,-1,32
 335 431 335 431 335 407 c 0,33,34
 335 386 335 386 324 374 c 128,-1,35
 313 362 313 362 296 362 c 0,0,1
EndSplineSet
EndChar

StartChar: s
Encoding: 115 115 86
Width: 388
GlyphClass: 2
Flags: W
LayerCount: 2
Fore
SplineSet
284 439 m 0,0,1
 288 439 288 439 300 450 c 1,2,-1
 311 450 l 1,3,-1
 315 313 l 1,4,-1
 300 313 l 1,5,6
 283 381 283 381 258 409 c 128,-1,7
 233 437 233 437 190 437 c 0,8,9
 156 437 156 437 134.5 418 c 128,-1,10
 113 399 113 399 113 369 c 0,11,12
 113 323 113 323 157 302 c 1,13,-1
 264 237 l 2,14,15
 309 210 309 210 329 182.5 c 128,-1,16
 349 155 349 155 349 119 c 0,17,18
 349 66 349 66 307 28 c 128,-1,19
 265 -10 265 -10 207 -10 c 0,20,21
 184 -10 184 -10 142 -1.5 c 128,-1,22
 100 7 100 7 88 7 c 0,23,24
 73 7 73 7 64 -4 c 1,25,-1
 53 -4 l 1,26,-1
 53 152 l 1,27,-1
 67 152 l 2,28,29
 68 149 68 149 69 144 c 0,30,31
 74 124 74 124 77.5 111.5 c 128,-1,32
 81 99 81 99 91 78 c 128,-1,33
 101 57 101 57 113 44.5 c 128,-1,34
 125 32 125 32 146.5 22 c 128,-1,35
 168 12 168 12 195 12 c 0,36,37
 233 12 233 12 255.5 31.5 c 128,-1,38
 278 51 278 51 278 83 c 0,39,40
 278 129 278 129 226 160 c 2,41,-1
 168 192 l 2,42,43
 105 228 105 228 78 261 c 128,-1,44
 51 294 51 294 51 335 c 0,45,46
 51 390 51 390 89 424 c 128,-1,47
 127 458 127 458 187 458 c 0,48,49
 226 458 226 458 252 448.5 c 128,-1,50
 278 439 278 439 284 439 c 0,0,1
EndSplineSet
EndChar

StartChar: t
Encoding: 116 116 87
Width: 276
GlyphClass: 2
Flags: W
LayerCount: 2
Fore
SplineSet
255 450 m 1,0,-1
 255 417 l 1,1,-1
 154 417 l 1,2,-1
 154 132 l 2,3,4
 154 84 154 84 166 63 c 128,-1,5
 178 42 178 42 207 42 c 0,6,7
 235 42 235 42 267 78 c 1,8,-1
 278 66 l 1,9,10
 230 -10 230 -10 160 -10 c 0,11,12
 70 -10 70 -10 70 117 c 2,13,-1
 70 417 l 1,14,-1
 18 417 l 1,15,16
 13 422 13 422 13 425 c 0,17,18
 13 433 13 433 29 444 c 1,19,20
 41 447 41 447 69.5 478.5 c 128,-1,21
 98 510 98 510 127 551 c 0,22,23
 130 556 130 556 136.5 565 c 128,-1,24
 143 574 143 574 146 579 c 1,25,26
 154 579 154 579 154 565 c 2,27,-1
 154 450 l 1,28,-1
 255 450 l 1,0,-1
EndSplineSet
EndChar

StartChar: u
Encoding: 117 117 88
Width: 499
GlyphClass: 2
Flags: W
LayerCount: 2
Fore
SplineSet
479 50 m 1,0,-1
 479 37 l 1,1,2
 391 11 391 11 343 -9 c 1,3,-1
 338 -7 l 1,4,-1
 338 76 l 1,5,-1
 294 34 l 2,6,7
 253 -10 253 -10 192 -10 c 0,8,9
 137 -10 137 -10 103.5 25.5 c 128,-1,10
 70 61 70 61 70 120 c 2,11,-1
 70 372 l 2,12,13
 70 406 70 406 57 420.5 c 128,-1,14
 44 435 44 435 9 437 c 1,15,-1
 9 450 l 1,16,-1
 155 450 l 1,17,-1
 155 125 l 2,18,19
 155 93 155 93 176 70.5 c 128,-1,20
 197 48 197 48 226 48 c 0,21,22
 273 48 273 48 313 82 c 0,23,24
 333 95 333 95 333 135 c 2,25,-1
 333 371 l 2,26,27
 333 408 333 408 319 420 c 128,-1,28
 305 432 305 432 259 434 c 1,29,-1
 259 450 l 1,30,-1
 417 450 l 1,31,-1
 417 107 l 2,32,33
 417 73 417 73 428.5 61.5 c 128,-1,34
 440 50 440 50 475 50 c 2,35,-1
 479 50 l 1,0,-1
EndSplineSet
EndChar

StartChar: v
Encoding: 118 118 89
Width: 499
GlyphClass: 2
Flags: W
LayerCount: 2
Fore
SplineSet
478 450 m 1,0,-1
 478 435 l 1,1,2
 455 433 455 433 444.5 420.5 c 128,-1,3
 434 408 434 408 412 357 c 2,4,-1
 284 37 l 2,5,6
 265 -15 265 -15 256 -15 c 0,7,8
 253 -15 253 -15 248 -8 c 128,-1,9
 243 -1 243 -1 240 7.5 c 128,-1,10
 237 16 237 16 233.5 24.5 c 128,-1,11
 230 33 230 33 230 34 c 2,12,-1
 110 319 l 2,13,14
 75 398 75 398 61 416 c 128,-1,15
 47 434 47 434 19 435 c 1,16,-1
 19 450 l 1,17,-1
 215 450 l 1,18,-1
 215 435 l 1,19,20
 189 433 189 433 178.5 426.5 c 128,-1,21
 168 420 168 420 168 407 c 0,22,23
 168 402 168 402 179 371 c 2,24,-1
 280 114 l 1,25,-1
 379 374 l 2,26,27
 385 386 385 386 385 403 c 0,28,29
 385 431 385 431 338 435 c 1,30,-1
 338 450 l 1,31,-1
 478 450 l 1,0,-1
EndSplineSet
EndChar

StartChar: w
Encoding: 119 119 90
Width: 720
GlyphClass: 2
Flags: W
LayerCount: 2
Fore
SplineSet
286 662 m 2,0,1
 467 662 467 662 576.5 578 c 128,-1,2
 686 494 686 494 686 334 c 0,3,4
 686 289 686 289 675.5 245.5 c 128,-1,5
 665 202 665 202 637 156.5 c 128,-1,6
 609 111 609 111 567 77 c 128,-1,7
 525 43 525 43 456 21.5 c 128,-1,8
 387 0 387 0 300 0 c 2,9,-1
 16 0 l 1,10,-1
 16 19 l 1,11,12
 73 22 73 22 88.5 38 c 128,-1,13
 104 54 104 54 104 108 c 2,14,-1
 104 554 l 2,15,16
 104 609 104 609 89.5 623.5 c 128,-1,17
 75 638 75 638 16 643 c 1,18,-1
 16 662 l 1,19,-1
 286 662 l 2,0,1
207 586 m 2,20,-1
 207 78 l 2,21,22
 207 53 207 53 217.5 45 c 128,-1,23
 228 37 228 37 258 37 c 0,24,25
 384 37 384 37 454 78 c 0,26,27
 576 149 576 149 576 327 c 0,28,29
 576 492 576 492 457 576 c 0,30,31
 386 625 386 625 258 625 c 0,32,33
 227 625 227 625 217 617 c 128,-1,34
 207 609 207 609 207 586 c 2,20,-1
EndSplineSet
EndChar

StartChar: x
Encoding: 120 120 91
Width: 610
GlyphClass: 2
Flags: W
LayerCount: 2
Fore
SplineSet
253 620 m 1,0,-1
 201 620 l 2,1,2
 116 620 116 620 87 597 c 128,-1,3
 58 574 58 574 41 492 c 1,4,-1
 18 492 l 1,5,-1
 23 662 l 1,6,-1
 587 662 l 1,7,-1
 593 492 l 1,8,-1
 570 492 l 1,9,10
 552 575 552 575 523.5 597.5 c 128,-1,11
 495 620 495 620 410 620 c 2,12,-1
 356 620 l 1,13,-1
 356 108 l 2,14,15
 356 55 356 55 374 38.5 c 128,-1,16
 392 22 392 22 453 19 c 1,17,-1
 453 0 l 1,18,-1
 160 0 l 1,19,-1
 160 19 l 1,20,21
 222 22 222 22 237.5 39 c 128,-1,22
 253 56 253 56 253 120 c 2,23,-1
 253 620 l 1,0,-1
EndSplineSet
EndChar

StartChar: y
Encoding: 121 121 92
Width: 499
GlyphClass: 2
Flags: W
LayerCount: 2
Fore
SplineSet
475 450 m 1,0,-1
 475 435 l 1,1,2
 457 433 457 433 446.5 423.5 c 128,-1,3
 436 414 436 414 428 390 c 2,4,-1
 272 -18 l 2,5,6
 233 -126 233 -126 194 -172 c 128,-1,7
 155 -218 155 -218 104 -218 c 0,8,9
 72 -218 72 -218 50.5 -201.5 c 128,-1,10
 29 -185 29 -185 29 -160 c 0,11,12
 29 -142 29 -142 42.5 -129 c 128,-1,13
 56 -116 56 -116 73 -116 c 0,14,15
 96 -116 96 -116 126 -127 c 0,16,17
 138 -133 138 -133 151 -133 c 0,18,19
 178 -133 178 -133 201 -89 c 0,20,21
 214 -66 214 -66 228 -29 c 128,-1,22
 242 8 242 8 242 19 c 0,23,24
 242 41 242 41 198 120 c 2,25,-1
 182 149 l 1,26,27
 160 200 160 200 117 291 c 128,-1,28
 74 382 74 382 64 404 c 0,29,30
 53 429 53 429 15 437 c 1,31,-1
 15 450 l 1,32,-1
 220 450 l 1,33,-1
 220 435 l 1,34,35
 163 434 163 434 163 409 c 0,36,37
 163 392 163 392 171 371 c 2,38,-1
 287 117 l 1,39,-1
 384 393 l 2,40,41
 388 402 388 402 388 410 c 0,42,43
 388 435 388 435 340 435 c 1,44,-1
 340 450 l 1,45,-1
 475 450 l 1,0,-1
EndSplineSet
EndChar

StartChar: z
Encoding: 122 122 93
Width: 443
GlyphClass: 2
Flags: W
LayerCount: 2
Fore
SplineSet
417 135 m 1,0,-1
 404 0 l 1,1,-1
 26 0 l 1,2,-1
 26 15 l 1,3,-1
 293 420 l 1,4,-1
 155 420 l 2,5,6
 110 420 110 420 94 404 c 128,-1,7
 78 388 78 388 70 333 c 1,8,-1
 53 333 l 1,9,-1
 56 450 l 1,10,-1
 403 450 l 1,11,-1
 403 435 l 1,12,-1
 133 29 l 1,13,-1
 272 29 l 2,14,15
 347 29 347 29 371 56 c 0,16,17
 388 78 388 78 400 139 c 1,18,-1
 417 135 l 1,0,-1
EndSplineSet
EndChar

StartChar: braceleft
Encoding: 123 123 94
Width: 478
GlyphClass: 2
Flags: W
LayerCount: 2
Fore
SplineSet
350 -170 m 1,0,-1
 350 -182 l 1,1,2
 265 -179 265 -179 229 -157 c 0,3,4
 185 -127 185 -127 185 -41 c 2,5,-1
 185 136 l 2,6,7
 185 188 185 188 167.5 211 c 128,-1,8
 150 234 150 234 100 250 c 1,9,10
 150 265 150 265 167.5 288 c 128,-1,11
 185 311 185 311 185 363 c 2,12,-1
 185 541 l 2,13,14
 185 627 185 627 229 655 c 0,15,16
 267 680 267 680 350 680 c 1,17,-1
 350 669 l 1,18,19
 298 655 298 655 278.5 628.5 c 128,-1,20
 259 602 259 602 259 546 c 2,21,-1
 259 378 l 2,22,23
 259 315 259 315 240.5 290 c 128,-1,24
 222 265 222 265 166 249 c 1,25,26
 221 235 221 235 240 209.5 c 128,-1,27
 259 184 259 184 259 122 c 2,28,-1
 259 -47 l 2,29,30
 259 -103 259 -103 278.5 -130 c 128,-1,31
 298 -157 298 -157 350 -170 c 1,0,-1
EndSplineSet
EndChar

StartChar: bar
Encoding: 124 124 95
Width: 199
GlyphClass: 2
Flags: W
LayerCount: 2
Fore
SplineSet
67 -15 m 1,0,-1
 67 677 l 1,1,-1
 133 677 l 1,2,-1
 133 -15 l 1,3,-1
 67 -15 l 1,0,-1
EndSplineSet
EndChar

StartChar: braceright
Encoding: 125 125 96
Width: 478
GlyphClass: 2
Flags: W
LayerCount: 2
Fore
SplineSet
130 669 m 1,0,-1
 130 680 l 1,1,2
 180 680 180 680 204.5 674.5 c 128,-1,3
 229 669 229 669 250 655 c 0,4,5
 294 627 294 627 294 541 c 2,6,-1
 294 363 l 2,7,8
 294 311 294 311 311.5 288 c 128,-1,9
 329 265 329 265 379 250 c 1,10,11
 329 234 329 234 311.5 211.5 c 128,-1,12
 294 189 294 189 294 136 c 2,13,-1
 294 -42 l 2,14,15
 294 -129 294 -129 250 -157 c 0,16,17
 214 -179 214 -179 130 -182 c 1,18,-1
 130 -170 l 1,19,20
 182 -157 182 -157 201.5 -130 c 128,-1,21
 221 -103 221 -103 221 -47 c 2,22,-1
 221 122 l 2,23,24
 221 184 221 184 240 209.5 c 128,-1,25
 259 235 259 235 315 250 c 1,26,27
 258 265 258 265 239.5 290 c 128,-1,28
 221 315 221 315 221 378 c 2,29,-1
 221 546 l 2,30,31
 221 602 221 602 201.5 628.5 c 128,-1,32
 182 655 182 655 130 669 c 1,0,-1
EndSplineSet
EndChar

StartChar: asciitilde
Encoding: 126 126 97
Width: 540
GlyphClass: 2
Flags: W
LayerCount: 2
Fore
SplineSet
448 303 m 1,0,-1
 502 271 l 1,1,2
 468 223 468 223 441 204.5 c 128,-1,3
 414 186 414 186 379 186 c 0,4,5
 346 186 346 186 320.5 195 c 128,-1,6
 295 204 295 204 227 240 c 0,7,8
 201 253 201 253 168 253 c 0,9,10
 145 253 145 253 129 242.5 c 128,-1,11
 113 232 113 232 94 204 c 1,12,-1
 40 234 l 1,13,14
 74 282 74 282 101 300.5 c 128,-1,15
 128 319 128 319 163 319 c 0,16,17
 197 319 197 319 222.5 310 c 128,-1,18
 248 301 248 301 315 267 c 0,19,20
 340 252 340 252 374 252 c 0,21,22
 398 252 398 252 413 262.5 c 128,-1,23
 428 273 428 273 448 303 c 1,0,-1
EndSplineSet
EndChar

StartChar: exclamdown
Encoding: 161 161 99
Width: 332
GlyphClass: 2
Flags: W
LayerCount: 2
Fore
SplineSet
144 283 m 1,0,-1
 157 283 l 1,1,-1
 166 174 l 2,2,3
 171 118 171 118 187.5 8 c 128,-1,4
 204 -102 204 -102 204 -141 c 0,5,6
 204 -176 204 -176 189 -197 c 128,-1,7
 174 -218 174 -218 149 -218 c 0,8,9
 97 -218 97 -218 97 -138 c 0,10,11
 97 -119 97 -119 100 -101 c 2,12,-1
 144 283 l 1,0,-1
151 469 m 0,13,14
 173 469 173 469 188.5 454 c 128,-1,15
 204 439 204 439 204 417 c 0,16,17
 204 394 204 394 188 378 c 128,-1,18
 172 362 172 362 149 362 c 0,19,20
 127 362 127 362 112 378 c 128,-1,21
 97 394 97 394 97 417 c 128,-1,22
 97 440 97 440 112 454.5 c 128,-1,23
 127 469 127 469 151 469 c 0,13,14
EndSplineSet
EndChar

StartChar: cent
Encoding: 162 162 100
Width: 499
GlyphClass: 2
Flags: W
LayerCount: 2
Fore
SplineSet
448 157 m 1,0,1
 433 125 433 125 422 106 c 128,-1,2
 411 87 411 87 387 55.5 c 128,-1,3
 363 24 363 24 329.5 7.5 c 128,-1,4
 296 -9 296 -9 256 -9 c 0,5,6
 233 -9 233 -9 201 0 c 1,7,-1
 152 -138 l 1,8,-1
 119 -138 l 1,9,-1
 168 12 l 1,10,11
 53 83 53 83 53 220 c 0,12,13
 53 321 53 321 116.5 390.5 c 128,-1,14
 180 460 180 460 272 460 c 0,15,16
 276 460 276 460 324 456 c 1,17,-1
 368 579 l 1,18,-1
 403 579 l 1,19,-1
 356 444 l 1,20,21
 431 414 431 414 431 360 c 0,22,23
 431 340 431 340 419 327.5 c 128,-1,24
 407 315 407 315 388 315 c 128,-1,25
 369 315 369 315 356.5 326.5 c 128,-1,26
 344 338 344 338 330 368 c 1,27,-1
 229 76 l 1,28,29
 261 64 261 64 289 64 c 0,30,31
 333 64 333 64 365 86 c 128,-1,32
 397 108 397 108 435 164 c 1,33,-1
 448 157 l 1,0,1
198 98 m 1,34,-1
 313 420 l 1,35,36
 287 431 287 431 267 431 c 0,37,38
 206 431 206 431 168 384 c 128,-1,39
 130 337 130 337 130 261 c 0,40,41
 130 206 130 206 145.5 169.5 c 128,-1,42
 161 133 161 133 198 98 c 1,34,-1
EndSplineSet
EndChar

StartChar: sterling
Encoding: 163 163 101
Width: 499
GlyphClass: 2
Flags: W
LayerCount: 2
Fore
SplineSet
398 530 m 0,0,1
 373 530 373 530 365 548.5 c 128,-1,2
 357 567 357 567 359.5 589.5 c 128,-1,3
 362 612 362 612 349.5 630.5 c 128,-1,4
 337 649 337 649 303 649 c 0,5,6
 258 649 258 649 233 612.5 c 128,-1,7
 208 576 208 576 208 510 c 0,8,9
 208 463 208 463 220 374 c 1,10,-1
 344 374 l 1,11,-1
 344 328 l 1,12,-1
 223 328 l 1,13,14
 224 280 224 280 224 272 c 0,15,16
 224 238 224 238 199 111 c 1,17,18
 280 76 280 76 349 76 c 0,19,20
 381 76 381 76 406.5 86 c 128,-1,21
 432 96 432 96 444 108.5 c 128,-1,22
 456 121 456 121 466.5 131 c 128,-1,23
 477 141 477 141 483 141 c 0,24,25
 491 141 491 141 491 136 c 0,26,27
 491 125 491 125 480.5 103 c 128,-1,28
 470 81 470 81 451 55.5 c 128,-1,29
 432 30 432 30 397.5 11.5 c 128,-1,30
 363 -7 363 -7 322 -7 c 0,31,32
 289 -7 289 -7 259.5 6 c 128,-1,33
 230 19 230 19 179 54 c 1,34,35
 148 19 148 19 127.5 6 c 128,-1,36
 107 -7 107 -7 81 -7 c 0,37,38
 50 -7 50 -7 31 9.5 c 128,-1,39
 12 26 12 26 12 54 c 0,40,41
 12 88 12 88 37 109 c 128,-1,42
 62 130 62 130 103 130 c 0,43,44
 125 130 125 130 149 125 c 1,45,46
 152 133 152 133 152 146 c 0,47,48
 152 175 152 175 130 328 c 1,49,-1
 23 328 l 1,50,-1
 23 374 l 1,51,-1
 130 374 l 1,52,53
 123 408 123 408 123 442 c 0,54,55
 123 549 123 549 176 613 c 128,-1,56
 229 677 229 677 318 677 c 0,57,58
 374 677 374 677 411 650 c 128,-1,59
 448 623 448 623 448 583 c 0,60,61
 448 560 448 560 434 545 c 128,-1,62
 420 530 420 530 398 530 c 0,0,1
79 21 m 0,63,64
 101 21 101 21 117 34 c 128,-1,65
 133 47 133 47 137.5 58.5 c 128,-1,66
 142 70 142 70 142 76 c 0,67,68
 142 81 142 81 124 87.5 c 128,-1,69
 106 94 106 94 89 94 c 0,70,71
 38 94 38 94 38 57 c 0,72,73
 38 41 38 41 49.5 31 c 128,-1,74
 61 21 61 21 79 21 c 0,63,64
EndSplineSet
EndChar

StartChar: currency
Encoding: 164 164 102
Width: 499
GlyphClass: 2
Flags: W
LayerCount: 2
Fore
SplineSet
-22 108 m 1,0,-1
 76 204 l 1,1,2
 35 263 35 263 35 330 c 0,3,4
 35 399 35 399 76 456 c 1,5,-1
 -22 554 l 1,6,-1
 28 602 l 1,7,-1
 125 505 l 1,8,9
 182 545 182 545 250 545 c 0,10,11
 320 545 320 545 376 505 c 1,12,-1
 475 602 l 1,13,-1
 521 554 l 1,14,-1
 426 456 l 1,15,16
 464 402 464 402 464 331 c 0,17,18
 464 261 464 261 426 204 c 1,19,-1
 521 108 l 1,20,-1
 475 59 l 1,21,-1
 376 157 l 1,22,23
 323 116 323 116 250 116 c 0,24,25
 181 116 181 116 125 157 c 1,26,-1
 28 59 l 1,27,-1
 -22 108 l 1,0,-1
253 480 m 0,28,29
 189 480 189 480 146 437 c 128,-1,30
 103 394 103 394 103 330 c 0,31,32
 103 268 103 268 146 223.5 c 128,-1,33
 189 179 189 179 250 179 c 0,34,35
 312 179 312 179 354.5 223 c 128,-1,36
 397 267 397 267 397 331 c 0,37,38
 397 393 397 393 355 436.5 c 128,-1,39
 313 480 313 480 253 480 c 0,28,29
EndSplineSet
EndChar

StartChar: yen
Encoding: 165 165 103
Width: 499
GlyphClass: 2
Flags: W
LayerCount: 2
Fore
SplineSet
190 182 m 1,0,-1
 16 182 l 1,1,-1
 16 223 l 1,2,-1
 190 223 l 1,3,-1
 190 297 l 1,4,-1
 183 312 l 1,5,-1
 16 312 l 1,6,-1
 16 352 l 1,7,-1
 160 352 l 1,8,-1
 64 524 l 2,9,10
 24 598 24 598 3 619.5 c 128,-1,11
 -18 641 -18 641 -53 643 c 1,12,-1
 -53 662 l 1,13,-1
 190 662 l 1,14,-1
 190 643 l 1,15,16
 125 642 125 642 125 614 c 0,17,18
 125 593 125 593 138 570 c 2,19,-1
 256 349 l 1,20,-1
 368 568 l 2,21,22
 382 596 382 596 382 612 c 0,23,24
 382 626 382 626 367.5 634.5 c 128,-1,25
 353 643 353 643 331 643 c 2,26,-1
 316 643 l 1,27,-1
 316 662 l 1,28,-1
 513 662 l 1,29,-1
 513 643 l 1,30,31
 474 636 474 636 448 612 c 128,-1,32
 422 588 422 588 394 536 c 2,33,-1
 302 352 l 1,34,-1
 448 352 l 1,35,-1
 448 312 l 1,36,-1
 283 312 l 1,37,-1
 275 297 l 1,38,-1
 275 223 l 1,39,-1
 448 223 l 1,40,-1
 448 182 l 1,41,-1
 275 182 l 1,42,-1
 275 108 l 2,43,44
 275 57 275 57 291 38.5 c 128,-1,45
 307 20 307 20 354 19 c 1,46,-1
 354 0 l 1,47,-1
 111 0 l 1,48,-1
 111 19 l 1,49,50
 162 21 162 21 176 39.5 c 128,-1,51
 190 58 190 58 190 120 c 2,52,-1
 190 182 l 1,0,-1
EndSplineSet
EndChar

StartChar: brokenbar
Encoding: 166 166 104
Width: 199
GlyphClass: 2
Flags: W
LayerCount: 2
Fore
SplineSet
67 -15 m 1,0,-1
 67 262 l 1,1,-1
 133 262 l 1,2,-1
 133 -15 l 1,3,-1
 67 -15 l 1,0,-1
67 400 m 1,4,-1
 67 677 l 1,5,-1
 133 677 l 1,6,-1
 133 400 l 1,7,-1
 67 400 l 1,4,-1
EndSplineSet
EndChar

StartChar: section
Encoding: 167 167 105
Width: 499
GlyphClass: 2
Flags: W
LayerCount: 2
Fore
SplineSet
278 568 m 128,-1,1
 278 587 278 587 295.5 604 c 128,-1,2
 313 621 313 621 313 623 c 0,3,4
 313 637 313 637 295 646 c 128,-1,5
 277 655 277 655 250 655 c 0,6,7
 213 655 213 655 189.5 635 c 128,-1,8
 166 615 166 615 166 584 c 0,9,10
 166 541 166 541 201 513 c 2,11,-1
 337 400 l 2,12,13
 426 326 426 326 426 245 c 0,14,15
 426 192 426 192 393.5 158.5 c 128,-1,16
 361 125 361 125 311 125 c 2,17,-1
 291 125 l 1,18,19
 348 77 348 77 367.5 47 c 128,-1,20
 387 17 387 17 387 -21 c 0,21,22
 387 -78 387 -78 347.5 -113 c 128,-1,23
 308 -148 308 -148 242 -148 c 0,24,25
 184 -148 184 -148 144 -119 c 128,-1,26
 104 -90 104 -90 104 -48 c 0,27,28
 104 -25 104 -25 119.5 -9.5 c 128,-1,29
 135 6 135 6 158 6 c 0,30,31
 179 6 179 6 193 -6 c 128,-1,32
 207 -18 207 -18 207 -37 c 0,33,34
 207 -53 207 -53 189 -71.5 c 128,-1,35
 171 -90 171 -90 171 -92 c 0,36,37
 171 -105 171 -105 193.5 -116 c 128,-1,38
 216 -127 216 -127 243 -127 c 0,39,40
 283 -127 283 -127 306.5 -106 c 128,-1,41
 330 -85 330 -85 330 -50 c 0,42,43
 330 4 330 4 242 64 c 0,44,45
 150 128 150 128 110 179.5 c 128,-1,46
 70 231 70 231 70 286 c 0,47,48
 70 337 70 337 103 371.5 c 128,-1,49
 136 406 136 406 185 406 c 0,50,51
 201 406 201 406 209 404 c 1,52,53
 149 454 149 454 129.5 483.5 c 128,-1,54
 110 513 110 513 110 554 c 0,55,56
 110 608 110 608 148.5 642.5 c 128,-1,57
 187 677 187 677 249 677 c 0,58,59
 303 677 303 677 339.5 648.5 c 128,-1,60
 376 620 376 620 376 579 c 0,61,62
 376 554 376 554 363 539 c 128,-1,63
 350 524 350 524 327 524 c 0,64,65
 306 524 306 524 292 536.5 c 128,-1,0
 278 549 278 549 278 568 c 128,-1,1
374 212 m 0,66,67
 374 258 374 258 305 321 c 128,-1,68
 236 384 236 384 190 384 c 0,69,70
 162 384 162 384 142.5 364.5 c 128,-1,71
 123 345 123 345 123 316 c 0,72,73
 123 277 123 277 168 229 c 0,74,75
 251 146 251 146 305 146 c 0,76,77
 333 146 333 146 353.5 166 c 128,-1,78
 374 186 374 186 374 212 c 0,66,67
EndSplineSet
EndChar

StartChar: dieresis
Encoding: 168 168 106
Width: 332
GlyphClass: 3
Flags: W
LayerCount: 2
Fore
SplineSet
66 623 m 0,0,1
 87 623 87 623 102 608 c 128,-1,2
 117 593 117 593 117 573 c 0,3,4
 117 552 117 552 102 537.5 c 128,-1,5
 87 523 87 523 66 523 c 0,6,7
 46 523 46 523 32 537.5 c 128,-1,8
 18 552 18 552 18 573 c 0,9,10
 18 593 18 593 32.5 608 c 128,-1,11
 47 623 47 623 66 623 c 0,0,1
265 623 m 0,12,13
 286 623 286 623 301 608 c 128,-1,14
 316 593 316 593 316 573 c 0,15,16
 316 552 316 552 301 537.5 c 128,-1,17
 286 523 286 523 265 523 c 0,18,19
 245 523 245 523 231 537.5 c 128,-1,20
 217 552 217 552 217 573 c 0,21,22
 217 593 217 593 231.5 608 c 128,-1,23
 246 623 246 623 265 623 c 0,12,13
EndSplineSet
EndChar

StartChar: copyright
Encoding: 169 169 107
Width: 758
GlyphClass: 2
Flags: W
LayerCount: 2
Fore
SplineSet
412 532 m 0,0,1
 445 532 445 532 488.5 520 c 128,-1,2
 532 508 532 508 532 494 c 2,3,-1
 532 423 l 1,4,-1
 514 423 l 1,5,6
 500 513 500 513 406 513 c 0,7,8
 339 513 339 513 303 467.5 c 128,-1,9
 267 422 267 422 267 337 c 0,10,11
 267 254 267 254 304 207.5 c 128,-1,12
 341 161 341 161 407 161 c 0,13,14
 452 161 452 161 480.5 181 c 128,-1,15
 509 201 509 201 532 248 c 1,16,-1
 546 248 l 1,17,-1
 530 171 l 2,18,19
 528 161 528 161 482 151 c 128,-1,20
 436 141 436 141 393 141 c 0,21,22
 302 141 302 141 246 193 c 128,-1,23
 190 245 190 245 190 331 c 0,24,25
 190 421 190 421 251 476.5 c 128,-1,26
 312 532 312 532 412 532 c 0,0,1
387 677 m 0,27,28
 525 677 525 677 623.5 575 c 128,-1,29
 722 473 722 473 722 330 c 0,30,31
 722 186 722 186 623.5 85.5 c 128,-1,32
 525 -15 525 -15 381 -15 c 0,33,34
 238 -15 238 -15 138 85.5 c 128,-1,35
 38 186 38 186 38 330 c 0,36,37
 38 476 38 476 139 576.5 c 128,-1,38
 240 677 240 677 387 677 c 0,27,28
385 634 m 0,39,40
 264 634 264 634 178 545 c 128,-1,41
 92 456 92 456 92 330 c 0,42,43
 92 207 92 207 177.5 117.5 c 128,-1,44
 263 28 263 28 381 28 c 0,45,46
 498 28 498 28 582 117.5 c 128,-1,47
 666 207 666 207 666 331 c 0,48,49
 666 454 666 454 582.5 544 c 128,-1,50
 499 634 499 634 385 634 c 0,39,40
EndSplineSet
EndChar

StartChar: ordfeminine
Encoding: 170 170 108
Width: 275
GlyphClass: 2
Flags: W
LayerCount: 2
Fore
SplineSet
4 461 m 0,0,1
 4 500 4 500 36.5 522 c 128,-1,2
 69 544 69 544 157 576 c 1,3,-1
 157 606 l 2,4,5
 157 647 157 647 122 647 c 0,6,7
 105 647 105 647 90.5 640 c 128,-1,8
 76 633 76 633 76 625 c 0,9,10
 76 624 76 624 77.5 615 c 128,-1,11
 79 606 79 606 79 603 c 0,12,13
 79 593 79 593 69.5 586 c 128,-1,14
 60 579 60 579 48 579 c 0,15,16
 34 579 34 579 25 587.5 c 128,-1,17
 16 596 16 596 16 609 c 0,18,19
 16 638 16 638 47 657.5 c 128,-1,20
 78 677 78 677 125 677 c 0,21,22
 229 677 229 677 229 580 c 2,23,-1
 229 464 l 2,24,25
 229 444 229 444 231.5 437.5 c 128,-1,26
 234 431 234 431 242 431 c 0,27,28
 258 431 258 431 270 442 c 1,29,-1
 270 423 l 1,30,31
 241 394 241 394 211 394 c 0,32,33
 173 394 173 394 166 438 c 1,34,35
 116 394 116 394 75 394 c 0,36,37
 44 394 44 394 24 413 c 128,-1,38
 4 432 4 432 4 461 c 0,0,1
105 441 m 0,39,40
 123 441 123 441 140.5 449.5 c 128,-1,41
 158 458 158 458 158 475 c 2,42,-1
 158 551 l 1,43,44
 105 532 105 532 86 518 c 128,-1,45
 67 504 67 504 67 485 c 0,46,47
 67 467 67 467 78 454 c 128,-1,48
 89 441 89 441 105 441 c 0,39,40
EndSplineSet
EndChar

StartChar: guillemotleft
Encoding: 171 171 109
Width: 499
GlyphClass: 2
Flags: W
LayerCount: 2
Fore
SplineSet
135 224 m 0,0,1
 137 222 137 222 171 179 c 128,-1,2
 205 136 205 136 234.5 94.5 c 128,-1,3
 264 53 264 53 264 42 c 0,4,5
 264 34 264 34 253 34 c 0,6,7
 246 34 246 34 213 65 c 0,8,9
 148 127 148 127 73 195 c 2,10,-1
 42 223 l 1,11,-1
 107 281 l 2,12,13
 199 362 199 362 209 376 c 0,14,15
 242 416 242 416 253 416 c 128,-1,16
 264 416 264 416 264 406 c 0,17,18
 264 392 264 392 242 360 c 128,-1,19
 220 328 220 328 181.5 281 c 128,-1,20
 143 234 143 234 135 224 c 0,0,1
327 224 m 0,21,22
 329 222 329 222 363 179 c 128,-1,23
 397 136 397 136 426.5 94.5 c 128,-1,24
 456 53 456 53 456 42 c 0,25,26
 456 34 456 34 447 34 c 0,27,28
 439 34 439 34 435 40 c 0,29,30
 407 67 407 67 265 195 c 2,31,-1
 234 223 l 1,32,-1
 299 281 l 2,33,34
 396 368 396 368 401 376 c 0,35,36
 434 416 434 416 447 416 c 0,37,38
 456 416 456 416 456 406 c 0,39,40
 456 392 456 392 434 360 c 128,-1,41
 412 328 412 328 373.5 281 c 128,-1,42
 335 234 335 234 327 224 c 0,21,22
EndSplineSet
EndChar

StartChar: logicalnot
Encoding: 172 172 110
Width: 563
GlyphClass: 2
Flags: W
LayerCount: 2
Fore
SplineSet
469 108 m 1,0,-1
 469 319 l 1,1,-1
 29 319 l 1,2,-1
 29 387 l 1,3,-1
 535 387 l 1,4,-1
 535 108 l 1,5,-1
 469 108 l 1,0,-1
EndSplineSet
EndChar

StartChar: softhyphen
Encoding: 173 173 111
Width: 563
GlyphClass: 2
Flags: W
LayerCount: 2
Fore
SplineSet
535 220 m 1,0,-1
 29 220 l 1,1,-1
 29 286 l 1,2,-1
 535 286 l 1,3,-1
 535 220 l 1,0,-1
EndSplineSet
EndChar

StartChar: registered
Encoding: 174 174 112
Width: 758
GlyphClass: 2
Flags: W
LayerCount: 2
Fore
SplineSet
501 152 m 2,0,1
 487 152 487 152 473.5 168 c 128,-1,2
 460 184 460 184 430.5 232.5 c 128,-1,3
 401 281 401 281 379 313 c 1,4,-1
 333 313 l 1,5,-1
 333 215 l 2,6,7
 333 182 333 182 339 176 c 128,-1,8
 345 170 345 170 381 167 c 1,9,-1
 381 152 l 1,10,-1
 220 152 l 1,11,-1
 220 167 l 1,12,13
 256 170 256 170 262 176 c 128,-1,14
 268 182 268 182 268 215 c 2,15,-1
 268 456 l 2,16,17
 268 488 268 488 262 494 c 128,-1,18
 256 500 256 500 220 505 c 1,19,-1
 220 520 l 1,20,-1
 395 520 l 2,21,22
 448 520 448 520 479.5 494.5 c 128,-1,23
 511 469 511 469 511 428 c 0,24,25
 511 358 511 358 432 324 c 1,26,-1
 489 245 l 2,27,28
 530 189 530 189 565 160 c 1,29,-1
 565 152 l 1,30,-1
 501 152 l 2,0,1
333 501 m 1,31,-1
 333 333 l 1,32,-1
 375 333 l 2,33,34
 408 333 408 333 426 356 c 128,-1,35
 444 379 444 379 444 422 c 0,36,37
 444 501 444 501 374 501 c 2,38,-1
 333 501 l 1,31,-1
381 677 m 0,39,40
 525 677 525 677 623.5 575.5 c 128,-1,41
 722 474 722 474 722 325 c 0,42,43
 722 184 722 184 622 84.5 c 128,-1,44
 522 -15 522 -15 381 -15 c 0,45,46
 238 -15 238 -15 138 85.5 c 128,-1,47
 38 186 38 186 38 330 c 0,48,49
 38 475 38 475 138 576 c 128,-1,50
 238 677 238 677 381 677 c 0,39,40
381 634 m 128,-1,52
 263 634 263 634 177.5 544.5 c 128,-1,53
 92 455 92 455 92 330 c 0,54,55
 92 207 92 207 177.5 117.5 c 128,-1,56
 263 28 263 28 381 28 c 0,57,58
 496 28 496 28 581 117 c 128,-1,59
 666 206 666 206 666 327 c 0,60,61
 666 455 666 455 582.5 544.5 c 128,-1,51
 499 634 499 634 381 634 c 128,-1,52
EndSplineSet
EndChar

StartChar: macron
Encoding: 175 175 113
Width: 332
GlyphClass: 3
Flags: W
LayerCount: 2
Fore
SplineSet
12 601 m 1,0,-1
 322 601 l 1,1,-1
 322 546 l 1,2,-1
 12 546 l 1,3,-1
 12 601 l 1,0,-1
EndSplineSet
EndChar

StartChar: degree
Encoding: 176 176 114
Width: 399
GlyphClass: 2
Flags: W
LayerCount: 2
Fore
SplineSet
201 677 m 0,0,1
 260 677 260 677 301.5 635 c 128,-1,2
 343 593 343 593 343 532 c 0,3,4
 343 473 343 473 300.5 431.5 c 128,-1,5
 258 390 258 390 198 390 c 0,6,7
 140 390 140 390 98.5 432 c 128,-1,8
 57 474 57 474 57 533 c 0,9,10
 57 594 57 594 98.5 635.5 c 128,-1,11
 140 677 140 677 201 677 c 0,0,1
201 642 m 0,12,13
 158 642 158 642 127.5 609.5 c 128,-1,14
 97 577 97 577 97 533 c 128,-1,15
 97 489 97 489 127.5 456 c 128,-1,16
 158 423 158 423 199 423 c 0,17,18
 242 423 242 423 273.5 455.5 c 128,-1,19
 305 488 305 488 305 533 c 0,20,21
 305 577 305 577 273.5 609.5 c 128,-1,22
 242 642 242 642 201 642 c 0,12,13
EndSplineSet
EndChar

StartChar: plusminus
Encoding: 177 177 115
Width: 563
GlyphClass: 2
Flags: W
LayerCount: 2
Fore
SplineSet
29 0 m 1,0,-1
 29 66 l 1,1,-1
 535 66 l 1,2,-1
 535 0 l 1,3,-1
 29 0 l 1,0,-1
249 349 m 1,4,-1
 249 568 l 1,5,-1
 315 568 l 1,6,-1
 315 349 l 1,7,-1
 535 349 l 1,8,-1
 535 283 l 1,9,-1
 315 283 l 1,10,-1
 315 122 l 1,11,-1
 249 122 l 1,12,-1
 249 283 l 1,13,-1
 29 283 l 1,14,-1
 29 349 l 1,15,-1
 249 349 l 1,4,-1
EndSplineSet
EndChar

StartChar: twosuperior
Encoding: 178 178 116
Width: 298
GlyphClass: 2
Flags: W
LayerCount: 2
Fore
SplineSet
1 557 m 2,0,1
 2 558 2 558 5.5 569 c 128,-1,2
 9 580 9 580 11.5 585 c 128,-1,3
 14 590 14 590 19 602 c 128,-1,4
 24 614 24 614 29.5 620.5 c 128,-1,5
 35 627 35 627 43 637 c 128,-1,6
 51 647 51 647 61 653 c 128,-1,7
 71 659 71 659 83.5 665 c 128,-1,8
 96 671 96 671 112 674 c 128,-1,9
 128 677 128 677 146 677 c 0,10,11
 204 677 204 677 240.5 647 c 128,-1,12
 277 617 277 617 277 570 c 0,13,14
 277 534 277 534 257.5 499.5 c 128,-1,15
 238 465 238 465 193 420 c 2,16,-1
 107 335 l 1,17,-1
 229 335 l 2,18,19
 248 335 248 335 257.5 340 c 128,-1,20
 267 345 267 345 278 362 c 1,21,-1
 296 354 l 1,22,-1
 259 270 l 1,23,-1
 6 270 l 1,24,-1
 6 293 l 1,25,-1
 104 400 l 2,26,27
 185 487 185 487 185 538 c 0,28,29
 185 569 185 569 163.5 591.5 c 128,-1,30
 142 614 142 614 111 614 c 0,31,32
 58 614 58 614 26 543 c 1,33,-1
 1 557 l 2,0,1
EndSplineSet
EndChar

StartChar: threesuperior
Encoding: 179 179 117
Width: 298
GlyphClass: 2
Flags: W
LayerCount: 2
Fore
SplineSet
48 349 m 0,0,1
 63 349 63 349 88.5 330 c 128,-1,2
 114 311 114 311 142 311 c 0,3,4
 173 311 173 311 191 329 c 128,-1,5
 209 347 209 347 209 378 c 0,6,7
 209 406 209 406 196 425 c 128,-1,8
 183 444 183 444 165 451 c 128,-1,9
 147 458 147 458 134 461 c 128,-1,10
 121 464 121 464 116 463 c 2,11,-1
 92 460 l 1,12,-1
 92 489 l 1,13,14
 145 507 145 507 166 525.5 c 128,-1,15
 187 544 187 544 187 571 c 0,16,17
 187 620 187 620 130 620 c 0,18,19
 105 620 105 620 86.5 607.5 c 128,-1,20
 68 595 68 595 45 562 c 1,21,-1
 21 582 l 1,22,23
 47 632 47 632 79 654.5 c 128,-1,24
 111 677 111 677 157 677 c 0,25,26
 201 677 201 677 232.5 652 c 128,-1,27
 264 627 264 627 264 593 c 0,28,29
 264 553 264 553 204 511 c 1,30,31
 291 476 291 476 291 398 c 0,32,33
 291 339 291 339 236 300.5 c 128,-1,34
 181 262 181 262 97 262 c 0,35,36
 15 262 15 262 15 312 c 0,37,38
 15 328 15 328 24.5 338.5 c 128,-1,39
 34 349 34 349 48 349 c 0,0,1
EndSplineSet
EndChar

StartChar: acute
Encoding: 180 180 118
Width: 332
GlyphClass: 3
Flags: W
LayerCount: 2
Fore
SplineSet
133 507 m 1,0,-1
 92 507 l 1,1,-1
 240 655 l 2,2,3
 262 678 262 678 283 678 c 0,4,5
 316 678 316 678 316 646 c 0,6,7
 316 622 316 622 287 603 c 2,8,-1
 133 507 l 1,0,-1
EndSplineSet
EndChar

StartChar: mu
Encoding: 181 181 119
Width: 499
GlyphClass: 2
Flags: W
LayerCount: 2
Fore
SplineSet
37 -148 m 0,0,1
 37 -108 37 -108 48.5 -42 c 128,-1,2
 60 24 60 24 60 54 c 2,3,-1
 60 450 l 1,4,-1
 148 450 l 1,5,-1
 148 144 l 2,6,7
 148 101 148 101 170 77 c 128,-1,8
 192 53 192 53 231 53 c 0,9,10
 305 53 305 53 343 116 c 1,11,-1
 343 450 l 1,12,-1
 431 450 l 1,13,-1
 431 92 l 2,14,15
 431 56 431 56 438 41 c 128,-1,16
 445 26 445 26 461 26 c 0,17,18
 480 26 480 26 513 56 c 1,19,-1
 513 47 l 1,20,21
 487 15 487 15 466.5 2.5 c 128,-1,22
 446 -10 446 -10 417 -10 c 0,23,24
 347 -10 347 -10 346 81 c 1,25,26
 287 -10 287 -10 208 -10 c 0,27,28
 136 -10 136 -10 91 64 c 1,29,30
 96 22 96 22 111.5 -39.5 c 128,-1,31
 127 -101 127 -101 127 -141 c 0,32,33
 127 -218 127 -218 82 -218 c 128,-1,34
 37 -218 37 -218 37 -148 c 0,0,1
EndSplineSet
EndChar

StartChar: paragraph
Encoding: 182 182 120
Width: 452
GlyphClass: 2
Flags: W
LayerCount: 2
Fore
SplineSet
239 640 m 1,0,-1
 239 -154 l 1,1,-1
 83 -154 l 1,2,-1
 83 -132 l 1,3,4
 143 -128 143 -128 157 -111.5 c 128,-1,5
 171 -95 171 -95 171 -31 c 2,6,-1
 171 272 l 1,7,8
 124 274 124 274 98.5 281.5 c 128,-1,9
 73 289 73 289 48 308 c 0,10,11
 -22 353 -22 353 -22 478 c 0,12,13
 -22 574 -22 574 27.5 618 c 128,-1,14
 77 662 77 662 187 662 c 2,15,-1
 450 662 l 1,16,-1
 450 643 l 1,17,18
 393 638 393 638 377.5 622.5 c 128,-1,19
 362 607 362 607 362 554 c 2,20,-1
 362 -42 l 2,21,22
 362 -95 362 -95 377.5 -111.5 c 128,-1,23
 393 -128 393 -128 450 -132 c 1,24,-1
 450 -154 l 1,25,-1
 296 -154 l 1,26,-1
 296 640 l 1,27,-1
 239 640 l 1,0,-1
171 640 m 1,28,29
 108 635 108 635 81 603 c 128,-1,30
 54 571 54 571 54 480 c 0,31,32
 54 386 54 386 80.5 344 c 128,-1,33
 107 302 107 302 171 294 c 1,34,-1
 171 640 l 1,28,29
EndSplineSet
EndChar

StartChar: periodcentered
Encoding: 183 183 121
Width: 249
GlyphClass: 2
Flags: W
LayerCount: 2
Fore
SplineSet
125 311 m 0,0,1
 148 311 148 311 165 293.5 c 128,-1,2
 182 276 182 276 182 253 c 0,3,4
 182 231 182 231 165 215 c 128,-1,5
 148 199 148 199 125 199 c 0,6,7
 103 199 103 199 86.5 215 c 128,-1,8
 70 231 70 231 70 253 c 0,9,10
 70 276 70 276 86.5 293.5 c 128,-1,11
 103 311 103 311 125 311 c 0,0,1
EndSplineSet
EndChar

StartChar: cedilla
Encoding: 184 184 122
Width: 332
GlyphClass: 3
Flags: W
LayerCount: 2
Fore
SplineSet
98 -100 m 1,0,-1
 139 0 l 1,1,-1
 174 0 l 1,2,-1
 149 -64 l 1,3,4
 171 -62 171 -62 174 -62 c 0,5,6
 215 -62 215 -62 238 -80 c 128,-1,7
 261 -98 261 -98 261 -130 c 0,8,9
 261 -170 261 -170 227 -192.5 c 128,-1,10
 193 -215 193 -215 136 -215 c 0,11,12
 90 -215 90 -215 53 -199 c 1,13,-1
 66 -168 l 1,14,15
 103 -180 103 -180 130 -180 c 0,16,17
 186 -180 186 -180 186 -136 c 0,18,19
 186 -117 186 -117 174 -108.5 c 128,-1,20
 162 -100 162 -100 133 -100 c 0,21,22
 116 -100 116 -100 105 -104 c 1,23,-1
 98 -100 l 1,0,-1
EndSplineSet
EndChar

StartChar: onesuperior
Encoding: 185 185 123
Width: 298
GlyphClass: 2
Flags: W
LayerCount: 2
Fore
SplineSet
248 294 m 1,0,-1
 248 270 l 1,1,-1
 57 270 l 1,2,-1
 57 294 l 1,3,4
 89 296 89 296 99.5 302.5 c 128,-1,5
 110 309 110 309 110 327 c 2,6,-1
 110 583 l 2,7,8
 110 611 110 611 103 611 c 0,9,10
 97 611 97 611 59 598 c 1,11,-1
 59 621 l 1,12,-1
 177 677 l 1,13,-1
 190 674 l 1,14,-1
 190 330 l 2,15,16
 190 311 190 311 202 303.5 c 128,-1,17
 214 296 214 296 248 294 c 1,0,-1
EndSplineSet
EndChar

StartChar: ordmasculine
Encoding: 186 186 124
Width: 309
GlyphClass: 2
Flags: W
LayerCount: 2
Fore
SplineSet
160 677 m 0,0,1
 224 677 224 677 264.5 639 c 128,-1,2
 305 601 305 601 305 542 c 0,3,4
 305 479 305 479 261 436.5 c 128,-1,5
 217 394 217 394 151 394 c 0,6,7
 88 394 88 394 47 433.5 c 128,-1,8
 6 473 6 473 6 533 c 0,9,10
 6 597 6 597 48.5 637 c 128,-1,11
 91 677 91 677 160 677 c 0,0,1
149 643 m 0,12,13
 117 643 117 643 98 623 c 128,-1,14
 79 603 79 603 79 570 c 128,-1,15
 79 537 79 537 85 507.5 c 128,-1,16
 91 478 91 478 110.5 453 c 128,-1,17
 130 428 130 428 160 428 c 0,18,19
 231 428 231 428 231 514 c 0,20,21
 231 571 231 571 208.5 607 c 128,-1,22
 186 643 186 643 149 643 c 0,12,13
EndSplineSet
EndChar

StartChar: guillemotright
Encoding: 187 187 125
Width: 499
GlyphClass: 2
Flags: W
LayerCount: 2
Fore
SplineSet
237 42 m 0,0,1
 237 61 237 61 365 224 c 1,2,-1
 290 316 l 2,3,4
 236 383 236 383 236 406 c 0,5,6
 236 416 236 416 246 416 c 0,7,8
 257 416 257 416 290 376 c 0,9,10
 295 369 295 369 393 281 c 2,11,-1
 458 223 l 1,12,-1
 428 195 l 2,13,14
 395 165 395 165 340.5 117 c 128,-1,15
 286 69 286 69 256 40 c 0,16,17
 253 34 253 34 248 34 c 0,18,19
 237 34 237 34 237 42 c 0,0,1
45 42 m 0,20,21
 45 61 45 61 173 224 c 1,22,-1
 98 316 l 2,23,24
 44 383 44 383 44 406 c 0,25,26
 44 416 44 416 54 416 c 0,27,28
 67 416 67 416 98 376 c 0,29,30
 101 372 101 372 142 333.5 c 128,-1,31
 183 295 183 295 185 294 c 2,32,-1
 267 223 l 1,33,-1
 64 40 l 2,34,35
 62 34 62 34 56 34 c 0,36,37
 45 34 45 34 45 42 c 0,20,21
EndSplineSet
EndChar

StartChar: onequarter
Encoding: 188 188 126
Width: 749
GlyphClass: 3
Flags: W
LayerCount: 2
Fore
SplineSet
718 146 m 1,0,-1
 718 89 l 1,1,-1
 664 89 l 1,2,-1
 664 0 l 1,3,-1
 593 0 l 1,4,-1
 593 89 l 1,5,-1
 413 89 l 1,6,-1
 413 139 l 1,7,-1
 617 406 l 1,8,-1
 664 406 l 1,9,-1
 664 146 l 1,10,-1
 718 146 l 1,0,-1
593 146 m 1,11,-1
 593 327 l 1,12,-1
 458 146 l 1,13,-1
 593 146 l 1,11,-1
637 677 m 1,14,-1
 187 -15 l 1,15,-1
 138 -15 l 1,16,-1
 592 677 l 1,17,-1
 637 677 l 1,14,-1
229 294 m 1,18,-1
 229 270 l 1,19,-1
 37 270 l 1,20,-1
 37 294 l 1,21,22
 70 296 70 296 79.5 302.5 c 128,-1,23
 89 309 89 309 89 327 c 2,24,-1
 89 583 l 2,25,26
 89 611 89 611 82 611 c 0,27,28
 76 611 76 611 40 598 c 1,29,-1
 40 621 l 1,30,-1
 157 677 l 1,31,-1
 171 674 l 1,32,-1
 171 330 l 2,33,34
 171 311 171 311 182.5 303.5 c 128,-1,35
 194 296 194 296 229 294 c 1,18,-1
EndSplineSet
Ligature2: "'frac' Diagonal Fractions lookup 2 subtable" one slash four
Ligature2: "'frac' Diagonal Fractions lookup 2 subtable" one fraction four
EndChar

StartChar: threequarters
Encoding: 190 190 128
Width: 749
GlyphClass: 3
Flags: W
LayerCount: 2
Fore
SplineSet
718 146 m 1,0,-1
 718 89 l 1,1,-1
 664 89 l 1,2,-1
 664 0 l 1,3,-1
 593 0 l 1,4,-1
 593 89 l 1,5,-1
 413 89 l 1,6,-1
 413 139 l 1,7,-1
 617 406 l 1,8,-1
 664 406 l 1,9,-1
 664 146 l 1,10,-1
 718 146 l 1,0,-1
593 146 m 1,11,-1
 593 327 l 1,12,-1
 458 146 l 1,13,-1
 593 146 l 1,11,-1
637 677 m 1,14,-1
 187 -15 l 1,15,-1
 138 -15 l 1,16,-1
 592 677 l 1,17,-1
 637 677 l 1,14,-1
50 349 m 0,18,19
 65 349 65 349 90 330 c 128,-1,20
 115 311 115 311 144 311 c 0,21,22
 175 311 175 311 193 329 c 128,-1,23
 211 347 211 347 211 378 c 0,24,25
 211 406 211 406 198 425 c 128,-1,26
 185 444 185 444 167 451 c 128,-1,27
 149 458 149 458 136 461 c 128,-1,28
 123 464 123 464 117 463 c 2,29,-1
 94 460 l 1,30,-1
 94 489 l 1,31,32
 147 507 147 507 168.5 525.5 c 128,-1,33
 190 544 190 544 190 571 c 0,34,35
 190 594 190 594 174.5 607 c 128,-1,36
 159 620 159 620 133 620 c 0,37,38
 106 620 106 620 88 608 c 128,-1,39
 70 596 70 596 45 562 c 1,40,-1
 21 582 l 1,41,42
 48 632 48 632 80 654.5 c 128,-1,43
 112 677 112 677 158 677 c 0,44,45
 203 677 203 677 235 652.5 c 128,-1,46
 267 628 267 628 267 593 c 0,47,48
 267 555 267 555 205 511 c 1,49,50
 291 477 291 477 291 398 c 0,51,52
 291 339 291 339 236 300.5 c 128,-1,53
 181 262 181 262 98 262 c 128,-1,54
 15 262 15 262 15 312 c 0,55,56
 15 328 15 328 24.5 338.5 c 128,-1,57
 34 349 34 349 50 349 c 0,18,19
EndSplineSet
Ligature2: "'frac' Diagonal Fractions lookup 2 subtable" three slash four
Ligature2: "'frac' Diagonal Fractions lookup 2 subtable" three fraction four
EndChar

StartChar: questiondown
Encoding: 191 191 129
Width: 443
GlyphClass: 2
Flags: W
LayerCount: 2
Fore
SplineSet
214 -218 m 0,0,1
 189 -218 189 -218 160.5 -210.5 c 128,-1,2
 132 -203 132 -203 101 -187.5 c 128,-1,3
 70 -172 70 -172 49.5 -139.5 c 128,-1,4
 29 -107 29 -107 29 -63 c 0,5,6
 29 12 29 12 105 104 c 0,7,8
 153 161 153 161 171.5 197 c 128,-1,9
 190 233 190 233 201 294 c 1,10,-1
 217 294 l 1,11,12
 213 217 213 217 187 152 c 2,13,-1
 160 88 l 2,14,15
 122 6 122 6 122 -67 c 0,16,17
 122 -118 122 -118 153.5 -152.5 c 128,-1,18
 185 -187 185 -187 230 -187 c 0,19,20
 266 -187 266 -187 295.5 -168.5 c 128,-1,21
 325 -150 325 -150 325 -126 c 0,22,23
 325 -116 325 -116 306 -93 c 128,-1,24
 287 -70 287 -70 287 -53 c 0,25,26
 287 -34 287 -34 298 -23 c 128,-1,27
 309 -12 309 -12 328 -12 c 0,28,29
 376 -12 376 -12 376 -73 c 0,30,31
 376 -136 376 -136 329.5 -177 c 128,-1,32
 283 -218 283 -218 214 -218 c 0,0,1
208 469 m 0,33,34
 230 469 230 469 245.5 453.5 c 128,-1,35
 261 438 261 438 261 416 c 128,-1,36
 261 394 261 394 245 377 c 128,-1,37
 229 360 229 360 207 360 c 128,-1,38
 185 360 185 360 169.5 376.5 c 128,-1,39
 154 393 154 393 154 417 c 0,40,41
 154 440 154 440 169 454.5 c 128,-1,42
 184 469 184 469 208 469 c 0,33,34
EndSplineSet
EndChar

StartChar: AE
Encoding: 198 198 136
Width: 887
GlyphClass: 2
Flags: W
LayerCount: 2
Fore
SplineSet
608 366 m 2,0,1
 688 366 688 366 711.5 386 c 128,-1,2
 735 406 735 406 740 463 c 1,3,-1
 762 463 l 1,4,-1
 762 229 l 1,5,-1
 740 229 l 1,6,7
 734 282 734 282 721 302 c 0,8,9
 698 330 698 330 642 330 c 2,10,-1
 497 330 l 1,11,-1
 497 91 l 2,12,13
 497 54 497 54 507 46 c 128,-1,14
 517 38 517 38 565 38 c 2,15,-1
 642 38 l 2,16,17
 723 38 723 38 759 62 c 128,-1,18
 795 86 795 86 839 168 c 1,19,-1
 863 168 l 1,20,-1
 819 0 l 1,21,-1
 309 0 l 1,22,-1
 309 19 l 1,23,-1
 327 21 l 2,24,25
 372 26 372 26 385 42 c 128,-1,26
 398 58 398 58 398 108 c 2,27,-1
 398 261 l 1,28,-1
 223 261 l 1,29,-1
 193 207 l 1,30,31
 130 81 130 81 130 48 c 0,32,33
 130 25 130 25 198 19 c 1,34,-1
 199 19 l 1,35,-1
 199 0 l 1,36,-1
 0 0 l 1,37,-1
 0 19 l 1,38,39
 32 24 32 24 48 38 c 128,-1,40
 64 52 64 52 88 97 c 2,41,-1
 333 582 l 2,42,43
 343 602 343 602 343 609 c 0,44,45
 343 639 343 639 252 642 c 1,46,-1
 252 662 l 1,47,-1
 816 662 l 1,48,-1
 816 521 l 1,49,-1
 792 521 l 1,50,51
 784 589 784 589 752.5 607 c 128,-1,52
 721 625 721 625 611 625 c 2,53,-1
 524 625 l 2,54,55
 509 625 509 625 503 618.5 c 128,-1,56
 497 612 497 612 497 596 c 2,57,-1
 497 366 l 1,58,-1
 608 366 l 2,0,1
239 299 m 1,59,-1
 398 299 l 1,60,-1
 398 618 l 1,61,-1
 239 299 l 1,59,-1
EndSplineSet
EndChar

StartChar: Eth
Encoding: 208 208 146
Width: 720
GlyphClass: 2
Flags: W
LayerCount: 2
Fore
SplineSet
286 662 m 2,0,1
 467 662 467 662 576.5 578 c 128,-1,2
 686 494 686 494 686 334 c 0,3,4
 686 289 686 289 675.5 245.5 c 128,-1,5
 665 202 665 202 637 156.5 c 128,-1,6
 609 111 609 111 567 77 c 128,-1,7
 525 43 525 43 456 21.5 c 128,-1,8
 387 0 387 0 300 0 c 2,9,-1
 16 0 l 1,10,-1
 16 19 l 1,11,12
 73 22 73 22 88.5 38 c 128,-1,13
 104 54 104 54 104 108 c 2,14,-1
 104 315 l 1,15,-1
 21 315 l 1,16,-1
 21 359 l 1,17,-1
 104 359 l 1,18,-1
 104 554 l 2,19,20
 104 609 104 609 89.5 623.5 c 128,-1,21
 75 638 75 638 16 643 c 1,22,-1
 16 662 l 1,23,-1
 286 662 l 2,0,1
352 359 m 1,24,-1
 352 315 l 1,25,-1
 207 315 l 1,26,-1
 207 78 l 2,27,28
 207 53 207 53 217.5 45 c 128,-1,29
 228 37 228 37 258 37 c 0,30,31
 576 37 576 37 576 327 c 0,32,33
 576 381 576 381 561 429.5 c 128,-1,34
 546 478 546 478 512.5 524 c 128,-1,35
 479 570 479 570 413 597.5 c 128,-1,36
 347 625 347 625 256 625 c 0,37,38
 226 625 226 625 216.5 617.5 c 128,-1,39
 207 610 207 610 207 586 c 2,40,-1
 207 359 l 1,41,-1
 352 359 l 1,24,-1
EndSplineSet
EndChar

StartChar: multiply
Encoding: 215 215 153
Width: 563
GlyphClass: 2
Flags: W
LayerCount: 2
Fore
SplineSet
234 253 m 1,0,-1
 38 450 l 1,1,-1
 86 497 l 1,2,-1
 283 300 l 1,3,-1
 479 497 l 1,4,-1
 527 450 l 1,5,-1
 330 253 l 1,6,-1
 527 56 l 1,7,-1
 479 7 l 1,8,-1
 283 205 l 1,9,-1
 86 7 l 1,10,-1
 38 56 l 1,11,-1
 234 253 l 1,0,-1
EndSplineSet
EndChar

StartChar: Oslash
Encoding: 216 216 154
Width: 720
GlyphClass: 2
Flags: W
LayerCount: 2
Fore
SplineSet
151 59 m 1,0,1
 108 96 108 96 85 133 c 0,2,3
 34 215 34 215 34 330 c 0,4,5
 34 482 34 482 126 579.5 c 128,-1,6
 218 677 218 677 362 677 c 0,7,8
 450 677 450 677 538 627 c 1,9,-1
 609 734 l 1,10,-1
 658 734 l 1,11,-1
 570 603 l 1,12,13
 615 561 615 561 636 529 c 0,14,15
 688 447 688 447 688 331 c 0,16,17
 688 178 688 178 596.5 81.5 c 128,-1,18
 505 -15 505 -15 359 -15 c 0,19,20
 268 -15 268 -15 185 37 c 1,21,-1
 105 -81 l 1,22,-1
 56 -81 l 1,23,-1
 151 59 l 1,0,1
527 541 m 1,24,-1
 220 88 l 1,25,26
 279 22 279 22 360 22 c 0,27,28
 460 22 460 22 517 104 c 128,-1,29
 574 186 574 186 574 330 c 0,30,31
 574 450 574 450 527 541 c 1,24,-1
193 123 m 1,32,-1
 502 576 l 1,33,34
 439 640 439 640 360 640 c 0,35,36
 262 640 262 640 205 556.5 c 128,-1,37
 148 473 148 473 148 330 c 0,38,39
 148 210 148 210 193 123 c 1,32,-1
EndSplineSet
EndChar

StartChar: Thorn
Encoding: 222 222 160
Width: 555
GlyphClass: 2
Flags: W
LayerCount: 2
Fore
SplineSet
293 662 m 1,0,-1
 293 643 l 1,1,2
 232 638 232 638 217 619.5 c 128,-1,3
 202 601 202 601 202 532 c 1,4,-1
 283 532 l 2,5,6
 402 532 402 532 472 483 c 128,-1,7
 542 434 542 434 542 352 c 0,8,9
 542 326 542 326 536 301.5 c 128,-1,10
 530 277 530 277 512.5 250 c 128,-1,11
 495 223 495 223 466 203.5 c 128,-1,12
 437 184 437 184 387 171 c 128,-1,13
 337 158 337 158 271 158 c 0,14,15
 258 158 258 158 234.5 159.5 c 128,-1,16
 211 161 211 161 202 161 c 1,17,-1
 202 108 l 2,18,19
 202 55 202 55 219.5 38 c 128,-1,20
 237 21 237 21 296 19 c 1,21,-1
 296 0 l 1,22,-1
 16 0 l 1,23,-1
 16 19 l 1,24,25
 73 24 73 24 86.5 40.5 c 128,-1,26
 100 57 100 57 100 120 c 2,27,-1
 100 554 l 2,28,29
 100 607 100 607 85.5 622.5 c 128,-1,30
 71 638 71 638 16 643 c 1,31,-1
 16 662 l 1,32,-1
 293 662 l 1,0,-1
202 461 m 2,33,-1
 202 201 l 1,34,35
 238 198 238 198 259 198 c 0,36,37
 434 198 434 198 434 346 c 0,38,39
 434 423 434 423 385.5 458.5 c 128,-1,40
 337 494 337 494 234 494 c 0,41,42
 215 494 215 494 208.5 487.5 c 128,-1,43
 202 481 202 481 202 461 c 2,33,-1
EndSplineSet
EndChar

StartChar: germandbls
Encoding: 223 223 161
Width: 499
GlyphClass: 2
Flags: W
LayerCount: 2
Fore
SplineSet
209 374 m 0,0,1
 209 383 209 383 222 386 c 128,-1,2
 235 389 235 389 253.5 392.5 c 128,-1,3
 272 396 272 396 290 405 c 128,-1,4
 308 414 308 414 321 442.5 c 128,-1,5
 334 471 334 471 334 517 c 0,6,7
 334 582 334 582 310 619 c 128,-1,8
 286 656 286 656 243 656 c 0,9,10
 203 656 203 656 180 627 c 128,-1,11
 157 598 157 598 157 549 c 2,12,-1
 157 0 l 1,13,-1
 12 0 l 1,14,-1
 12 15 l 1,15,16
 50 18 50 18 61.5 31 c 128,-1,17
 73 44 73 44 73 83 c 2,18,-1
 73 454 l 2,19,20
 73 555 73 555 103 606 c 0,21,22
 146 683 146 683 250 683 c 0,23,24
 328 683 328 683 374 641.5 c 128,-1,25
 420 600 420 600 420 532 c 0,26,27
 420 477 420 477 392.5 445.5 c 128,-1,28
 365 414 365 414 284 376 c 1,29,30
 365 362 365 362 406 327 c 0,31,32
 469 272 469 272 469 186 c 0,33,34
 469 105 469 105 417 48 c 128,-1,35
 365 -9 365 -9 289 -9 c 0,36,37
 246 -9 246 -9 219 11.5 c 128,-1,38
 192 32 192 32 192 64 c 0,39,40
 192 84 192 84 205 97.5 c 128,-1,41
 218 111 218 111 237 111 c 0,42,43
 254 111 254 111 265.5 100 c 128,-1,44
 277 89 277 89 278 72 c 2,45,-1
 281 50 l 2,46,47
 282 34 282 34 289 27.5 c 128,-1,48
 296 21 296 21 311 21 c 0,49,50
 374 21 374 21 374 149 c 0,51,52
 374 352 374 352 242 357 c 0,53,54
 209 357 209 357 209 374 c 0,0,1
EndSplineSet
EndChar

StartChar: ae
Encoding: 230 230 168
Width: 666
GlyphClass: 2
Flags: W
LayerCount: 2
Fore
SplineSet
633 149 m 1,0,1
 622 125 622 125 616.5 114 c 128,-1,2
 611 103 611 103 591.5 75 c 128,-1,3
 572 47 572 47 553.5 32 c 128,-1,4
 535 17 535 17 503 3.5 c 128,-1,5
 471 -10 471 -10 435 -10 c 0,6,7
 355 -10 355 -10 306 63 c 1,8,9
 256 21 256 21 223.5 5.5 c 128,-1,10
 191 -10 191 -10 154 -10 c 0,11,12
 103 -10 103 -10 70.5 20.5 c 128,-1,13
 38 51 38 51 38 100 c 0,14,15
 38 145 38 145 72.5 178.5 c 128,-1,16
 107 212 107 212 187 245 c 2,17,-1
 272 281 l 1,18,-1
 275 344 l 2,19,20
 275 389 275 389 264 413 c 0,21,22
 251 437 251 437 212 437 c 0,23,24
 185 437 185 437 165 424.5 c 128,-1,25
 145 412 145 412 145 388 c 0,26,27
 145 387 145 387 145.5 384.5 c 128,-1,28
 146 382 146 382 146 372.5 c 128,-1,29
 146 363 146 363 146 347 c 0,30,31
 146 328 146 328 134.5 316.5 c 128,-1,32
 123 305 123 305 104 305 c 0,33,34
 84 305 84 305 72 318 c 128,-1,35
 60 331 60 331 60 352 c 0,36,37
 60 399 60 399 105.5 429.5 c 128,-1,38
 151 460 151 460 220 460 c 0,39,40
 257 460 257 460 282.5 450 c 128,-1,41
 308 440 308 440 337 415 c 1,42,43
 370 441 370 441 395.5 450.5 c 128,-1,44
 421 460 421 460 456 460 c 0,45,46
 532 460 532 460 570 417 c 128,-1,47
 608 374 608 374 617 277 c 1,48,-1
 354 277 l 1,49,50
 354 204 354 204 359.5 170.5 c 128,-1,51
 365 137 365 137 381 107 c 0,52,53
 394 85 394 85 420 71 c 128,-1,54
 446 57 446 57 476 57 c 0,55,56
 519 57 519 57 552 79 c 128,-1,57
 585 101 585 101 620 154 c 1,58,-1
 633 149 l 1,0,1
294 88 m 1,59,-1
 292 94 l 2,60,61
 290 100 290 100 287 110.5 c 128,-1,62
 284 121 284 121 281 134 c 128,-1,63
 278 147 278 147 276 165 c 128,-1,64
 274 183 274 183 274 201 c 2,65,-1
 274 253 l 1,66,67
 183 220 183 220 154 195 c 128,-1,68
 125 170 125 170 125 125 c 0,69,70
 125 90 125 90 144.5 64 c 128,-1,71
 164 38 164 38 192 38 c 128,-1,72
 220 38 220 38 257 56 c 128,-1,73
 294 74 294 74 294 88 c 1,59,-1
354 308 m 1,74,-1
 521 308 l 1,75,76
 519 373 519 373 501 402 c 128,-1,77
 483 431 483 431 442 431 c 0,78,79
 399 431 399 431 379 402 c 128,-1,80
 359 373 359 373 354 308 c 1,74,-1
EndSplineSet
EndChar

StartChar: eth
Encoding: 240 240 178
Width: 499
GlyphClass: 2
Flags: W
LayerCount: 2
Fore
SplineSet
270 576 m 1,0,-1
 146 510 l 1,1,-1
 114 541 l 1,2,-1
 234 603 l 1,3,4
 175 645 175 645 103 661 c 1,5,-1
 144 683 l 1,6,7
 230 675 230 675 296 636 c 1,8,-1
 391 686 l 1,9,-1
 423 656 l 1,10,-1
 333 608 l 1,11,12
 370 573 370 573 388 549.5 c 128,-1,13
 406 526 406 526 423 491 c 0,14,15
 472 397 472 397 472 286 c 0,16,17
 472 213 472 213 447.5 147.5 c 128,-1,18
 423 82 423 82 382 42 c 0,19,20
 329 -10 329 -10 248 -10 c 0,21,22
 154 -10 154 -10 91.5 56.5 c 128,-1,23
 29 123 29 123 29 223 c 128,-1,24
 29 323 29 323 90.5 391.5 c 128,-1,25
 152 460 152 460 242 460 c 0,26,27
 277 460 277 460 303 447.5 c 128,-1,28
 329 435 329 435 368 400 c 1,29,30
 356 457 356 457 335.5 494 c 128,-1,31
 315 531 315 531 270 576 c 1,0,-1
237 432 m 0,32,33
 184 432 184 432 151.5 388.5 c 128,-1,34
 119 345 119 345 119 275 c 0,35,36
 119 234 119 234 127 191.5 c 128,-1,37
 135 149 135 149 151 109 c 128,-1,38
 167 69 167 69 195.5 43.5 c 128,-1,39
 224 18 224 18 261 18 c 0,40,41
 318 18 318 18 349.5 66.5 c 128,-1,42
 381 115 381 115 381 201 c 0,43,44
 381 303 381 303 341 367.5 c 128,-1,45
 301 432 301 432 237 432 c 0,32,33
EndSplineSet
EndChar

StartChar: divide
Encoding: 247 247 185
Width: 563
GlyphClass: 2
Flags: W
LayerCount: 2
Fore
SplineSet
535 220 m 1,0,-1
 29 220 l 1,1,-1
 29 286 l 1,2,-1
 535 286 l 1,3,-1
 535 220 l 1,0,-1
283 516 m 0,4,5
 305 516 305 516 321.5 499 c 128,-1,6
 338 482 338 482 338 458 c 0,7,8
 338 438 338 438 321 422 c 128,-1,9
 304 406 304 406 281 406 c 0,10,11
 259 406 259 406 243 422 c 128,-1,12
 227 438 227 438 227 458 c 0,13,14
 227 483 227 483 243.5 499.5 c 128,-1,15
 260 516 260 516 283 516 c 0,4,5
283 101 m 0,16,17
 305 101 305 101 321.5 84 c 128,-1,18
 338 67 338 67 338 44 c 0,19,20
 338 22 338 22 321 6 c 128,-1,21
 304 -10 304 -10 281 -10 c 0,22,23
 259 -10 259 -10 243 6 c 128,-1,24
 227 22 227 22 227 44 c 0,25,26
 227 67 227 67 243.5 84 c 128,-1,27
 260 101 260 101 283 101 c 0,16,17
EndSplineSet
EndChar

StartChar: oslash
Encoding: 248 248 186
Width: 499
GlyphClass: 2
Flags: W
LayerCount: 2
Fore
SplineSet
125 28 m 1,0,1
 107 42 107 42 95.5 54.5 c 128,-1,2
 84 67 84 67 66 91 c 128,-1,3
 48 115 48 115 38.5 150 c 128,-1,4
 29 185 29 185 29 227 c 0,5,6
 29 329 29 329 90.5 394.5 c 128,-1,7
 152 460 152 460 249 460 c 0,8,9
 296 460 296 460 341 442 c 1,10,-1
 398 551 l 1,11,-1
 437 551 l 1,12,-1
 372 426 l 1,13,14
 376 424 376 424 382.5 419.5 c 128,-1,15
 389 415 389 415 406 398.5 c 128,-1,16
 423 382 423 382 436 362 c 128,-1,17
 449 342 449 342 459.5 307.5 c 128,-1,18
 470 273 470 273 470 234 c 0,19,20
 470 130 470 130 406.5 60 c 128,-1,21
 343 -10 343 -10 248 -10 c 0,22,23
 202 -10 202 -10 154 12 c 1,24,-1
 89 -111 l 1,25,-1
 53 -111 l 1,26,-1
 125 28 l 1,0,1
340 366 m 1,27,-1
 179 60 l 1,28,29
 213 18 213 18 261 18 c 0,30,31
 317 18 317 18 348 67 c 128,-1,32
 379 116 379 116 379 204 c 128,-1,33
 379 292 379 292 340 366 c 1,27,-1
158 92 m 1,34,-1
 316 395 l 1,35,36
 280 432 280 432 237 432 c 0,37,38
 184 432 184 432 151.5 389.5 c 128,-1,39
 119 347 119 347 119 275 c 0,40,41
 119 171 119 171 158 92 c 1,34,-1
EndSplineSet
EndChar

StartChar: thorn
Encoding: 254 254 192
Width: 499
GlyphClass: 2
Flags: W
LayerCount: 2
Fore
SplineSet
9 623 m 1,0,-1
 9 639 l 1,1,2
 97 663 97 663 154 683 c 1,3,-1
 160 680 l 1,4,-1
 160 382 l 1,5,6
 222 460 222 460 303 460 c 0,7,8
 376 460 376 460 423 400 c 128,-1,9
 470 340 470 340 470 248 c 0,10,11
 470 139 470 139 409.5 64.5 c 128,-1,12
 349 -10 349 -10 261 -10 c 0,13,14
 228 -10 228 -10 206 -0.5 c 128,-1,15
 184 9 184 9 160 34 c 1,16,-1
 160 -125 l 2,17,18
 160 -172 160 -172 175.5 -185 c 128,-1,19
 191 -198 191 -198 248 -199 c 1,20,-1
 248 -217 l 1,21,-1
 4 -217 l 1,22,-1
 4 -199 l 1,23,24
 49 -194 49 -194 62 -182 c 128,-1,25
 75 -170 75 -170 75 -130 c 2,26,-1
 75 573 l 2,27,28
 75 604 75 604 65.5 614 c 128,-1,29
 56 624 56 624 26 624 c 0,30,31
 15 624 15 624 9 623 c 1,0,-1
160 334 m 2,32,-1
 160 88 l 2,33,34
 160 66 160 66 194 44 c 128,-1,35
 228 22 228 22 264 22 c 0,36,37
 317 22 317 22 350.5 73.5 c 128,-1,38
 384 125 384 125 384 208 c 0,39,40
 384 295 384 295 350.5 347.5 c 128,-1,41
 317 400 317 400 261 400 c 0,42,43
 226 400 226 400 193 378.5 c 128,-1,44
 160 357 160 357 160 334 c 2,32,-1
EndSplineSet
EndChar

StartChar: dotlessi
Encoding: 305 305 194
Width: 276
GlyphClass: 2
Flags: W
LayerCount: 2
Fore
SplineSet
62 394 m 0,0,1
 37 394 37 394 21 390 c 1,2,-1
 21 406 l 1,3,-1
 174 460 l 1,4,-1
 179 457 l 1,5,-1
 179 103 l 2,6,7
 179 48 179 48 191 34 c 128,-1,8
 203 20 203 20 253 15 c 1,9,-1
 253 0 l 1,10,-1
 16 0 l 1,11,-1
 16 15 l 1,12,13
 68 18 68 18 81.5 33 c 128,-1,14
 95 48 95 48 95 103 c 2,15,-1
 95 334 l 2,16,17
 95 367 95 367 87.5 380.5 c 128,-1,18
 80 394 80 394 62 394 c 0,0,1
EndSplineSet
EndChar

StartChar: Lslash
Encoding: 321 321 195
Width: 610
GlyphClass: 2
Flags: W
LayerCount: 2
Fore
SplineSet
354 40 m 2,0,1
 447 40 447 40 494 70 c 128,-1,2
 541 100 541 100 573 174 c 1,3,-1
 598 174 l 1,4,-1
 551 0 l 1,5,-1
 12 0 l 1,6,-1
 12 19 l 1,7,8
 66 22 66 22 83 39.5 c 128,-1,9
 100 57 100 57 100 108 c 2,10,-1
 100 275 l 1,11,-1
 12 226 l 1,12,-1
 12 275 l 1,13,-1
 100 325 l 1,14,-1
 100 554 l 2,15,16
 100 606 100 606 84 622 c 128,-1,17
 68 638 68 638 12 643 c 1,18,-1
 12 662 l 1,19,-1
 294 662 l 1,20,-1
 294 643 l 1,21,22
 235 640 235 640 218 623.5 c 128,-1,23
 201 607 201 607 201 554 c 2,24,-1
 201 384 l 1,25,-1
 356 473 l 1,26,-1
 356 423 l 1,27,-1
 201 335 l 1,28,-1
 201 81 l 2,29,30
 201 54 201 54 216.5 47 c 128,-1,31
 232 40 232 40 287 40 c 2,32,-1
 354 40 l 2,0,1
EndSplineSet
EndChar

StartChar: lslash
Encoding: 322 322 196
Width: 276
GlyphClass: 2
Flags: W
LayerCount: 2
Fore
SplineSet
98 362 m 1,0,-1
 98 564 l 2,1,2
 98 599 98 599 89 612 c 128,-1,3
 80 625 80 625 56 625 c 0,4,5
 49 625 49 625 25 623 c 2,6,-1
 19 623 l 1,7,-1
 19 639 l 1,8,9
 117 663 117 663 179 683 c 1,10,-1
 182 681 l 1,11,-1
 182 419 l 1,12,-1
 259 472 l 1,13,-1
 259 428 l 1,14,-1
 182 375 l 1,15,-1
 182 83 l 2,16,17
 182 43 182 43 195.5 30.5 c 128,-1,18
 209 18 209 18 256 15 c 1,19,-1
 256 0 l 1,20,-1
 21 0 l 1,21,-1
 21 15 l 1,22,23
 68 20 68 20 83 33.5 c 128,-1,24
 98 47 98 47 98 86 c 2,25,-1
 98 318 l 1,26,-1
 21 264 l 1,27,-1
 21 308 l 1,28,-1
 98 362 l 1,0,-1
EndSplineSet
EndChar

StartChar: OE
Encoding: 338 338 197
Width: 887
GlyphClass: 2
Flags: W
LayerCount: 2
Fore
SplineSet
343 668 m 0,0,1
 354 668 354 668 409 665 c 128,-1,2
 464 662 464 662 513 662 c 2,3,-1
 838 662 l 1,4,-1
 838 521 l 1,5,-1
 814 521 l 1,6,7
 806 587 806 587 775.5 606 c 128,-1,8
 745 625 745 625 647 625 c 2,9,-1
 596 625 l 2,10,11
 554 625 554 625 543 621 c 128,-1,12
 532 617 532 617 532 602 c 2,13,-1
 532 366 l 1,14,-1
 636 366 l 2,15,16
 714 366 714 366 738.5 387.5 c 128,-1,17
 763 409 763 409 768 464 c 1,18,-1
 788 464 l 1,19,-1
 788 230 l 1,20,-1
 768 230 l 1,21,22
 761 289 761 289 741 309.5 c 128,-1,23
 721 330 721 330 669 330 c 2,24,-1
 532 330 l 1,25,-1
 532 83 l 2,26,27
 532 56 532 56 543 46.5 c 128,-1,28
 554 37 554 37 587 38 c 2,29,-1
 710 40 l 2,30,31
 757 42 757 42 790 69.5 c 128,-1,32
 823 97 823 97 861 168 c 1,33,-1
 885 168 l 1,34,-1
 841 0 l 1,35,-1
 491 0 l 2,36,37
 423 0 423 0 371 -4 c 0,38,39
 358 -4 358 -4 338 -5 c 128,-1,40
 318 -6 318 -6 312 -6 c 0,41,42
 261 -6 261 -6 213.5 12 c 128,-1,43
 166 30 166 30 123.5 66.5 c 128,-1,44
 81 103 81 103 55 169 c 128,-1,45
 29 235 29 235 29 322 c 0,46,47
 29 408 29 408 56 480 c 128,-1,48
 83 552 83 552 130 593 c 0,49,50
 216 668 216 668 343 668 c 0,0,1
431 130 m 2,51,-1
 431 527 l 2,52,53
 431 582 431 582 407.5 607.5 c 128,-1,54
 384 633 384 633 333 633 c 0,55,56
 242 633 242 633 192 552.5 c 128,-1,57
 142 472 142 472 142 325 c 0,58,59
 142 183 142 183 190.5 107 c 128,-1,60
 239 31 239 31 331 31 c 0,61,62
 384 31 384 31 407.5 54.5 c 128,-1,63
 431 78 431 78 431 130 c 2,51,-1
EndSplineSet
EndChar

StartChar: oe
Encoding: 339 339 198
Width: 720
GlyphClass: 2
Flags: W
LayerCount: 2
Fore
SplineSet
29 218 m 0,0,1
 29 258 29 258 40.5 298 c 128,-1,2
 52 338 52 338 75 375.5 c 128,-1,3
 98 413 98 413 138.5 436.5 c 128,-1,4
 179 460 179 460 231 460 c 0,5,6
 278 460 278 460 312 443 c 128,-1,7
 346 426 346 426 384 384 c 1,8,9
 415 425 415 425 444.5 442.5 c 128,-1,10
 474 460 474 460 514 460 c 0,11,12
 595 460 595 460 640 398 c 0,13,14
 670 361 670 361 674 277 c 1,15,-1
 420 277 l 1,16,17
 422 214 422 214 430.5 178 c 128,-1,18
 439 142 439 142 458 107 c 0,19,20
 473 85 473 85 498 71 c 128,-1,21
 523 57 523 57 549 57 c 0,22,23
 586 57 586 57 615.5 77 c 128,-1,24
 645 97 645 97 680 145 c 1,25,-1
 690 139 l 1,26,27
 652 58 652 58 611 24 c 128,-1,28
 570 -10 570 -10 511 -10 c 0,29,30
 465 -10 465 -10 435.5 12.5 c 128,-1,31
 406 35 406 35 384 85 c 1,32,33
 355 34 355 34 321 12 c 128,-1,34
 287 -10 287 -10 236 -10 c 0,35,36
 146 -10 146 -10 87.5 54 c 128,-1,37
 29 118 29 118 29 218 c 0,0,1
229 431 m 0,38,39
 187 431 187 431 154 398 c 0,40,41
 120 362 120 362 120 271 c 0,42,43
 120 16 120 16 240 16 c 0,44,45
 343 16 343 16 343 199 c 0,46,47
 343 311 343 311 313.5 371 c 128,-1,48
 284 431 284 431 229 431 c 0,38,39
419 308 m 1,49,-1
 579 308 l 1,50,-1
 579 334 l 2,51,52
 579 376 579 376 556.5 403.5 c 128,-1,53
 534 431 534 431 499 431 c 0,54,55
 420 431 420 431 419 308 c 1,49,-1
EndSplineSet
EndChar

StartChar: florin
Encoding: 402 402 202
Width: 499
GlyphClass: 2
Flags: W
LayerCount: 2
Fore
SplineSet
406 598 m 0,0,1
 406 603 406 603 412.5 617 c 128,-1,2
 419 631 419 631 419 636 c 0,3,4
 419 647 419 647 398 647 c 0,5,6
 374 647 374 647 357 630 c 0,7,8
 343 614 343 614 330 572 c 128,-1,9
 317 530 317 530 313 483 c 0,10,11
 306 409 306 409 306 407 c 2,12,-1
 432 407 l 1,13,-1
 422 376 l 1,14,-1
 302 376 l 1,15,16
 297 340 297 340 286 254 c 128,-1,17
 275 168 275 168 268.5 123.5 c 128,-1,18
 262 79 262 79 247.5 18.5 c 128,-1,19
 233 -42 233 -42 214 -83 c 0,20,21
 166 -189 166 -189 86 -189 c 0,22,23
 52 -189 52 -189 29.5 -169.5 c 128,-1,24
 7 -150 7 -150 7 -120 c 0,25,26
 7 -100 7 -100 20 -87.5 c 128,-1,27
 33 -75 33 -75 53 -75 c 0,28,29
 70 -75 70 -75 79.5 -84.5 c 128,-1,30
 89 -94 89 -94 89 -111 c 0,31,32
 89 -122 89 -122 82 -135.5 c 128,-1,33
 75 -149 75 -149 75 -152 c 0,34,35
 75 -166 75 -166 95 -166 c 0,36,37
 162 -166 162 -166 177 9 c 2,38,-1
 192 182 l 2,39,40
 196 223 196 223 200.5 259 c 128,-1,41
 205 295 205 295 210 329 c 128,-1,42
 215 363 215 363 217 376 c 1,43,-1
 105 376 l 1,44,-1
 116 407 l 1,45,-1
 223 407 l 1,46,47
 264 677 264 677 406 677 c 0,48,49
 441 677 441 677 466 657 c 128,-1,50
 491 637 491 637 491 608 c 0,51,52
 491 589 491 589 477 575.5 c 128,-1,53
 463 562 463 562 444 562 c 0,54,55
 428 562 428 562 417 573 c 128,-1,56
 406 584 406 584 406 598 c 0,0,1
EndSplineSet
EndChar

StartChar: dotlessj
Encoding: 567 567 203
Width: 276
GlyphClass: 2
Flags: W
LayerCount: 2
Fore
SplineSet
78 394 m 0,0,1
 72 394 72 394 32 390 c 1,2,-1
 32 406 l 1,3,4
 101 426 101 426 187 460 c 1,5,-1
 193 457 l 1,6,-1
 193 0 l 2,7,8
 193 -106 193 -106 149.5 -162 c 128,-1,9
 106 -218 106 -218 23 -218 c 0,10,11
 -16 -218 -16 -218 -43 -202.5 c 128,-1,12
 -70 -187 -70 -187 -70 -163 c 0,13,14
 -70 -146 -70 -146 -58.5 -135.5 c 128,-1,15
 -47 -125 -47 -125 -29 -125 c 0,16,17
 -8 -125 -8 -125 17.5 -155 c 128,-1,18
 43 -185 43 -185 62 -185 c 0,19,20
 84 -185 84 -185 95 -166 c 0,21,22
 108 -140 108 -140 108 -45 c 2,23,-1
 108 334 l 2,24,25
 108 394 108 394 78 394 c 0,0,1
EndSplineSet
EndChar

StartChar: circumflex
Encoding: 710 710 204
Width: 332
GlyphClass: 2
Flags: W
LayerCount: 2
Fore
SplineSet
322 507 m 1,0,-1
 289 507 l 1,1,-1
 166 609 l 1,2,-1
 45 507 l 1,3,-1
 12 507 l 1,4,-1
 135 674 l 1,5,-1
 198 674 l 1,6,-1
 322 507 l 1,0,-1
EndSplineSet
EndChar

StartChar: caron
Encoding: 711 711 205
Width: 332
GlyphClass: 2
Flags: W
LayerCount: 2
Fore
SplineSet
322 674 m 1,0,-1
 198 507 l 1,1,-1
 135 507 l 1,2,-1
 12 674 l 1,3,-1
 45 674 l 1,4,-1
 166 571 l 1,5,-1
 289 674 l 1,6,-1
 322 674 l 1,0,-1
EndSplineSet
EndChar

StartChar: breve
Encoding: 728 728 206
Width: 332
GlyphClass: 3
Flags: W
LayerCount: 2
Fore
SplineSet
278 664 m 1,0,-1
 308 664 l 1,1,2
 297 584 297 584 262.5 545.5 c 128,-1,3
 228 507 228 507 166 507 c 0,4,5
 110 507 110 507 68 543 c 128,-1,6
 26 579 26 579 26 664 c 1,7,-1
 56 664 l 1,8,9
 75 567 75 567 167 567 c 0,10,11
 211 567 211 567 234 587 c 128,-1,12
 257 607 257 607 278 664 c 1,0,-1
EndSplineSet
EndChar

StartChar: dotaccent
Encoding: 729 729 207
Width: 332
GlyphClass: 3
Flags: W
LayerCount: 2
Fore
SplineSet
166 623 m 0,0,1
 186 623 186 623 201.5 608 c 128,-1,2
 217 593 217 593 217 573 c 0,3,4
 217 552 217 552 202 537.5 c 128,-1,5
 187 523 187 523 166 523 c 0,6,7
 146 523 146 523 132.5 537.5 c 128,-1,8
 119 552 119 552 119 573 c 0,9,10
 119 593 119 593 133 608 c 128,-1,11
 147 623 147 623 166 623 c 0,0,1
EndSplineSet
EndChar

StartChar: ring
Encoding: 730 730 208
Width: 332
GlyphClass: 3
Flags: W
LayerCount: 2
Fore
SplineSet
166 710 m 128,-1,1
 207 710 207 710 237 681 c 128,-1,2
 267 652 267 652 267 611 c 0,3,4
 267 571 267 571 237 542 c 128,-1,5
 207 513 207 513 166 513 c 0,6,7
 124 513 124 513 95.5 542 c 128,-1,8
 67 571 67 571 67 612 c 128,-1,9
 67 653 67 653 96 681.5 c 128,-1,0
 125 710 125 710 166 710 c 128,-1,1
167 677 m 0,10,11
 140 677 140 677 120.5 657.5 c 128,-1,12
 101 638 101 638 101 612 c 0,13,14
 101 585 101 585 120 565.5 c 128,-1,15
 139 546 139 546 166 546 c 128,-1,16
 193 546 193 546 212 565.5 c 128,-1,17
 231 585 231 585 231 611 c 0,18,19
 231 638 231 638 212 657.5 c 128,-1,20
 193 677 193 677 167 677 c 0,10,11
EndSplineSet
EndChar

StartChar: ogonek
Encoding: 731 731 209
Width: 332
GlyphClass: 3
Flags: W
LayerCount: 2
Fore
SplineSet
229 -73 m 1,0,-1
 249 -89 l 1,1,2
 195 -166 195 -166 138 -166 c 0,3,4
 107 -166 107 -166 85.5 -143.5 c 128,-1,5
 64 -121 64 -121 64 -89 c 0,6,7
 64 -42 64 -42 119 0 c 1,8,-1
 164 0 l 1,9,10
 120 -35 120 -35 120 -69 c 0,11,12
 120 -86 120 -86 130.5 -97 c 128,-1,13
 141 -108 141 -108 158 -108 c 0,14,15
 189 -108 189 -108 229 -73 c 1,0,-1
EndSplineSet
EndChar

StartChar: tilde
Encoding: 732 732 210
Width: 332
GlyphClass: 3
Flags: W
LayerCount: 2
Fore
SplineSet
302 639 m 1,0,-1
 331 639 l 1,1,2
 316 581 316 581 291.5 556.5 c 128,-1,3
 267 532 267 532 226 532 c 0,4,5
 195 532 195 532 147 555.5 c 128,-1,6
 99 579 99 579 81 579 c 0,7,8
 48 579 48 579 29 532 c 1,9,-1
 1 532 l 1,10,11
 24 633 24 633 103 633 c 0,12,13
 134 633 134 633 182 610 c 128,-1,14
 230 587 230 587 249 587 c 0,15,16
 266 587 266 587 278 598.5 c 128,-1,17
 290 610 290 610 302 639 c 1,0,-1
EndSplineSet
EndChar

StartChar: hungarumlaut
Encoding: 733 733 211
Width: 332
GlyphClass: 3
Flags: W
LayerCount: 2
Fore
SplineSet
193 507 m 1,0,-1
 152 507 l 1,1,-1
 300 655 l 2,2,3
 322 678 322 678 343 678 c 0,4,5
 376 678 376 678 376 646 c 0,6,7
 376 622 376 622 347 603 c 2,8,-1
 193 507 l 1,0,-1
37 507 m 1,9,-1
 -3 507 l 1,10,-1
 144 655 l 2,11,12
 167 678 167 678 186 678 c 0,13,14
 221 678 221 678 221 646 c 0,15,16
 221 623 221 623 190 603 c 2,17,-1
 37 507 l 1,9,-1
EndSplineSet
EndChar

StartChar: uni0E01
Encoding: 3585 3585 212
Width: 591
GlyphClass: 2
Flags: W
LayerCount: 2
Fore
SplineSet
85 0 m 1,0,-1
 85 283 l 2,1,2
 85 376 85 376 168 400 c 1,3,4
 122 429 122 429 44 429 c 1,5,6
 59 481 59 481 127 522.5 c 128,-1,7
 195 564 195 564 267 564 c 0,8,9
 368 564 368 564 430 516 c 128,-1,10
 492 468 492 468 492 379 c 2,11,-1
 492 0 l 1,12,-1
 416 0 l 1,13,-1
 416 379 l 2,14,15
 416 441 416 441 373 478.5 c 128,-1,16
 330 516 330 516 265 516 c 0,17,18
 161 516 161 516 104 454 c 1,19,20
 179 454 179 454 226 390 c 1,21,22
 161 369 161 369 161 303 c 2,23,-1
 161 0 l 1,24,-1
 85 0 l 1,0,-1
EndSplineSet
EndChar

StartChar: uni0E02
Encoding: 3586 3586 213
Width: 515
GlyphClass: 2
Flags: W
LayerCount: 2
Fore
SplineSet
284 448 m 0,0,1
 284 414 284 414 243 348 c 128,-1,2
 202 282 202 282 202 258 c 2,3,-1
 202 28 l 1,4,-1
 289 28 l 2,5,6
 340 28 340 28 340 81 c 2,7,-1
 340 551 l 1,8,-1
 416 551 l 1,9,-1
 416 81 l 2,10,11
 416 0 416 0 352 0 c 2,12,-1
 70 0 l 1,13,-1
 70 28 l 1,14,-1
 127 28 l 1,15,-1
 127 256 l 2,16,17
 127 294 127 294 151.5 335 c 128,-1,18
 176 376 176 376 201 413 c 128,-1,19
 226 450 226 450 226 478 c 0,20,21
 226 502 226 502 204.5 517.5 c 128,-1,22
 183 533 183 533 152 533 c 0,23,24
 120 533 120 533 101 520 c 1,25,26
 127 520 127 520 142.5 495.5 c 128,-1,27
 158 471 158 471 158 434 c 0,28,29
 158 401 158 401 140.5 374 c 128,-1,30
 123 347 123 347 95 347 c 0,31,32
 69 347 69 347 49 375 c 128,-1,33
 29 403 29 403 29 434 c 0,34,35
 29 490 29 490 63 527 c 128,-1,36
 97 564 97 564 152 564 c 0,37,38
 211 564 211 564 247.5 532.5 c 128,-1,39
 284 501 284 501 284 448 c 0,0,1
133 434 m 0,40,41
 133 457 133 457 122 474 c 128,-1,42
 111 491 111 491 95 491 c 0,43,44
 57 491 57 491 57 434 c 0,45,46
 57 412 57 412 68 393 c 128,-1,47
 79 374 79 374 95 374 c 0,48,49
 109 374 109 374 121 393.5 c 128,-1,50
 133 413 133 413 133 434 c 0,40,41
EndSplineSet
EndChar

StartChar: uni0E03
Encoding: 3587 3587 214
Width: 574
GlyphClass: 2
Flags: W
LayerCount: 2
Fore
SplineSet
337 463 m 0,0,1
 337 439 337 439 297.5 367.5 c 128,-1,2
 258 296 258 296 258 256 c 2,3,-1
 258 28 l 1,4,-1
 344 28 l 2,5,6
 362 28 362 28 380 45 c 128,-1,7
 398 62 398 62 398 81 c 2,8,-1
 398 552 l 1,9,-1
 475 552 l 1,10,-1
 475 81 l 2,11,12
 475 49 475 49 457.5 24.5 c 128,-1,13
 440 0 440 0 412 0 c 2,14,-1
 129 0 l 1,15,-1
 129 28 l 1,16,-1
 182 28 l 1,17,-1
 182 255 l 2,18,19
 182 310 182 310 233 390 c 0,20,21
 237 395 237 395 244.5 404.5 c 128,-1,22
 252 414 252 414 255 418 c 128,-1,23
 258 422 258 422 263.5 429.5 c 128,-1,24
 269 437 269 437 271.5 440 c 128,-1,25
 274 443 274 443 277.5 449 c 128,-1,26
 281 455 281 455 282.5 458 c 128,-1,27
 284 461 284 461 286 465.5 c 128,-1,28
 288 470 288 470 288.5 474 c 128,-1,29
 289 478 289 478 289 482 c 0,30,31
 289 533 289 533 246 533 c 0,32,33
 201 533 201 533 201 467 c 1,34,-1
 179 467 l 1,35,36
 179 497 179 497 160.5 515 c 128,-1,37
 142 533 142 533 127 533 c 0,38,39
 96 533 96 533 91 520 c 1,40,41
 125 520 125 520 142.5 494 c 128,-1,42
 160 468 160 468 160 428 c 0,43,44
 160 395 160 395 141.5 368 c 128,-1,45
 123 341 123 341 94 341 c 0,46,47
 68 341 68 341 47 366.5 c 128,-1,48
 26 392 26 392 26 428 c 0,49,50
 26 480 26 480 53.5 522 c 128,-1,51
 81 564 81 564 127 564 c 0,52,53
 169 564 169 564 189 527 c 1,54,55
 208 564 208 564 246 564 c 0,56,57
 286 564 286 564 311.5 537 c 128,-1,58
 337 510 337 510 337 463 c 0,0,1
133 428 m 128,-1,60
 133 453 133 453 122 472 c 128,-1,61
 111 491 111 491 91 491 c 0,62,63
 75 491 75 491 64.5 472.5 c 128,-1,64
 54 454 54 454 54 428 c 0,65,66
 54 403 54 403 67 387.5 c 128,-1,67
 80 372 80 372 97 372 c 0,68,69
 112 372 112 372 122.5 387.5 c 128,-1,59
 133 403 133 403 133 428 c 128,-1,60
EndSplineSet
EndChar

StartChar: uni0E04
Encoding: 3588 3588 215
Width: 568
GlyphClass: 2
Flags: W
LayerCount: 2
Fore
SplineSet
120 60 m 2,0,1
 120 113 120 113 97 173 c 128,-1,2
 74 233 74 233 51.5 284.5 c 128,-1,3
 29 336 29 336 29 368 c 0,4,5
 29 464 29 464 90.5 514 c 128,-1,6
 152 564 152 564 259 564 c 0,7,8
 353 564 353 564 411 524 c 128,-1,9
 469 484 469 484 469 404 c 2,10,-1
 469 0 l 1,11,-1
 393 0 l 1,12,-1
 393 404 l 2,13,14
 393 455 393 455 354.5 485.5 c 128,-1,15
 316 516 316 516 258 516 c 0,16,17
 82 516 82 516 82 371 c 0,18,19
 82 349 82 349 90.5 325 c 128,-1,20
 99 301 99 301 105.5 290.5 c 128,-1,21
 112 280 112 280 133 246 c 1,22,23
 133 404 133 404 236 404 c 0,24,25
 272 404 272 404 293.5 378.5 c 128,-1,26
 315 353 315 353 315 313 c 0,27,28
 315 280 315 280 294.5 253 c 128,-1,29
 274 226 274 226 242 226 c 0,30,31
 226 226 226 226 202 245 c 1,32,33
 196 227 196 227 196 186 c 0,34,35
 196 172 196 172 197.5 135 c 128,-1,36
 199 98 199 98 199 78 c 0,37,38
 199 28 199 28 193 0 c 1,39,-1
 117 0 l 1,40,-1
 120 44 l 1,41,-1
 120 60 l 2,0,1
284 313 m 0,42,43
 284 339 284 339 273 354 c 128,-1,44
 262 369 262 369 248 369 c 0,45,46
 231 369 231 369 219.5 354.5 c 128,-1,47
 208 340 208 340 208 313 c 0,48,49
 208 282 208 282 219 268.5 c 128,-1,50
 230 255 230 255 245 255 c 0,51,52
 262 255 262 255 273 272.5 c 128,-1,53
 284 290 284 290 284 313 c 0,42,43
EndSplineSet
EndChar

StartChar: uni0E05
Encoding: 3589 3589 216
Width: 580
GlyphClass: 2
Flags: W
LayerCount: 2
Fore
SplineSet
123 60 m 2,0,1
 123 113 123 113 105 160.5 c 128,-1,2
 87 208 87 208 63 267.5 c 128,-1,3
 39 327 39 327 29 397 c 1,4,5
 29 468 29 468 65.5 516 c 128,-1,6
 102 564 102 564 164 564 c 0,7,8
 230 564 230 564 250 516 c 1,9,10
 276 564 276 564 337 564 c 0,11,12
 400 564 400 564 440 528 c 128,-1,13
 480 492 480 492 480 432 c 2,14,-1
 480 0 l 1,15,-1
 404 0 l 1,16,-1
 404 435 l 2,17,18
 404 468 404 468 384.5 492 c 128,-1,19
 365 516 365 516 333 516 c 0,20,21
 275 516 275 516 261 453 c 1,22,-1
 240 453 l 1,23,24
 226 516 226 516 174 516 c 0,25,26
 79 516 79 516 79 398 c 0,27,28
 79 373 79 373 87.5 346.5 c 128,-1,29
 96 320 96 320 106 300.5 c 128,-1,30
 116 281 116 281 136 246 c 1,31,32
 136 404 136 404 239 404 c 0,33,34
 274 404 274 404 296 378.5 c 128,-1,35
 318 353 318 353 318 313 c 0,36,37
 318 280 318 280 297.5 253 c 128,-1,38
 277 226 277 226 245 226 c 0,39,40
 229 226 229 226 205 245 c 1,41,42
 199 227 199 227 199 186 c 0,43,44
 199 172 199 172 200.5 135 c 128,-1,45
 202 98 202 98 202 78 c 0,46,47
 202 28 202 28 196 0 c 1,48,-1
 120 0 l 1,49,-1
 123 44 l 1,50,-1
 123 60 l 2,0,1
287 313 m 0,51,52
 287 339 287 339 276 354 c 128,-1,53
 265 369 265 369 250 369 c 0,54,55
 233 369 233 369 222 354.5 c 128,-1,56
 211 340 211 340 211 313 c 0,57,58
 211 255 211 255 248 255 c 0,59,60
 265 255 265 255 276 272.5 c 128,-1,61
 287 290 287 290 287 313 c 0,51,52
EndSplineSet
EndChar

StartChar: uni0E06
Encoding: 3590 3590 217
Width: 644
GlyphClass: 2
Flags: W
LayerCount: 2
Fore
SplineSet
356 463 m 0,0,1
 356 438 356 438 337 406 c 128,-1,2
 318 374 318 374 299 335.5 c 128,-1,3
 280 297 280 297 280 256 c 2,4,-1
 280 234 l 1,5,6
 335 234 335 234 389.5 200.5 c 128,-1,7
 444 167 444 167 469 116 c 1,8,-1
 469 552 l 1,9,-1
 545 552 l 1,10,-1
 545 0 l 1,11,-1
 463 0 l 1,12,13
 438 81 438 81 390.5 129.5 c 128,-1,14
 343 178 343 178 280 193 c 1,15,-1
 280 81 l 2,16,17
 280 -4 280 -4 205 -4 c 0,18,19
 157 -4 157 -4 127 28 c 128,-1,20
 97 60 97 60 97 110 c 0,21,22
 97 157 97 157 127 191 c 128,-1,23
 157 225 157 225 204 233 c 1,24,-1
 204 255 l 2,25,26
 204 322 204 322 252 388 c 0,27,28
 300 458 300 458 300 478 c 0,29,30
 300 533 300 533 259 533 c 0,31,32
 239 533 239 533 226.5 512.5 c 128,-1,33
 214 492 214 492 214 467 c 1,34,-1
 193 467 l 1,35,36
 193 532 193 532 146 535 c 2,37,-1
 141 535 l 2,38,39
 121 535 121 535 107 521 c 1,40,41
 136 521 136 521 152 498.5 c 128,-1,42
 168 476 168 476 168 437 c 0,43,44
 168 403 168 403 149.5 374.5 c 128,-1,45
 131 346 131 346 103 346 c 128,-1,46
 75 346 75 346 56 371.5 c 128,-1,47
 37 397 37 397 37 437 c 0,48,49
 37 487 37 487 68.5 525.5 c 128,-1,50
 100 564 100 564 146 564 c 0,51,52
 190 564 190 564 205 524 c 1,53,54
 214 558 214 558 264 564 c 1,55,56
 314 564 314 564 335 538.5 c 128,-1,57
 356 513 356 513 356 463 c 0,0,1
204 190 m 1,58,59
 170 185 170 185 153 163 c 128,-1,60
 136 141 136 141 136 108 c 0,61,62
 136 62 136 62 170 62 c 128,-1,63
 204 62 204 62 204 91 c 2,64,-1
 204 190 l 1,58,59
138 437 m 0,65,66
 138 462 138 462 128.5 478 c 128,-1,67
 119 494 119 494 103 494 c 0,68,69
 86 494 86 494 76.5 478.5 c 128,-1,70
 67 463 67 463 67 437 c 0,71,72
 67 375 67 375 103 375 c 0,73,74
 119 375 119 375 128.5 392 c 128,-1,75
 138 409 138 409 138 437 c 0,65,66
EndSplineSet
EndChar

StartChar: uni0E07
Encoding: 3591 3591 218
Width: 446
GlyphClass: 2
Flags: W
LayerCount: 2
Fore
SplineSet
347 0 m 1,0,-1
 271 0 l 1,1,-1
 0 369 l 1,2,-1
 18 387 l 1,3,-1
 271 98 l 1,4,-1
 271 416 l 1,5,6
 267 401 267 401 254 392.5 c 128,-1,7
 241 384 241 384 229 384 c 0,8,9
 202 384 202 384 181.5 411 c 128,-1,10
 161 438 161 438 161 470 c 0,11,12
 161 513 161 513 185 538.5 c 128,-1,13
 209 564 209 564 249 564 c 0,14,15
 296 564 296 564 321.5 536.5 c 128,-1,16
 347 509 347 509 347 461 c 2,17,-1
 347 0 l 1,0,-1
268 470 m 0,18,19
 268 497 268 497 257 515 c 128,-1,20
 246 533 246 533 229 533 c 0,21,22
 213 533 213 533 201 513.5 c 128,-1,23
 189 494 189 494 189 470 c 0,24,25
 189 447 189 447 201.5 429.5 c 128,-1,26
 214 412 214 412 229 412 c 128,-1,27
 244 412 244 412 256 428 c 128,-1,28
 268 444 268 444 268 470 c 0,18,19
EndSplineSet
EndChar

StartChar: uni0E08
Encoding: 3592 3592 219
Width: 467
GlyphClass: 2
Flags: W
LayerCount: 2
Fore
SplineSet
368 0 m 1,0,-1
 294 0 l 1,1,2
 294 95 294 95 267 198.5 c 128,-1,3
 240 302 240 302 202 334 c 1,4,5
 207 322 207 322 207 293 c 0,6,7
 207 256 207 256 190 231.5 c 128,-1,8
 173 207 173 207 144 207 c 0,9,10
 117 207 117 207 99 232 c 128,-1,11
 81 257 81 257 81 293 c 0,12,13
 81 333 81 333 102.5 360.5 c 128,-1,14
 124 388 124 388 161 388 c 0,15,16
 245 388 245 388 296 262 c 1,17,-1
 296 394 l 2,18,19
 296 449 296 449 258.5 482.5 c 128,-1,20
 221 516 221 516 164 516 c 0,21,22
 78 516 78 516 13 426 c 1,23,-1
 -4 437 l 1,24,25
 64 564 64 564 190 564 c 0,26,27
 263 564 263 564 315.5 522.5 c 128,-1,28
 368 481 368 481 368 410 c 2,29,-1
 368 0 l 1,0,-1
108 293 m 0,30,31
 108 267 108 267 119 250 c 128,-1,32
 130 233 130 233 144 233 c 0,33,34
 159 233 159 233 169.5 249.5 c 128,-1,35
 180 266 180 266 180 293 c 0,36,37
 180 354 180 354 144 354 c 0,38,39
 129 354 129 354 118.5 337 c 128,-1,40
 108 320 108 320 108 293 c 0,30,31
EndSplineSet
EndChar

StartChar: uni0E09
Encoding: 3593 3593 220
Width: 670
GlyphClass: 2
Flags: W
AnchorPoint: "Anchor-1" 495 615 basechar 0
LayerCount: 2
Fore
SplineSet
145 0 m 1,0,-1
 145 229 l 1,1,2
 131 205 131 205 103 205 c 0,3,4
 71 205 71 205 54 230 c 128,-1,5
 37 255 37 255 37 289 c 0,6,7
 37 334 37 334 58 360.5 c 128,-1,8
 79 387 79 387 120 387 c 0,9,10
 167 387 167 387 194 359 c 128,-1,11
 221 331 221 331 221 283 c 2,12,-1
 221 117 l 1,13,14
 272 215 272 215 404 236 c 1,15,-1
 404 376 l 2,16,17
 404 445 404 445 364 480.5 c 128,-1,18
 324 516 324 516 253 516 c 0,19,20
 138 516 138 516 66 422 c 1,21,-1
 48 431 l 1,22,23
 73 491 73 491 131 527.5 c 128,-1,24
 189 564 189 564 258 564 c 0,25,26
 349 564 349 564 413 526 c 0,27,28
 480 488 480 488 480 391 c 2,29,-1
 480 233 l 1,30,31
 571 218 571 218 571 111 c 0,32,33
 571 -4 571 -4 479 -4 c 0,34,35
 404 -4 404 -4 404 81 c 2,36,-1
 404 195 l 1,37,38
 343 185 343 185 296 134.5 c 128,-1,39
 249 84 249 84 224 0 c 1,40,-1
 145 0 l 1,0,-1
143 289 m 0,41,42
 143 352 143 352 103 352 c 0,43,44
 88 352 88 352 77 335.5 c 128,-1,45
 66 319 66 319 66 289 c 0,46,47
 66 227 66 227 105 227 c 0,48,49
 123 227 123 227 133 244.5 c 128,-1,50
 143 262 143 262 143 289 c 0,41,42
480 193 m 1,51,-1
 480 91 l 2,52,53
 480 62 480 62 502 62 c 0,54,55
 533 62 533 62 533 110 c 0,56,57
 533 177 533 177 480 193 c 1,51,-1
EndSplineSet
EndChar

StartChar: uni0E0A
Encoding: 3594 3594 221
Width: 520
GlyphClass: 2
Flags: W
LayerCount: 2
Fore
SplineSet
130 253 m 2,0,1
 130 302 130 302 155 345 c 128,-1,2
 180 388 180 388 204.5 419.5 c 128,-1,3
 229 451 229 451 229 472 c 0,4,5
 229 533 229 533 160 533 c 0,6,7
 129 533 129 533 107 520 c 1,8,9
 129 520 129 520 144.5 492 c 128,-1,10
 160 464 160 464 160 431 c 0,11,12
 160 397 160 397 142 369 c 128,-1,13
 124 341 124 341 95 341 c 0,14,15
 67 341 67 341 48 365 c 128,-1,16
 29 389 29 389 29 431 c 0,17,18
 29 488 29 488 66 526 c 128,-1,19
 103 564 103 564 160 564 c 0,20,21
 270 564 270 564 290 464 c 1,22,23
 338 488 338 488 338 580 c 2,24,-1
 338 598 l 1,25,-1
 420 598 l 1,26,-1
 420 580 l 2,27,28
 420 518 420 518 398.5 487 c 128,-1,29
 377 456 377 456 322 444 c 1,30,31
 365 444 365 444 394 394 c 1,32,33
 420 358 420 358 420 308 c 2,34,-1
 420 79 l 2,35,36
 420 49 420 49 401.5 24.5 c 128,-1,37
 383 0 383 0 356 0 c 2,38,-1
 75 0 l 1,39,-1
 75 29 l 1,40,-1
 130 29 l 1,41,-1
 130 253 l 2,0,1
130 431 m 0,42,43
 130 455 130 455 121 472 c 128,-1,44
 112 489 112 489 95 489 c 0,45,46
 81 489 81 489 69 472 c 128,-1,47
 57 455 57 455 57 431 c 0,48,49
 57 400 57 400 67.5 382.5 c 128,-1,50
 78 365 78 365 95 365 c 0,51,52
 130 365 130 365 130 431 c 0,42,43
283 419 m 1,53,54
 283 416 283 416 281 411.5 c 128,-1,55
 279 407 279 407 273.5 399 c 128,-1,56
 268 391 268 391 262.5 383.5 c 128,-1,57
 257 376 257 376 247 362 c 128,-1,58
 237 348 237 348 229 337 c 0,59,60
 207 305 207 305 207 256 c 2,61,-1
 207 29 l 1,62,-1
 291 29 l 2,63,64
 310 29 310 29 327 44.5 c 128,-1,65
 344 60 344 60 344 78 c 2,66,-1
 344 308 l 2,67,68
 344 391 344 391 283 419 c 1,53,54
EndSplineSet
EndChar

StartChar: uni0E0B
Encoding: 3595 3595 222
Width: 574
GlyphClass: 2
Flags: W
LayerCount: 2
Fore
SplineSet
182 255 m 2,0,1
 182 292 182 292 198.5 329.5 c 128,-1,2
 215 367 215 367 235.5 391.5 c 128,-1,3
 256 416 256 416 272.5 441.5 c 128,-1,4
 289 467 289 467 289 482 c 0,5,6
 289 533 289 533 246 533 c 0,7,8
 201 533 201 533 201 467 c 1,9,-1
 179 467 l 1,10,11
 179 497 179 497 160.5 515 c 128,-1,12
 142 533 142 533 127 533 c 0,13,14
 96 533 96 533 91 520 c 1,15,16
 125 520 125 520 142.5 493.5 c 128,-1,17
 160 467 160 467 160 428 c 0,18,19
 160 395 160 395 141.5 368 c 128,-1,20
 123 341 123 341 94 341 c 0,21,22
 68 341 68 341 47 366.5 c 128,-1,23
 26 392 26 392 26 428 c 0,24,25
 26 480 26 480 53.5 522 c 128,-1,26
 81 564 81 564 127 564 c 0,27,28
 169 564 169 564 189 527 c 1,29,30
 208 564 208 564 246 564 c 0,31,32
 285 564 285 564 310.5 537 c 128,-1,33
 336 510 336 510 337 464 c 1,34,-1
 338 464 l 2,35,36
 363 464 363 464 377 498.5 c 128,-1,37
 391 533 391 533 391 583 c 2,38,-1
 391 599 l 1,39,-1
 475 599 l 1,40,-1
 475 583 l 2,41,42
 475 462 475 462 376 450 c 1,43,44
 424 450 424 450 449.5 414 c 128,-1,45
 475 378 475 378 475 311 c 2,46,-1
 475 81 l 2,47,48
 475 46 475 46 457 23 c 128,-1,49
 439 0 439 0 410 0 c 2,50,-1
 129 0 l 1,51,-1
 129 28 l 1,52,-1
 182 28 l 1,53,-1
 182 255 l 2,0,1
330 429 m 1,54,55
 317 393 317 393 294 362 c 1,56,57
 258 296 258 296 258 256 c 2,58,-1
 258 28 l 1,59,-1
 346 28 l 2,60,61
 363 28 363 28 380.5 44.5 c 128,-1,62
 398 61 398 61 398 81 c 2,63,-1
 398 311 l 2,64,65
 396 420 396 420 330 429 c 1,54,55
133 428 m 128,-1,67
 133 453 133 453 122 472 c 128,-1,68
 111 491 111 491 91 491 c 0,69,70
 75 491 75 491 64.5 472.5 c 128,-1,71
 54 454 54 454 54 428 c 0,72,73
 54 403 54 403 67 387.5 c 128,-1,74
 80 372 80 372 97 372 c 0,75,76
 112 372 112 372 122.5 387.5 c 128,-1,66
 133 403 133 403 133 428 c 128,-1,67
EndSplineSet
EndChar

StartChar: uni0E0C
Encoding: 3596 3596 223
Width: 793
GlyphClass: 2
Flags: W
LayerCount: 2
Fore
SplineSet
694 554 m 1,0,-1
 694 0 l 1,1,-1
 614 0 l 1,2,3
 614 75 614 75 574 128.5 c 128,-1,4
 534 182 534 182 483 190 c 1,5,-1
 483 78 l 2,6,7
 483 -7 483 -7 407 -7 c 0,8,9
 356 -7 356 -7 328 23 c 128,-1,10
 300 53 300 53 300 105 c 0,11,12
 300 201 300 201 407 230 c 1,13,-1
 407 376 l 2,14,15
 407 440 407 440 364.5 478 c 128,-1,16
 322 516 322 516 256 516 c 0,17,18
 155 516 155 516 95 453 c 1,19,20
 172 453 172 453 218 390 c 1,21,22
 154 370 154 370 154 303 c 2,23,-1
 154 146 l 1,24,25
 168 170 168 170 199 170 c 0,26,27
 232 170 232 170 247 143 c 128,-1,28
 262 116 262 116 262 78 c 0,29,30
 262 -9 262 -9 177 -9 c 0,31,32
 130 -9 130 -9 104 17.5 c 128,-1,33
 78 44 78 44 78 91 c 2,34,-1
 78 283 l 2,35,36
 78 373 78 373 164 400 c 1,37,38
 126 429 126 429 44 429 c 1,39,40
 59 481 59 481 123 522.5 c 128,-1,41
 187 564 187 564 258 564 c 0,42,43
 361 564 361 564 422 516 c 128,-1,44
 483 468 483 468 483 376 c 2,45,-1
 483 233 l 1,46,47
 569 222 569 222 618 163 c 1,48,-1
 618 554 l 1,49,-1
 694 554 l 1,0,-1
407 190 m 1,50,51
 335 180 335 180 335 104 c 0,52,53
 335 51 335 51 372 50 c 0,54,55
 407 47 407 47 407 103 c 2,56,-1
 407 190 l 1,50,51
237 78 m 0,57,58
 237 101 237 101 228 121 c 128,-1,59
 219 141 219 141 198 141 c 0,60,61
 161 141 161 141 161 75 c 0,62,63
 161 52 161 52 171.5 37 c 128,-1,64
 182 22 182 22 199 22 c 0,65,66
 237 22 237 22 237 78 c 0,57,58
EndSplineSet
EndChar

StartChar: uni0E0D
Encoding: 3597 3597 224
Width: 795
GlyphClass: 2
Flags: W
LayerCount: 2
Fore
SplineSet
696 554 m 1,0,-1
 696 81 l 2,1,2
 696 0 696 0 631 0 c 2,3,-1
 401 0 l 1,4,-1
 401 376 l 2,5,6
 401 437 401 437 359.5 476.5 c 128,-1,7
 318 516 318 516 256 516 c 0,8,9
 152 516 152 516 95 454 c 1,10,11
 169 454 169 454 218 390 c 1,12,13
 154 370 154 370 154 303 c 2,14,-1
 154 138 l 1,15,16
 171 161 171 161 201 161 c 0,17,18
 227 161 227 161 244.5 138.5 c 128,-1,19
 262 116 262 116 262 75 c 0,20,21
 262 -9 262 -9 171 -9 c 0,22,23
 126 -9 126 -9 102 17 c 128,-1,24
 78 43 78 43 78 91 c 2,25,-1
 78 284 l 2,26,27
 78 373 78 373 164 400 c 1,28,29
 126 429 126 429 44 429 c 1,30,31
 58 483 58 483 122 523.5 c 128,-1,32
 186 564 186 564 258 564 c 0,33,34
 478 564 478 564 478 376 c 2,35,-1
 478 28 l 1,36,-1
 567 28 l 2,37,38
 590 28 590 28 605 41.5 c 128,-1,39
 620 55 620 55 620 81 c 2,40,-1
 620 554 l 1,41,-1
 696 554 l 1,0,-1
239 75 m 0,42,43
 239 99 239 99 227.5 115.5 c 128,-1,44
 216 132 216 132 201 132 c 128,-1,45
 186 132 186 132 172 115 c 128,-1,46
 158 98 158 98 158 73 c 0,47,48
 158 53 158 53 169 36 c 128,-1,49
 180 19 180 19 201 19 c 0,50,51
 216 19 216 19 227.5 34.5 c 128,-1,52
 239 50 239 50 239 75 c 0,42,43
696 -66 m 1,53,54
 696 -286 696 -286 532 -286 c 0,55,56
 475 -286 475 -286 436.5 -249 c 128,-1,57
 398 -212 398 -212 398 -157 c 0,58,59
 398 -117 398 -117 422.5 -91.5 c 128,-1,60
 447 -66 447 -66 485 -66 c 0,61,62
 513 -66 513 -66 530.5 -90 c 128,-1,63
 548 -114 548 -114 548 -146 c 128,-1,64
 548 -178 548 -178 530.5 -202.5 c 128,-1,65
 513 -227 513 -227 485 -227 c 2,66,-1
 473 -226 l 1,67,68
 501 -258 501 -258 545 -258 c 0,69,70
 580 -258 580 -258 612 -202 c 0,71,72
 624 -181 624 -181 625.5 -139.5 c 128,-1,73
 627 -98 627 -98 624 -66 c 1,74,-1
 696 -66 l 1,53,54
485 -89 m 0,75,76
 469 -89 469 -89 458 -106 c 128,-1,77
 447 -123 447 -123 447 -146 c 0,78,79
 447 -170 447 -170 458 -186.5 c 128,-1,80
 469 -203 469 -203 485 -205 c 0,81,82
 524 -205 524 -205 524 -146 c 0,83,84
 524 -125 524 -125 513 -107 c 128,-1,85
 502 -89 502 -89 485 -89 c 0,75,76
EndSplineSet
Substitution2: "Single Substitution lookup 6 subtable" uni0E0D.descless
Substitution2: "'ccmp' Glyph Composition/Decomposition in Thai lookup 4 subtable" uni0E0D.descless
EndChar

StartChar: uni0E0E
Encoding: 3598 3598 225
Width: 626
GlyphClass: 2
Flags: W
AnchorPoint: "Anchor-0" 527 -246 basechar 0
LayerCount: 2
Fore
SplineSet
527 -236 m 1,0,-1
 447 -236 l 1,1,2
 415 -182 415 -182 357 -133 c 1,3,4
 349 -164 349 -164 314.5 -193.5 c 128,-1,5
 280 -223 280 -223 223 -223 c 0,6,7
 176 -223 176 -223 142 -202 c 128,-1,8
 108 -181 108 -181 108 -139 c 0,9,10
 108 -94 108 -94 145.5 -67 c 128,-1,11
 183 -40 183 -40 234 -40 c 0,12,13
 281 -40 281 -40 333 -60 c 1,14,15
 337 -51 337 -51 338 0 c 1,16,-1
 382 0 l 1,17,18
 380 -17 380 -17 378.5 -34.5 c 128,-1,19
 377 -52 377 -52 375.5 -62.5 c 128,-1,20
 374 -73 374 -73 374 -78 c 1,21,22
 379 -78 379 -78 451 -132 c 1,23,-1
 451 376 l 2,24,25
 451 440 451 440 417.5 478 c 128,-1,26
 384 516 384 516 322 516 c 0,27,28
 218 516 218 516 161 454 c 1,29,30
 236 454 236 454 283 390 c 1,31,32
 218 369 218 369 218 303 c 2,33,-1
 218 100 l 2,34,35
 218 42 218 42 195.5 16.5 c 128,-1,36
 173 -9 173 -9 119 -9 c 0,37,38
 78 -9 78 -9 53.5 15 c 128,-1,39
 29 39 29 39 29 79 c 0,40,41
 29 116 29 116 49 143 c 128,-1,42
 69 170 69 170 101 170 c 0,43,44
 118 170 118 170 142 152 c 1,45,-1
 142 283 l 2,46,47
 142 376 142 376 226 400 c 1,48,49
 179 429 179 429 101 429 c 1,50,51
 117 481 117 481 185 522.5 c 128,-1,52
 253 564 253 564 324 564 c 0,53,54
 416 564 416 564 471.5 516 c 128,-1,55
 527 468 527 468 527 376 c 2,56,-1
 527 -236 l 1,0,-1
322 -108 m 1,57,58
 291 -81 291 -81 229 -81 c 0,59,60
 193 -81 193 -81 167.5 -97 c 128,-1,61
 142 -113 142 -113 142 -138 c 0,62,63
 142 -190 142 -190 220 -190 c 0,64,65
 255 -190 255 -190 286.5 -167.5 c 128,-1,66
 318 -145 318 -145 322 -108 c 1,57,58
142 79 m 0,67,68
 142 105 142 105 130.5 120.5 c 128,-1,69
 119 136 119 136 100 136 c 128,-1,70
 81 136 81 136 70 118 c 128,-1,71
 59 100 59 100 59 79 c 0,72,73
 59 52 59 52 71.5 36.5 c 128,-1,74
 84 21 84 21 100 21 c 0,75,76
 118 21 118 21 130 36 c 128,-1,77
 142 51 142 51 142 79 c 0,67,68
EndSplineSet
EndChar

StartChar: uni0E0F
Encoding: 3599 3599 226
Width: 626
GlyphClass: 2
Flags: W
AnchorPoint: "Anchor-0" 527 -246 basechar 0
LayerCount: 2
Fore
SplineSet
527 -237 m 1,0,-1
 457 -237 l 1,1,-1
 401 -135 l 1,2,-1
 357 -237 l 1,3,-1
 324 -237 l 1,4,5
 315 -173 315 -173 286 -135 c 1,6,7
 268 -211 268 -211 190 -211 c 0,8,9
 150 -211 150 -211 119.5 -187.5 c 128,-1,10
 89 -164 89 -164 89 -129 c 0,11,12
 89 -91 89 -91 119.5 -66.5 c 128,-1,13
 150 -42 150 -42 192 -42 c 0,14,15
 220 -42 220 -42 237 -46.5 c 128,-1,16
 254 -51 254 -51 274 -66 c 1,17,18
 280 -44 280 -44 280 0 c 1,19,-1
 309 0 l 1,20,-1
 309 -18 l 2,21,22
 309 -51 309 -51 303 -85 c 1,23,24
 325 -104 325 -104 356 -141 c 1,25,-1
 400 -42 l 1,26,-1
 451 -136 l 1,27,-1
 451 376 l 2,28,29
 451 440 451 440 417.5 478 c 128,-1,30
 384 516 384 516 322 516 c 0,31,32
 218 516 218 516 161 454 c 1,33,34
 236 454 236 454 283 390 c 1,35,36
 254 381 254 381 236 358 c 128,-1,37
 218 335 218 335 218 302 c 2,38,-1
 218 98 l 2,39,40
 218 46 218 46 196 18.5 c 128,-1,41
 174 -9 174 -9 119 -9 c 0,42,43
 78 -9 78 -9 53.5 15 c 128,-1,44
 29 39 29 39 29 79 c 0,45,46
 29 116 29 116 49 143 c 128,-1,47
 69 170 69 170 101 170 c 0,48,49
 131 170 131 170 142 151 c 1,50,-1
 142 283 l 2,51,52
 142 376 142 376 226 400 c 1,53,54
 179 429 179 429 101 429 c 1,55,56
 117 481 117 481 185 522.5 c 128,-1,57
 253 564 253 564 324 564 c 0,58,59
 420 564 420 564 473.5 514 c 128,-1,60
 527 464 527 464 527 376 c 2,61,-1
 527 -237 l 1,0,-1
262 -111 m 1,62,63
 239 -81 239 -81 186 -81 c 0,64,65
 125 -81 125 -81 125 -130 c 0,66,67
 125 -151 125 -151 145 -166.5 c 128,-1,68
 165 -182 165 -182 190 -182 c 0,69,70
 244 -182 244 -182 262 -111 c 1,62,63
142 79 m 0,71,72
 142 105 142 105 130.5 120.5 c 128,-1,73
 119 136 119 136 100 136 c 128,-1,74
 81 136 81 136 70 118 c 128,-1,75
 59 100 59 100 59 79 c 0,76,77
 59 52 59 52 71.5 36.5 c 128,-1,78
 84 21 84 21 100 21 c 0,79,80
 118 21 118 21 130 36 c 128,-1,81
 142 51 142 51 142 79 c 0,71,72
EndSplineSet
EndChar

StartChar: uni0E10
Encoding: 3600 3600 227
Width: 521
GlyphClass: 2
Flags: W
LayerCount: 2
Fore
SplineSet
338 463 m 0,0,1
 313 463 313 463 255.5 481 c 128,-1,2
 198 499 198 499 183 499 c 0,3,4
 97 499 97 499 78 437 c 1,5,6
 98 439 98 439 135 439 c 0,7,8
 231 439 231 439 295 400.5 c 128,-1,9
 359 362 359 362 359 289 c 2,10,-1
 359 0 l 1,11,-1
 283 0 l 1,12,13
 283 204 283 204 205 272 c 1,14,15
 212 254 212 254 212 234 c 0,16,17
 212 202 212 202 194 178.5 c 128,-1,18
 176 155 176 155 148 155 c 0,19,20
 123 155 123 155 104 181 c 128,-1,21
 85 207 85 207 85 237 c 0,22,23
 85 275 85 275 105.5 298.5 c 128,-1,24
 126 322 126 322 166 322 c 0,25,26
 205 322 205 322 236 300 c 128,-1,27
 267 278 267 278 283 236 c 1,28,-1
 283 287 l 2,29,30
 283 325 283 325 262.5 350.5 c 128,-1,31
 242 376 242 376 203.5 388 c 128,-1,32
 165 400 165 400 124.5 404.5 c 128,-1,33
 84 409 84 409 29 409 c 1,34,35
 38 474 38 474 82 519 c 128,-1,36
 126 564 126 564 186 564 c 0,37,38
 225 564 225 564 259.5 549 c 128,-1,39
 294 534 294 534 318 519.5 c 128,-1,40
 342 505 342 505 356 505 c 0,41,42
 379 505 379 505 392 518 c 128,-1,43
 405 531 405 531 416 557 c 1,44,-1
 447 557 l 1,45,46
 420 463 420 463 338 463 c 0,0,1
185 237 m 0,47,48
 185 257 185 257 174.5 273 c 128,-1,49
 164 289 164 289 148 289 c 128,-1,50
 132 289 132 289 122.5 274.5 c 128,-1,51
 113 260 113 260 113 237 c 0,52,53
 113 183 113 183 148 183 c 0,54,55
 163 183 163 183 174 197.5 c 128,-1,56
 185 212 185 212 185 237 c 0,47,48
360 -290 m 1,57,-1
 294 -290 l 1,58,-1
 249 -249 l 1,59,-1
 214 -290 l 1,60,-1
 183 -290 l 1,61,62
 183 -272 183 -272 177 -264 c 2,63,-1
 164 -242 l 1,64,65
 130 -290 130 -290 88 -290 c 0,66,67
 62 -290 62 -290 45.5 -273 c 128,-1,68
 29 -256 29 -256 29 -231 c 0,69,70
 29 -207 29 -207 48.5 -190 c 128,-1,71
 68 -173 68 -173 94 -173 c 0,72,73
 133 -173 133 -173 161 -195 c 1,74,-1
 180 -158 l 1,75,-1
 202 -171 l 1,76,-1
 179 -215 l 1,77,78
 185 -221 185 -221 202 -253 c 1,79,-1
 248 -196 l 1,80,-1
 300 -246 l 1,81,-1
 300 -164 l 1,82,83
 284 -182 284 -182 261 -182 c 0,84,85
 232 -182 232 -182 215.5 -158.5 c 128,-1,86
 199 -135 199 -135 199 -103 c 0,87,88
 199 -67 199 -67 217.5 -44.5 c 128,-1,89
 236 -22 236 -22 270 -22 c 0,90,91
 360 -22 360 -22 360 -120 c 2,92,-1
 360 -290 l 1,57,-1
296 -103 m 0,93,94
 296 -50 296 -50 261 -50 c 0,95,96
 247 -50 247 -50 237 -63.5 c 128,-1,97
 227 -77 227 -77 227 -103 c 0,98,99
 227 -126 227 -126 236 -141.5 c 128,-1,100
 245 -157 245 -157 261 -157 c 0,101,102
 276 -157 276 -157 286 -142.5 c 128,-1,103
 296 -128 296 -128 296 -103 c 0,93,94
145 -220 m 1,104,105
 119 -198 119 -198 94 -198 c 0,106,107
 78 -198 78 -198 68.5 -208 c 128,-1,108
 59 -218 59 -218 59 -231 c 0,109,110
 59 -264 59 -264 89 -264 c 0,111,112
 116 -264 116 -264 145 -220 c 1,104,105
EndSplineSet
Substitution2: "Single Substitution lookup 6 subtable" uni0E10.descless
Substitution2: "'ccmp' Glyph Composition/Decomposition in Thai lookup 4 subtable" uni0E10.descless
EndChar

StartChar: uni0E11
Encoding: 3601 3601 228
Width: 670
GlyphClass: 2
Flags: W
LayerCount: 2
Fore
SplineSet
322 476 m 0,0,1
 322 449 322 449 285.5 368.5 c 128,-1,2
 249 288 249 288 249 256 c 2,3,-1
 249 94 l 1,4,-1
 387 478 l 2,5,6
 417 564 417 564 486 564 c 0,7,8
 521 564 521 564 546 538 c 128,-1,9
 571 512 571 512 571 476 c 2,10,-1
 571 0 l 1,11,-1
 495 0 l 1,12,-1
 495 458 l 2,13,14
 495 478 495 478 485.5 488 c 128,-1,15
 476 498 476 498 461 498 c 0,16,17
 426 498 426 498 415 467 c 2,18,-1
 252 0 l 1,19,-1
 173 0 l 1,20,-1
 173 255 l 2,21,22
 173 298 173 298 197.5 345 c 128,-1,23
 222 392 222 392 246.5 427.5 c 128,-1,24
 271 463 271 463 271 478 c 0,25,26
 271 533 271 533 230 533 c 0,27,28
 210 533 210 533 197.5 512.5 c 128,-1,29
 185 492 185 492 185 469 c 1,30,-1
 164 469 l 1,31,32
 164 535 164 535 119 535 c 0,33,34
 96 535 96 535 82 521 c 1,35,36
 110 521 110 521 125.5 498.5 c 128,-1,37
 141 476 141 476 141 437 c 0,38,39
 141 394 141 394 122.5 370 c 128,-1,40
 104 346 104 346 73 346 c 0,41,42
 45 346 45 346 26 370.5 c 128,-1,43
 7 395 7 395 7 437 c 0,44,45
 7 486 7 486 39.5 525 c 128,-1,46
 72 564 72 564 117 564 c 0,47,48
 157 564 157 564 176 524 c 1,49,50
 187 558 187 558 234 564 c 1,51,52
 322 564 322 564 322 476 c 0,0,1
110 437 m 0,53,54
 110 494 110 494 73 494 c 0,55,56
 60 494 60 494 48.5 477.5 c 128,-1,57
 37 461 37 461 37 437 c 0,58,59
 37 375 37 375 73 375 c 0,60,61
 88 375 88 375 99 393 c 128,-1,62
 110 411 110 411 110 437 c 0,53,54
EndSplineSet
EndChar

StartChar: uni0E12
Encoding: 3602 3602 229
Width: 780
GlyphClass: 2
Flags: W
LayerCount: 2
Fore
SplineSet
29 366 m 0,0,1
 29 448 29 448 63 506 c 128,-1,2
 97 564 97 564 158 564 c 0,3,4
 212 564 212 564 249 510 c 1,5,6
 278 564 278 564 346 564 c 0,7,8
 406 564 406 564 439 529 c 128,-1,9
 472 494 472 494 472 434 c 2,10,-1
 472 243 l 1,11,12
 557 227 557 227 605 182 c 1,13,-1
 605 554 l 1,14,-1
 681 554 l 1,15,-1
 681 0 l 1,16,-1
 601 0 l 1,17,18
 601 166 601 166 470 201 c 1,19,-1
 470 78 l 2,20,21
 470 -7 470 -7 397 -7 c 0,22,23
 293 -7 293 -7 293 117 c 0,24,25
 293 212 293 212 395 240 c 1,26,-1
 395 435 l 2,27,28
 395 477 395 477 377 498 c 128,-1,29
 359 519 359 519 328 519 c 0,30,31
 268 519 268 519 259 451 c 1,32,-1
 237 451 l 1,33,34
 228 519 228 519 168 519 c 0,35,36
 146 519 146 519 129 503 c 128,-1,37
 112 487 112 487 104 462.5 c 128,-1,38
 96 438 96 438 92 415.5 c 128,-1,39
 88 393 88 393 88 374 c 0,40,41
 88 325 88 325 125 246 c 2,42,-1
 176 139 l 1,43,-1
 234 220 l 1,44,45
 202 220 202 220 180 248 c 128,-1,46
 158 276 158 276 158 309 c 0,47,48
 158 346 158 346 178.5 372 c 128,-1,49
 199 398 199 398 233 398 c 0,50,51
 273 398 273 398 292.5 371.5 c 128,-1,52
 312 345 312 345 312 305 c 0,53,54
 312 280 312 280 293.5 241.5 c 128,-1,55
 275 203 275 203 253.5 168.5 c 128,-1,56
 232 134 232 134 213.5 87 c 128,-1,57
 195 40 195 40 195 0 c 1,58,-1
 104 0 l 1,59,60
 104 52 104 52 66.5 182.5 c 128,-1,61
 29 313 29 313 29 366 c 0,0,1
267 309 m 0,62,63
 267 331 267 331 256 348.5 c 128,-1,64
 245 366 245 366 227 366 c 0,65,66
 189 366 189 366 189 309 c 0,67,68
 189 282 189 282 199.5 266 c 128,-1,69
 210 250 210 250 227 250 c 128,-1,70
 244 250 244 250 255.5 266 c 128,-1,71
 267 282 267 282 267 309 c 0,62,63
395 201 m 1,72,73
 327 182 327 182 327 111 c 0,74,75
 327 45 327 45 366 45 c 0,76,77
 395 45 395 45 395 81 c 2,78,-1
 395 201 l 1,72,73
EndSplineSet
EndChar

StartChar: uni0E13
Encoding: 3603 3603 230
Width: 852
GlyphClass: 2
Flags: W
AnchorPoint: "Anchor-1" 699 615 basechar 0
LayerCount: 2
Fore
SplineSet
684 554 m 1,0,-1
 684 240 l 1,1,2
 730 226 730 226 758.5 194.5 c 128,-1,3
 787 163 787 163 787 117 c 0,4,5
 787 57 787 57 758.5 25 c 128,-1,6
 730 -7 730 -7 683 -7 c 0,7,8
 608 -7 608 -7 608 78 c 2,9,-1
 608 201 l 1,10,11
 547 187 547 187 514.5 133.5 c 128,-1,12
 482 80 482 80 482 0 c 1,13,-1
 403 0 l 1,14,-1
 403 376 l 2,15,16
 403 437 403 437 361.5 476.5 c 128,-1,17
 320 516 320 516 258 516 c 0,18,19
 154 516 154 516 97 453 c 1,20,21
 172 453 172 453 218 390 c 1,22,23
 154 367 154 367 154 303 c 2,24,-1
 154 151 l 1,25,26
 164 170 164 170 201 170 c 0,27,28
 231 170 231 170 251 142.5 c 128,-1,29
 271 115 271 115 271 81 c 0,30,31
 271 -9 271 -9 179 -9 c 0,32,33
 78 -9 78 -9 78 91 c 2,34,-1
 78 283 l 2,35,36
 78 373 78 373 166 400 c 1,37,38
 128 429 128 429 44 429 c 1,39,40
 60 482 60 482 124 523 c 128,-1,41
 188 564 188 564 259 564 c 0,42,43
 479 564 479 564 479 376 c 2,44,-1
 479 167 l 1,45,46
 519 222 519 222 608 243 c 1,47,-1
 608 554 l 1,48,-1
 684 554 l 1,0,-1
684 201 m 1,49,-1
 684 76 l 2,50,51
 684 45 684 45 709 45 c 0,52,53
 725 45 725 45 739 62.5 c 128,-1,54
 753 80 753 80 753 111 c 0,55,56
 753 179 753 179 684 201 c 1,49,-1
245 81 m 0,57,58
 245 101 245 101 232.5 119.5 c 128,-1,59
 220 138 220 138 201 138 c 0,60,61
 183 138 183 138 170 123 c 128,-1,62
 157 108 157 108 157 81 c 0,63,64
 157 56 157 56 170 39 c 128,-1,65
 183 22 183 22 201 22 c 128,-1,66
 219 22 219 22 232 37.5 c 128,-1,67
 245 53 245 53 245 81 c 0,57,58
EndSplineSet
EndChar

StartChar: uni0E14
Encoding: 3604 3604 231
Width: 566
GlyphClass: 2
Flags: W
LayerCount: 2
Fore
SplineSet
117 0 m 1,0,1
 117 54 117 54 73 184 c 128,-1,2
 29 314 29 314 29 353 c 0,3,4
 29 450 29 450 88 507 c 128,-1,5
 147 564 147 564 248 564 c 0,6,7
 340 564 340 564 403.5 517 c 128,-1,8
 467 470 467 470 467 387 c 2,9,-1
 467 0 l 1,10,-1
 391 0 l 1,11,-1
 391 387 l 2,12,13
 391 452 391 452 350 493.5 c 128,-1,14
 309 535 309 535 245 535 c 0,15,16
 171 535 171 535 130 492 c 128,-1,17
 89 449 89 449 89 374 c 0,18,19
 89 316 89 316 123 245 c 2,20,-1
 173 138 l 1,21,-1
 229 240 l 1,22,23
 196 240 196 240 175.5 267.5 c 128,-1,24
 155 295 155 295 155 328 c 0,25,26
 155 367 155 367 177 393 c 128,-1,27
 199 419 199 419 234 419 c 0,28,29
 276 419 276 419 295.5 383.5 c 128,-1,30
 315 348 315 348 309 311 c 0,31,32
 300 269 300 269 270 211 c 128,-1,33
 240 153 240 153 216.5 99.5 c 128,-1,34
 193 46 193 46 193 0 c 1,35,-1
 117 0 l 1,0,1
262 328 m 0,36,37
 262 355 262 355 251 369.5 c 128,-1,38
 240 384 240 384 223 384 c 0,39,40
 208 384 208 384 197 369 c 128,-1,41
 186 354 186 354 186 328 c 0,42,43
 186 304 186 304 197 287 c 128,-1,44
 208 270 208 270 226 270 c 0,45,46
 240 270 240 270 251 283.5 c 128,-1,47
 262 297 262 297 262 328 c 0,36,37
EndSplineSet
EndChar

StartChar: uni0E15
Encoding: 3605 3605 232
Width: 578
GlyphClass: 2
Flags: W
LayerCount: 2
Fore
SplineSet
122 0 m 1,0,1
 122 42 122 42 75.5 189 c 128,-1,2
 29 336 29 336 29 371 c 0,3,4
 29 433 29 433 60 498 c 0,5,6
 94 564 94 564 164 564 c 0,7,8
 224 564 224 564 261 510 c 1,9,10
 286 564 286 564 356 564 c 0,11,12
 416 564 416 564 447.5 525 c 128,-1,13
 479 486 479 486 479 419 c 2,14,-1
 479 0 l 1,15,-1
 403 0 l 1,16,-1
 403 420 l 2,17,18
 403 468 403 468 385 493.5 c 128,-1,19
 367 519 367 519 337 519 c 0,20,21
 282 519 282 519 270 453 c 1,22,-1
 249 453 l 1,23,24
 240 519 240 519 173 519 c 0,25,26
 131 519 131 519 110 476.5 c 128,-1,27
 89 434 89 434 89 374 c 0,28,29
 89 343 89 343 108 292.5 c 128,-1,30
 127 242 127 242 150 195 c 128,-1,31
 173 148 173 148 176 138 c 1,32,-1
 231 240 l 1,33,34
 199 240 199 240 178.5 267.5 c 128,-1,35
 158 295 158 295 158 328 c 0,36,37
 158 367 158 367 180 393 c 128,-1,38
 202 419 202 419 237 419 c 0,39,40
 278 419 278 419 295 389 c 128,-1,41
 312 359 312 359 312 316 c 0,42,43
 312 279 312 279 236 136 c 0,44,45
 198 63 198 63 198 0 c 1,46,-1
 122 0 l 1,0,1
265 328 m 0,47,48
 265 355 265 355 254 369.5 c 128,-1,49
 243 384 243 384 226 384 c 0,50,51
 211 384 211 384 200 369 c 128,-1,52
 189 354 189 354 189 328 c 0,53,54
 189 304 189 304 200 287 c 128,-1,55
 211 270 211 270 229 270 c 0,56,57
 243 270 243 270 254 283.5 c 128,-1,58
 265 297 265 297 265 328 c 0,47,48
EndSplineSet
EndChar

StartChar: uni0E16
Encoding: 3606 3606 233
Width: 584
GlyphClass: 2
Flags: W
LayerCount: 2
Fore
SplineSet
485 0 m 1,0,-1
 407 0 l 1,1,-1
 407 376 l 2,2,3
 407 438 407 438 364 477 c 128,-1,4
 321 516 321 516 258 516 c 0,5,6
 154 516 154 516 97 454 c 1,7,8
 171 454 171 454 218 390 c 1,9,10
 155 369 155 369 155 303 c 2,11,-1
 155 151 l 1,12,13
 168 170 168 170 204 170 c 0,14,15
 234 170 234 170 253 143.5 c 128,-1,16
 272 117 272 117 272 81 c 0,17,18
 272 -9 272 -9 180 -9 c 0,19,20
 79 -9 79 -9 79 91 c 2,21,-1
 79 283 l 2,22,23
 79 376 79 376 161 400 c 1,24,25
 114 429 114 429 37 429 c 1,26,27
 52 481 52 481 120.5 522.5 c 128,-1,28
 189 564 189 564 259 564 c 0,29,30
 361 564 361 564 423 515.5 c 128,-1,31
 485 467 485 467 485 376 c 2,32,-1
 485 0 l 1,0,-1
246 81 m 0,33,34
 246 101 246 101 234 119.5 c 128,-1,35
 222 138 222 138 204 138 c 128,-1,36
 186 138 186 138 172 123 c 128,-1,37
 158 108 158 108 158 81 c 0,38,39
 158 56 158 56 170.5 39 c 128,-1,40
 183 22 183 22 201 22 c 128,-1,41
 219 22 219 22 232.5 37.5 c 128,-1,42
 246 53 246 53 246 81 c 0,33,34
EndSplineSet
EndChar

StartChar: uni0E17
Encoding: 3607 3607 234
Width: 626
GlyphClass: 2
Flags: W
LayerCount: 2
Fore
SplineSet
527 0 m 1,0,-1
 451 0 l 1,1,-1
 451 457 l 2,2,3
 451 478 451 478 439.5 490 c 128,-1,4
 428 502 428 502 410 502 c 0,5,6
 388 502 388 502 375.5 486 c 128,-1,7
 363 470 363 470 347 419 c 2,8,-1
 218 0 l 1,9,-1
 136 0 l 1,10,-1
 136 400 l 1,11,12
 121 382 121 382 92 382 c 128,-1,13
 63 382 63 382 42.5 406.5 c 128,-1,14
 22 431 22 431 22 467 c 0,15,16
 22 510 22 510 46.5 537 c 128,-1,17
 71 564 71 564 117 564 c 0,18,19
 212 564 212 564 212 461 c 2,20,-1
 212 123 l 2,21,22
 213 123 213 123 234 188.5 c 128,-1,23
 255 254 255 254 283 340 c 128,-1,24
 311 426 311 426 325 463 c 0,25,26
 342 513 342 513 372.5 538.5 c 128,-1,27
 403 564 403 564 438 564 c 0,28,29
 480 564 480 564 503.5 538.5 c 128,-1,30
 527 513 527 513 527 470 c 2,31,-1
 527 0 l 1,0,-1
135 472 m 0,32,33
 135 497 135 497 123 513 c 128,-1,34
 111 529 111 529 94 529 c 0,35,36
 80 529 80 529 65.5 513 c 128,-1,37
 51 497 51 497 51 470 c 0,38,39
 51 449 51 449 61.5 429.5 c 128,-1,40
 72 410 72 410 92 410 c 0,41,42
 111 410 111 410 123 426 c 128,-1,43
 135 442 135 442 135 472 c 0,32,33
EndSplineSet
EndChar

StartChar: uni0E18
Encoding: 3608 3608 235
Width: 527
GlyphClass: 2
Flags: W
LayerCount: 2
Fore
SplineSet
56 0 m 1,0,-1
 56 28 l 1,1,-1
 94 28 l 1,2,-1
 94 407 l 1,3,4
 86 409 86 409 69 409 c 2,5,-1
 44 409 l 1,6,7
 53 474 53 474 97 519 c 128,-1,8
 141 564 141 564 201 564 c 0,9,10
 242 564 242 564 283 546 c 2,11,-1
 365 513 l 1,12,13
 410 513 410 513 431 557 c 1,14,-1
 461 557 l 1,15,16
 435 466 435 466 352 466 c 0,17,18
 339 466 339 466 275.5 482.5 c 128,-1,19
 212 499 212 499 198 499 c 0,20,21
 111 499 111 499 92 437 c 1,22,-1
 125 439 l 1,23,-1
 149 439 l 2,24,25
 248 439 248 439 317.5 400.5 c 128,-1,26
 387 362 387 362 387 287 c 2,27,-1
 387 81 l 2,28,29
 387 0 387 0 322 0 c 2,30,-1
 56 0 l 1,0,-1
170 398 m 1,31,-1
 170 28 l 1,32,-1
 256 28 l 2,33,34
 280 28 280 28 295.5 41.5 c 128,-1,35
 311 55 311 55 311 81 c 2,36,-1
 311 286 l 2,37,38
 311 322 311 322 278.5 349.5 c 128,-1,39
 246 377 246 377 196 393 c 1,40,-1
 170 398 l 1,31,-1
EndSplineSet
EndChar

StartChar: uni0E19
Encoding: 3609 3609 236
Width: 669
GlyphClass: 2
Flags: W
AnchorPoint: "Anchor-1" 509 615 basechar 0
LayerCount: 2
Fore
SplineSet
494 554 m 1,0,-1
 494 239 l 1,1,2
 540 230 540 230 571.5 196.5 c 128,-1,3
 603 163 603 163 603 117 c 0,4,5
 603 56 603 56 574 24.5 c 128,-1,6
 545 -7 545 -7 492 -7 c 0,7,8
 457 -7 457 -7 437 20.5 c 128,-1,9
 417 48 417 48 417 78 c 2,10,-1
 417 199 l 1,11,12
 355 186 355 186 300.5 134.5 c 128,-1,13
 246 83 246 83 220 0 c 1,14,-1
 144 0 l 1,15,-1
 144 400 l 1,16,17
 128 382 128 382 100 382 c 0,18,19
 70 382 70 382 49.5 406.5 c 128,-1,20
 29 431 29 431 29 467 c 0,21,22
 29 510 29 510 53.5 537 c 128,-1,23
 78 564 78 564 125 564 c 0,24,25
 220 564 220 564 220 461 c 2,26,-1
 220 120 l 1,27,28
 245 171 245 171 298.5 201.5 c 128,-1,29
 352 232 352 232 417 242 c 1,30,-1
 417 554 l 1,31,-1
 494 554 l 1,0,-1
494 199 m 1,32,-1
 494 81 l 2,33,34
 494 45 494 45 524 45 c 0,35,36
 544 45 544 45 557 61 c 128,-1,37
 570 77 570 77 570 110 c 0,38,39
 570 144 570 144 549 166.5 c 128,-1,40
 528 189 528 189 494 199 c 1,32,-1
142 472 m 0,41,42
 142 497 142 497 130.5 513 c 128,-1,43
 119 529 119 529 101 529 c 0,44,45
 87 529 87 529 73 513 c 128,-1,46
 59 497 59 497 59 470 c 0,47,48
 59 448 59 448 69 429 c 128,-1,49
 79 410 79 410 100 410 c 0,50,51
 118 410 118 410 130 426 c 128,-1,52
 142 442 142 442 142 472 c 0,41,42
EndSplineSet
EndChar

StartChar: uni0E1A
Encoding: 3610 3610 237
Width: 604
GlyphClass: 2
Flags: W
LayerCount: 2
Fore
SplineSet
505 554 m 1,0,-1
 505 81 l 2,1,2
 505 0 505 0 441 0 c 2,3,-1
 83 0 l 1,4,-1
 83 28 l 1,5,-1
 136 28 l 1,6,-1
 136 400 l 1,7,8
 121 382 121 382 92 382 c 128,-1,9
 63 382 63 382 42.5 406.5 c 128,-1,10
 22 431 22 431 22 467 c 0,11,12
 22 510 22 510 46.5 537 c 128,-1,13
 71 564 71 564 117 564 c 0,14,15
 212 564 212 564 212 461 c 2,16,-1
 212 28 l 1,17,-1
 376 28 l 2,18,19
 400 28 400 28 414.5 41.5 c 128,-1,20
 429 55 429 55 429 81 c 2,21,-1
 429 554 l 1,22,-1
 505 554 l 1,0,-1
135 472 m 0,23,24
 135 497 135 497 123 513 c 128,-1,25
 111 529 111 529 94 529 c 0,26,27
 80 529 80 529 65.5 513 c 128,-1,28
 51 497 51 497 51 470 c 0,29,30
 51 449 51 449 61.5 429.5 c 128,-1,31
 72 410 72 410 92 410 c 0,32,33
 111 410 111 410 123 426 c 128,-1,34
 135 442 135 442 135 472 c 0,23,24
EndSplineSet
EndChar

StartChar: uni0E1B
Encoding: 3611 3611 238
Width: 604
GlyphClass: 2
Flags: W
AnchorPoint: "Anchor-1" 413 615 basechar 0
LayerCount: 2
Fore
SplineSet
505 794 m 1,0,-1
 505 81 l 2,1,2
 505 0 505 0 441 0 c 2,3,-1
 83 0 l 1,4,-1
 83 28 l 1,5,-1
 136 28 l 1,6,-1
 136 400 l 1,7,8
 121 382 121 382 92 382 c 128,-1,9
 63 382 63 382 42.5 406.5 c 128,-1,10
 22 431 22 431 22 467 c 0,11,12
 22 510 22 510 46.5 537 c 128,-1,13
 71 564 71 564 117 564 c 0,14,15
 212 564 212 564 212 461 c 2,16,-1
 212 28 l 1,17,-1
 376 28 l 2,18,19
 400 28 400 28 414.5 41.5 c 128,-1,20
 429 55 429 55 429 81 c 2,21,-1
 429 794 l 1,22,-1
 505 794 l 1,0,-1
135 472 m 0,23,24
 135 497 135 497 123 513 c 128,-1,25
 111 529 111 529 94 529 c 0,26,27
 80 529 80 529 65.5 513 c 128,-1,28
 51 497 51 497 51 470 c 0,29,30
 51 449 51 449 61.5 429.5 c 128,-1,31
 72 410 72 410 92 410 c 0,32,33
 111 410 111 410 123 426 c 128,-1,34
 135 442 135 442 135 472 c 0,23,24
EndSplineSet
EndChar

StartChar: uni0E1C
Encoding: 3612 3612 239
Width: 594
GlyphClass: 2
Flags: W
LayerCount: 2
Fore
SplineSet
495 554 m 1,0,-1
 495 0 l 1,1,-1
 422 0 l 1,2,-1
 267 250 l 1,3,-1
 127 0 l 1,4,-1
 44 0 l 1,5,-1
 44 461 l 2,6,7
 44 564 44 564 144 564 c 0,8,9
 190 564 190 564 214.5 537 c 128,-1,10
 239 510 239 510 239 467 c 0,11,12
 239 431 239 431 218 406.5 c 128,-1,13
 197 382 197 382 167 382 c 128,-1,14
 137 382 137 382 120 400 c 1,15,-1
 120 70 l 1,16,-1
 267 327 l 1,17,-1
 419 78 l 1,18,-1
 419 554 l 1,19,-1
 495 554 l 1,0,-1
209 470 m 0,20,21
 209 497 209 497 194.5 513 c 128,-1,22
 180 529 180 529 166 529 c 0,23,24
 148 529 148 529 135 512.5 c 128,-1,25
 122 496 122 496 122 472 c 0,26,27
 122 443 122 443 135 426.5 c 128,-1,28
 148 410 148 410 167 410 c 0,29,30
 188 410 188 410 198.5 429.5 c 128,-1,31
 209 449 209 449 209 470 c 0,20,21
EndSplineSet
EndChar

StartChar: uni0E1D
Encoding: 3613 3613 240
Width: 594
GlyphClass: 2
Flags: W
AnchorPoint: "Anchor-1" 404 615 basechar 0
LayerCount: 2
Fore
SplineSet
495 794 m 1,0,-1
 495 0 l 1,1,-1
 422 0 l 1,2,-1
 267 250 l 1,3,-1
 127 0 l 1,4,-1
 44 0 l 1,5,-1
 44 461 l 2,6,7
 44 564 44 564 144 564 c 0,8,9
 190 564 190 564 214.5 537 c 128,-1,10
 239 510 239 510 239 467 c 0,11,12
 239 431 239 431 218 406.5 c 128,-1,13
 197 382 197 382 167 382 c 128,-1,14
 137 382 137 382 120 400 c 1,15,-1
 120 70 l 1,16,-1
 267 327 l 1,17,-1
 419 78 l 1,18,-1
 419 794 l 1,19,-1
 495 794 l 1,0,-1
122 472 m 0,20,21
 122 443 122 443 135 426.5 c 128,-1,22
 148 410 148 410 167 410 c 0,23,24
 188 410 188 410 198.5 429.5 c 128,-1,25
 209 449 209 449 209 470 c 0,26,27
 209 497 209 497 194.5 513 c 128,-1,28
 180 529 180 529 166 529 c 0,29,30
 148 529 148 529 135 512.5 c 128,-1,31
 122 496 122 496 122 472 c 0,20,21
EndSplineSet
EndChar

StartChar: uni0E1E
Encoding: 3614 3614 241
Width: 653
GlyphClass: 2
Flags: W
LayerCount: 2
Fore
SplineSet
554 554 m 1,0,-1
 554 0 l 1,1,-1
 466 0 l 1,2,-1
 346 417 l 1,3,-1
 223 0 l 1,4,-1
 136 0 l 1,5,-1
 136 400 l 1,6,7
 121 382 121 382 92 382 c 128,-1,8
 63 382 63 382 42.5 406.5 c 128,-1,9
 22 431 22 431 22 467 c 0,10,11
 22 510 22 510 46.5 537 c 128,-1,12
 71 564 71 564 117 564 c 0,13,14
 212 564 212 564 212 461 c 2,15,-1
 212 98 l 1,16,-1
 346 552 l 1,17,-1
 478 98 l 1,18,-1
 478 554 l 1,19,-1
 554 554 l 1,0,-1
135 472 m 0,20,21
 135 497 135 497 123 513 c 128,-1,22
 111 529 111 529 94 529 c 0,23,24
 80 529 80 529 65.5 513 c 128,-1,25
 51 497 51 497 51 470 c 0,26,27
 51 449 51 449 61.5 429.5 c 128,-1,28
 72 410 72 410 92 410 c 0,29,30
 111 410 111 410 123 426 c 128,-1,31
 135 442 135 442 135 472 c 0,20,21
EndSplineSet
EndChar

StartChar: uni0E1F
Encoding: 3615 3615 242
Width: 653
GlyphClass: 2
Flags: W
AnchorPoint: "Anchor-1" 462 615 basechar 0
LayerCount: 2
Fore
SplineSet
554 794 m 1,0,-1
 554 0 l 1,1,-1
 466 0 l 1,2,-1
 346 417 l 1,3,-1
 223 0 l 1,4,-1
 136 0 l 1,5,-1
 136 400 l 1,6,7
 121 382 121 382 92 382 c 128,-1,8
 63 382 63 382 42.5 406.5 c 128,-1,9
 22 431 22 431 22 467 c 0,10,11
 22 510 22 510 46.5 537 c 128,-1,12
 71 564 71 564 117 564 c 0,13,14
 212 564 212 564 212 461 c 2,15,-1
 212 98 l 1,16,-1
 346 552 l 1,17,-1
 478 98 l 1,18,-1
 478 794 l 1,19,-1
 554 794 l 1,0,-1
51 470 m 0,20,21
 51 449 51 449 61.5 429.5 c 128,-1,22
 72 410 72 410 92 410 c 0,23,24
 111 410 111 410 123 426 c 128,-1,25
 135 442 135 442 135 472 c 0,26,27
 135 497 135 497 123 513 c 128,-1,28
 111 529 111 529 94 529 c 0,29,30
 80 529 80 529 65.5 513 c 128,-1,31
 51 497 51 497 51 470 c 0,20,21
EndSplineSet
EndChar

StartChar: uni0E20
Encoding: 3616 3616 243
Width: 624
GlyphClass: 2
Flags: W
LayerCount: 2
Fore
SplineSet
524 0 m 1,0,-1
 448 0 l 1,1,-1
 448 376 l 2,2,3
 448 440 448 440 414.5 478 c 128,-1,4
 381 516 381 516 319 516 c 0,5,6
 215 516 215 516 158 454 c 1,7,8
 233 454 233 454 280 390 c 1,9,10
 215 369 215 369 215 303 c 2,11,-1
 215 91 l 2,12,13
 215 -9 215 -9 119 -9 c 0,14,15
 26 -9 26 -9 26 81 c 0,16,17
 26 117 26 117 44 143.5 c 128,-1,18
 62 170 62 170 92 170 c 0,19,20
 129 170 129 170 139 151 c 1,21,-1
 139 283 l 2,22,23
 139 376 139 376 223 400 c 1,24,25
 176 429 176 429 98 429 c 1,26,27
 114 481 114 481 182 522.5 c 128,-1,28
 250 564 250 564 321 564 c 0,29,30
 419 564 419 564 471.5 515.5 c 128,-1,31
 524 467 524 467 524 376 c 2,32,-1
 524 0 l 1,0,-1
136 81 m 0,33,34
 136 108 136 108 123 123 c 128,-1,35
 110 138 110 138 92 138 c 0,36,37
 75 138 75 138 64 119.5 c 128,-1,38
 53 101 53 101 53 81 c 0,39,40
 53 53 53 53 65 37.5 c 128,-1,41
 77 22 77 22 95 22 c 128,-1,42
 113 22 113 22 124.5 38.5 c 128,-1,43
 136 55 136 55 136 81 c 0,33,34
EndSplineSet
EndChar

StartChar: uni0E21
Encoding: 3617 3617 244
Width: 600
GlyphClass: 2
Flags: W
LayerCount: 2
Fore
SplineSet
501 0 m 1,0,-1
 420 0 l 1,1,2
 394 85 394 85 345.5 136 c 128,-1,3
 297 187 297 187 234 199 c 1,4,-1
 234 78 l 2,5,6
 234 -7 234 -7 161 -7 c 0,7,8
 113 -7 113 -7 83.5 25 c 128,-1,9
 54 57 54 57 54 107 c 0,10,11
 54 212 54 212 158 239 c 1,12,-1
 158 400 l 1,13,14
 143 382 143 382 114 382 c 128,-1,15
 85 382 85 382 64.5 406.5 c 128,-1,16
 44 431 44 431 44 467 c 0,17,18
 44 510 44 510 68.5 537 c 128,-1,19
 93 564 93 564 139 564 c 128,-1,20
 185 564 185 564 209.5 536.5 c 128,-1,21
 234 509 234 509 234 461 c 2,22,-1
 234 240 l 1,23,24
 292 235 292 235 343 203.5 c 128,-1,25
 394 172 394 172 425 117 c 1,26,-1
 425 554 l 1,27,-1
 501 554 l 1,28,-1
 501 0 l 1,0,-1
158 199 m 1,29,30
 91 184 91 184 91 104 c 0,31,32
 91 51 91 51 125 51 c 0,33,34
 158 51 158 51 158 95 c 2,35,-1
 158 199 l 1,29,30
157 472 m 0,36,37
 157 497 157 497 145 513 c 128,-1,38
 133 529 133 529 116 529 c 0,39,40
 102 529 102 529 87.5 513 c 128,-1,41
 73 497 73 497 73 470 c 0,42,43
 73 448 73 448 83 429 c 128,-1,44
 93 410 93 410 114 410 c 0,45,46
 133 410 133 410 145 426 c 128,-1,47
 157 442 157 442 157 472 c 0,36,37
EndSplineSet
EndChar

StartChar: uni0E22
Encoding: 3618 3618 245
Width: 543
GlyphClass: 2
Flags: W
LayerCount: 2
Fore
SplineSet
237 300 m 0,0,1
 237 294 237 294 221.5 289 c 128,-1,2
 206 284 206 284 187.5 278 c 128,-1,3
 169 272 169 272 153.5 247.5 c 128,-1,4
 138 223 138 223 138 182 c 2,5,-1
 138 113 l 2,6,7
 138 72 138 72 171 47 c 128,-1,8
 204 22 204 22 249 22 c 0,9,10
 296 22 296 22 332 47 c 128,-1,11
 368 72 368 72 368 113 c 2,12,-1
 368 554 l 1,13,-1
 444 554 l 1,14,-1
 444 113 l 2,15,16
 444 71 444 71 409 41.5 c 128,-1,17
 374 12 374 12 332 1.5 c 128,-1,18
 290 -9 290 -9 250 -9 c 0,19,20
 182 -9 182 -9 126 18 c 0,21,22
 62 49 62 49 62 113 c 2,23,-1
 62 179 l 2,24,25
 62 265 62 265 155 296 c 1,26,27
 59 322 59 322 59 406 c 2,28,-1
 59 461 l 2,29,30
 59 564 59 564 158 564 c 0,31,32
 204 564 204 564 226.5 537 c 128,-1,33
 249 510 249 510 249 467 c 0,34,35
 249 431 249 431 228.5 406.5 c 128,-1,36
 208 382 208 382 179 382 c 128,-1,37
 150 382 150 382 135 400 c 1,38,-1
 135 395 l 2,39,40
 135 361 135 361 161 336 c 128,-1,41
 187 311 187 311 221 311 c 0,42,43
 236 311 236 311 237 300 c 0,0,1
220 470 m 0,44,45
 220 497 220 497 205.5 513 c 128,-1,46
 191 529 191 529 177 529 c 0,47,48
 160 529 160 529 148 513 c 128,-1,49
 136 497 136 497 136 472 c 0,50,51
 136 442 136 442 148 426 c 128,-1,52
 160 410 160 410 179 410 c 0,53,54
 199 410 199 410 209.5 429.5 c 128,-1,55
 220 449 220 449 220 470 c 0,44,45
EndSplineSet
EndChar

StartChar: uni0E23
Encoding: 3619 3619 246
Width: 461
GlyphClass: 2
Flags: W
LayerCount: 2
Fore
SplineSet
417 557 m 1,0,1
 391 466 391 466 311 466 c 0,2,3
 298 466 298 466 239 482.5 c 128,-1,4
 180 499 180 499 166 499 c 0,5,6
 93 499 93 499 67 437 c 1,7,-1
 100 439 l 1,8,-1
 125 439 l 2,9,10
 204 439 204 439 264 407 c 0,11,12
 331 370 331 370 331 287 c 2,13,-1
 331 85 l 2,14,15
 331 -15 331 -15 234 -15 c 0,16,17
 142 -15 142 -15 142 75 c 0,18,19
 142 112 142 112 160 138 c 128,-1,20
 178 164 178 164 208 164 c 0,21,22
 245 164 245 164 255 145 c 1,23,-1
 255 286 l 2,24,25
 255 324 255 324 232.5 347 c 128,-1,26
 210 370 210 370 163 385 c 0,27,28
 126 395 126 395 15 395 c 1,29,30
 23 467 23 467 65.5 515.5 c 128,-1,31
 108 564 108 564 167 564 c 0,32,33
 207 564 207 564 246 546 c 2,34,-1
 324 513 l 1,35,36
 368 513 368 513 387 557 c 1,37,-1
 417 557 l 1,0,1
252 75 m 0,38,39
 252 102 252 102 239 117 c 128,-1,40
 226 132 226 132 208 132 c 128,-1,41
 190 132 190 132 179 114 c 128,-1,42
 168 96 168 96 168 75 c 0,43,44
 168 47 168 47 180.5 31.5 c 128,-1,45
 193 16 193 16 211 16 c 0,46,47
 228 16 228 16 240 33 c 128,-1,48
 252 50 252 50 252 75 c 0,38,39
EndSplineSet
EndChar

StartChar: uni0E24
Encoding: 3620 3620 247
Width: 591
GlyphClass: 2
Flags: W
LayerCount: 2
Fore
SplineSet
492 -234 m 1,0,-1
 416 -234 l 1,1,-1
 416 376 l 2,2,3
 416 438 416 438 372.5 477 c 128,-1,4
 329 516 329 516 265 516 c 0,5,6
 161 516 161 516 104 454 c 1,7,8
 179 454 179 454 226 390 c 1,9,10
 161 369 161 369 161 303 c 2,11,-1
 161 151 l 1,12,13
 171 170 171 170 208 170 c 0,14,15
 238 170 238 170 256 143.5 c 128,-1,16
 274 117 274 117 274 81 c 0,17,18
 274 -9 274 -9 182 -9 c 0,19,20
 85 -9 85 -9 85 91 c 2,21,-1
 85 283 l 2,22,23
 85 376 85 376 168 400 c 1,24,25
 122 429 122 429 44 429 c 1,26,27
 59 481 59 481 127.5 522.5 c 128,-1,28
 196 564 196 564 267 564 c 0,29,30
 369 564 369 564 430.5 515.5 c 128,-1,31
 492 467 492 467 492 376 c 2,32,-1
 492 -234 l 1,0,-1
248 81 m 0,33,34
 248 101 248 101 236.5 119.5 c 128,-1,35
 225 138 225 138 208 138 c 0,36,37
 190 138 190 138 177 123 c 128,-1,38
 164 108 164 108 164 81 c 0,39,40
 164 56 164 56 176 39 c 128,-1,41
 188 22 188 22 205 22 c 0,42,43
 223 22 223 22 235.5 37.5 c 128,-1,44
 248 53 248 53 248 81 c 0,33,34
EndSplineSet
EndChar

StartChar: uni0E25
Encoding: 3621 3621 248
Width: 556
GlyphClass: 2
Flags: W
LayerCount: 2
Fore
SplineSet
457 0 m 1,0,-1
 381 0 l 1,1,-1
 381 224 l 1,2,3
 367 284 367 284 331.5 315 c 128,-1,4
 296 346 296 346 245 346 c 0,5,6
 157 346 157 346 157 252 c 2,7,-1
 157 154 l 1,8,9
 167 173 167 173 201 173 c 0,10,11
 231 173 231 173 250.5 145 c 128,-1,12
 270 117 270 117 270 83 c 0,13,14
 270 -6 270 -6 177 -6 c 0,15,16
 81 -6 81 -6 81 94 c 2,17,-1
 81 245 l 2,18,19
 81 314 81 314 119.5 352 c 128,-1,20
 158 390 158 390 227 390 c 0,21,22
 326 390 326 390 381 313 c 1,23,-1
 381 388 l 2,24,25
 381 516 381 516 240 516 c 0,26,27
 129 516 129 516 63 423 c 1,28,-1
 44 431 l 1,29,30
 105 564 105 564 245 564 c 0,31,32
 344 564 344 564 400.5 521 c 128,-1,33
 457 478 457 478 457 391 c 2,34,-1
 457 0 l 1,0,-1
243 83 m 0,35,36
 243 104 243 104 231.5 122.5 c 128,-1,37
 220 141 220 141 201 141 c 0,38,39
 183 141 183 141 171.5 126 c 128,-1,40
 160 111 160 111 160 83 c 0,41,42
 160 58 160 58 171.5 41.5 c 128,-1,43
 183 25 183 25 201 25 c 128,-1,44
 219 25 219 25 231 40 c 128,-1,45
 243 55 243 55 243 83 c 0,35,36
EndSplineSet
EndChar

StartChar: uni0E26
Encoding: 3622 3622 249
Width: 626
GlyphClass: 2
Flags: W
LayerCount: 2
Fore
SplineSet
527 -234 m 1,0,-1
 451 -234 l 1,1,-1
 451 376 l 2,2,3
 451 440 451 440 417.5 478 c 128,-1,4
 384 516 384 516 322 516 c 0,5,6
 218 516 218 516 161 454 c 1,7,8
 236 454 236 454 283 390 c 1,9,10
 218 369 218 369 218 303 c 2,11,-1
 218 91 l 2,12,13
 218 -9 218 -9 122 -9 c 0,14,15
 29 -9 29 -9 29 81 c 0,16,17
 29 117 29 117 47 143.5 c 128,-1,18
 65 170 65 170 95 170 c 0,19,20
 132 170 132 170 142 151 c 1,21,-1
 142 283 l 2,22,23
 142 376 142 376 226 400 c 1,24,25
 179 429 179 429 101 429 c 1,26,27
 117 481 117 481 185 522.5 c 128,-1,28
 253 564 253 564 324 564 c 0,29,30
 418 564 418 564 472.5 512.5 c 128,-1,31
 527 461 527 461 527 376 c 2,32,-1
 527 -234 l 1,0,-1
139 81 m 0,33,34
 139 108 139 108 126 123 c 128,-1,35
 113 138 113 138 95 138 c 0,36,37
 78 138 78 138 67 119.5 c 128,-1,38
 56 101 56 101 56 81 c 0,39,40
 56 53 56 53 68 37.5 c 128,-1,41
 80 22 80 22 98 22 c 128,-1,42
 116 22 116 22 127.5 38.5 c 128,-1,43
 139 55 139 55 139 81 c 0,33,34
EndSplineSet
EndChar

StartChar: uni0E27
Encoding: 3623 3623 250
Width: 480
GlyphClass: 2
Flags: W
LayerCount: 2
Fore
SplineSet
-7 437 m 1,0,1
 56 564 56 564 193 564 c 0,2,3
 265 564 265 564 323 521 c 128,-1,4
 381 478 381 478 381 410 c 2,5,-1
 381 91 l 2,6,7
 381 -9 381 -9 284 -9 c 0,8,9
 192 -9 192 -9 192 81 c 0,10,11
 192 119 192 119 211 144.5 c 128,-1,12
 230 170 230 170 258 170 c 0,13,14
 293 170 293 170 305 151 c 1,15,-1
 305 394 l 2,16,17
 305 447 305 447 263.5 481.5 c 128,-1,18
 222 516 222 516 164 516 c 0,19,20
 68 516 68 516 7 426 c 1,21,-1
 -7 437 l 1,0,1
302 81 m 0,22,23
 302 108 302 108 289 123 c 128,-1,24
 276 138 276 138 258 138 c 0,25,26
 241 138 241 138 229.5 119.5 c 128,-1,27
 218 101 218 101 218 81 c 0,28,29
 218 53 218 53 230.5 37.5 c 128,-1,30
 243 22 243 22 261 22 c 0,31,32
 278 22 278 22 290 39 c 128,-1,33
 302 56 302 56 302 81 c 0,22,23
EndSplineSet
EndChar

StartChar: uni0E28
Encoding: 3624 3624 251
Width: 602
GlyphClass: 2
Flags: W
LayerCount: 2
Fore
SplineSet
123 60 m 2,0,1
 123 112 123 112 99.5 173 c 128,-1,2
 76 234 76 234 52.5 286 c 128,-1,3
 29 338 29 338 29 368 c 0,4,5
 29 464 29 464 90.5 514 c 128,-1,6
 152 564 152 564 259 564 c 0,7,8
 347 564 347 564 403 529 c 0,9,10
 403 527 403 527 404 527 c 0,11,12
 412 547 412 547 412 579 c 2,13,-1
 412 595 l 1,14,-1
 502 595 l 1,15,16
 486 529 486 529 453 476 c 1,17,18
 469 441 469 441 469 404 c 2,19,-1
 469 0 l 1,20,-1
 393 0 l 1,21,-1
 393 404 l 2,22,23
 393 446 393 446 349.5 481 c 128,-1,24
 306 516 306 516 258 516 c 0,25,26
 168 516 168 516 125 482.5 c 128,-1,27
 82 449 82 449 82 371 c 0,28,29
 82 355 82 355 87 337.5 c 128,-1,30
 92 320 92 320 97.5 310 c 128,-1,31
 103 300 103 300 115.5 278 c 128,-1,32
 128 256 128 256 133 246 c 1,33,34
 133 330 133 330 162.5 367 c 128,-1,35
 192 404 192 404 240 404 c 0,36,37
 276 404 276 404 295.5 378.5 c 128,-1,38
 315 353 315 353 315 313 c 0,39,40
 315 280 315 280 294.5 253 c 128,-1,41
 274 226 274 226 242 226 c 0,42,43
 223 226 223 226 207 237 c 1,44,45
 199 216 199 216 199 186 c 0,46,47
 199 172 199 172 200.5 135 c 128,-1,48
 202 98 202 98 202 78 c 0,49,50
 202 28 202 28 196 0 c 1,51,-1
 120 0 l 1,52,-1
 123 44 l 1,53,-1
 123 60 l 2,0,1
284 313 m 0,54,55
 284 339 284 339 273 354 c 128,-1,56
 262 369 262 369 248 369 c 0,57,58
 231 369 231 369 219.5 354.5 c 128,-1,59
 208 340 208 340 208 313 c 0,60,61
 208 282 208 282 219 268.5 c 128,-1,62
 230 255 230 255 245 255 c 0,63,64
 262 255 262 255 273 272.5 c 128,-1,65
 284 290 284 290 284 313 c 0,54,55
EndSplineSet
EndChar

StartChar: uni0E29
Encoding: 3625 3625 252
Width: 717
GlyphClass: 2
Flags: W
AnchorPoint: "Anchor-1" 548 615 basechar 0
LayerCount: 2
Fore
SplineSet
533 554 m 1,0,-1
 533 309 l 1,1,2
 564 361 564 361 564 431 c 1,3,-1
 618 431 l 1,4,5
 618 319 618 319 533 249 c 1,6,-1
 533 81 l 2,7,8
 533 45 533 45 518.5 22.5 c 128,-1,9
 504 0 504 0 478 0 c 2,10,-1
 82 0 l 1,11,-1
 82 28 l 1,12,-1
 136 28 l 1,13,-1
 136 400 l 1,14,15
 121 382 121 382 92 382 c 128,-1,16
 63 382 63 382 42.5 406.5 c 128,-1,17
 22 431 22 431 22 467 c 0,18,19
 22 510 22 510 46.5 537 c 128,-1,20
 71 564 71 564 117 564 c 128,-1,21
 163 564 163 564 187.5 536.5 c 128,-1,22
 212 509 212 509 212 461 c 2,23,-1
 212 28 l 1,24,-1
 407 28 l 2,25,26
 457 28 457 28 457 81 c 2,27,-1
 457 218 l 1,28,29
 434 212 434 212 391 212 c 0,30,31
 341 212 341 212 301.5 252 c 128,-1,32
 262 292 262 292 262 344 c 0,33,34
 262 431 262 431 349 431 c 0,35,36
 377 431 377 431 394.5 407.5 c 128,-1,37
 412 384 412 384 412 352 c 128,-1,38
 412 320 412 320 394.5 296 c 128,-1,39
 377 272 377 272 349 272 c 2,40,-1
 335 274 l 1,41,42
 360 243 360 243 409 243 c 0,43,44
 436 243 436 243 457 250 c 1,45,-1
 457 554 l 1,46,-1
 533 554 l 1,0,-1
135 472 m 0,47,48
 135 497 135 497 123 513 c 128,-1,49
 111 529 111 529 94 529 c 0,50,51
 80 529 80 529 65.5 513 c 128,-1,52
 51 497 51 497 51 470 c 0,53,54
 51 449 51 449 61.5 429.5 c 128,-1,55
 72 410 72 410 92 410 c 0,56,57
 111 410 111 410 123 426 c 128,-1,58
 135 442 135 442 135 472 c 0,47,48
384 352 m 0,59,60
 384 372 384 372 375 387.5 c 128,-1,61
 366 403 366 403 349 403 c 0,62,63
 334 403 334 403 324.5 390 c 128,-1,64
 315 377 315 377 315 352 c 0,65,66
 315 302 315 302 349 297 c 1,67,68
 380 297 380 297 384 352 c 0,59,60
EndSplineSet
EndChar

StartChar: uni0E2A
Encoding: 3626 3626 253
Width: 594
GlyphClass: 2
Flags: W
LayerCount: 2
Fore
SplineSet
245 564 m 0,0,1
 335 564 335 564 394 523 c 1,2,3
 396 533 396 533 397.5 543.5 c 128,-1,4
 399 554 399 554 401 568.5 c 128,-1,5
 403 583 403 583 404 593 c 1,6,-1
 495 593 l 1,7,8
 468 505 468 505 442 466 c 1,9,10
 457 440 457 440 457 391 c 2,11,-1
 457 0 l 1,12,-1
 381 0 l 1,13,-1
 381 224 l 1,14,15
 367 284 367 284 331.5 315 c 128,-1,16
 296 346 296 346 245 346 c 0,17,18
 157 346 157 346 157 252 c 2,19,-1
 157 154 l 1,20,21
 167 173 167 173 201 173 c 0,22,23
 231 173 231 173 250.5 145 c 128,-1,24
 270 117 270 117 270 83 c 0,25,26
 270 -6 270 -6 177 -6 c 0,27,28
 81 -6 81 -6 81 94 c 2,29,-1
 81 245 l 2,30,31
 81 314 81 314 119.5 352 c 128,-1,32
 158 390 158 390 227 390 c 0,33,34
 326 390 326 390 381 313 c 1,35,-1
 381 388 l 2,36,37
 381 516 381 516 240 516 c 0,38,39
 129 516 129 516 63 423 c 1,40,-1
 44 431 l 1,41,42
 105 564 105 564 245 564 c 0,0,1
243 83 m 0,43,44
 243 104 243 104 231.5 122.5 c 128,-1,45
 220 141 220 141 201 141 c 0,46,47
 183 141 183 141 171.5 126 c 128,-1,48
 160 111 160 111 160 83 c 0,49,50
 160 58 160 58 171.5 41.5 c 128,-1,51
 183 25 183 25 201 25 c 128,-1,52
 219 25 219 25 231 40 c 128,-1,53
 243 55 243 55 243 83 c 0,43,44
EndSplineSet
EndChar

StartChar: uni0E2B
Encoding: 3627 3627 254
Width: 635
GlyphClass: 2
Flags: W
LayerCount: 2
Fore
SplineSet
530 0 m 1,0,-1
 454 0 l 1,1,-1
 454 321 l 2,2,3
 454 346 454 346 434 366 c 1,4,5
 408 360 408 360 390 352.5 c 128,-1,6
 372 345 372 345 348.5 322 c 128,-1,7
 325 299 325 299 312 262 c 2,8,-1
 220 0 l 1,9,-1
 136 0 l 1,10,-1
 136 400 l 1,11,12
 121 382 121 382 92 382 c 128,-1,13
 63 382 63 382 42.5 406.5 c 128,-1,14
 22 431 22 431 22 467 c 0,15,16
 22 510 22 510 46.5 537 c 128,-1,17
 71 564 71 564 117 564 c 0,18,19
 212 564 212 564 212 461 c 2,20,-1
 212 86 l 1,21,-1
 277 270 l 2,22,23
 297 327 297 327 328.5 354.5 c 128,-1,24
 360 382 360 382 409 397 c 1,25,26
 376 431 376 431 376 473 c 0,27,28
 376 516 376 516 397 540 c 128,-1,29
 418 564 418 564 454 564 c 0,30,31
 536 564 536 564 536 473 c 0,32,33
 536 444 536 444 524.5 421 c 128,-1,34
 513 398 513 398 492 391 c 1,35,36
 530 369 530 369 530 315 c 2,37,-1
 530 0 l 1,0,-1
51 470 m 0,38,39
 51 449 51 449 61.5 429.5 c 128,-1,40
 72 410 72 410 92 410 c 0,41,42
 111 410 111 410 123 426 c 128,-1,43
 135 442 135 442 135 472 c 0,44,45
 135 497 135 497 123 513 c 128,-1,46
 111 529 111 529 94 529 c 0,47,48
 80 529 80 529 65.5 513 c 128,-1,49
 51 497 51 497 51 470 c 0,38,39
413 473 m 0,50,51
 413 432 413 432 456 415 c 1,52,53
 469 420 469 420 476 429 c 128,-1,54
 483 438 483 438 485.5 446.5 c 128,-1,55
 488 455 488 455 491 473 c 0,56,57
 491 529 491 529 454 529 c 0,58,59
 413 529 413 529 413 473 c 0,50,51
EndSplineSet
EndChar

StartChar: uni0E2C
Encoding: 3628 3628 255
Width: 685
GlyphClass: 2
Flags: W
AnchorPoint: "Anchor-1" 374 615 basechar 0
LayerCount: 2
Fore
SplineSet
656 696 m 1,0,1
 656 598 656 598 554 542 c 1,2,-1
 554 0 l 1,3,-1
 466 0 l 1,4,-1
 346 372 l 1,5,-1
 223 0 l 1,6,-1
 136 0 l 1,7,-1
 136 400 l 1,8,9
 121 382 121 382 92 382 c 128,-1,10
 63 382 63 382 42.5 406.5 c 128,-1,11
 22 431 22 431 22 467 c 0,12,13
 22 510 22 510 46.5 537 c 128,-1,14
 71 564 71 564 117 564 c 0,15,16
 212 564 212 564 212 461 c 2,17,-1
 212 98 l 1,18,-1
 346 507 l 1,19,-1
 478 98 l 1,20,-1
 478 523 l 1,21,22
 433 523 433 523 406 546 c 128,-1,23
 379 569 379 569 379 611 c 0,24,25
 379 696 379 696 463 696 c 0,26,27
 504 696 504 696 529 672 c 128,-1,28
 554 648 554 648 554 608 c 2,29,-1
 554 589 l 1,30,31
 569 594 569 594 580.5 623 c 128,-1,32
 592 652 592 652 592 686 c 2,33,-1
 592 696 l 1,34,-1
 656 696 l 1,0,1
51 470 m 0,35,36
 51 449 51 449 61.5 429.5 c 128,-1,37
 72 410 72 410 92 410 c 0,38,39
 111 410 111 410 123 426 c 128,-1,40
 135 442 135 442 135 472 c 0,41,42
 135 497 135 497 123 513 c 128,-1,43
 111 529 111 529 94 529 c 0,44,45
 80 529 80 529 65.5 513 c 128,-1,46
 51 497 51 497 51 470 c 0,35,36
447 661 m 0,47,48
 417 661 417 661 410 611 c 1,49,50
 410 555 410 555 478 555 c 1,51,-1
 478 627 l 2,52,53
 478 661 478 661 447 661 c 0,47,48
EndSplineSet
EndChar

StartChar: uni0E2D
Encoding: 3629 3629 256
Width: 563
GlyphClass: 2
Flags: W
LayerCount: 2
Fore
SplineSet
44 431 m 1,0,1
 99 564 99 564 243 564 c 0,2,3
 341 564 341 564 402.5 524 c 128,-1,4
 464 484 464 484 464 406 c 2,5,-1
 464 113 l 2,6,7
 464 61 464 61 403.5 27 c 128,-1,8
 343 -7 343 -7 271 -7 c 0,9,10
 192 -7 192 -7 134 24 c 128,-1,11
 76 55 76 55 76 113 c 2,12,-1
 76 280 l 2,13,14
 76 327 76 327 103 357 c 128,-1,15
 130 387 130 387 171 387 c 0,16,17
 218 387 218 387 242.5 360 c 128,-1,18
 267 333 267 333 267 290 c 0,19,20
 267 254 267 254 246.5 229.5 c 128,-1,21
 226 205 226 205 196 205 c 0,22,23
 168 205 168 205 152 223 c 1,24,-1
 152 114 l 2,25,26
 152 75 152 75 187.5 49 c 128,-1,27
 223 23 223 23 268 23 c 0,28,29
 314 23 314 23 351 49 c 128,-1,30
 388 75 388 75 388 114 c 2,31,-1
 388 391 l 2,32,33
 388 451 388 451 347.5 483.5 c 128,-1,34
 307 516 307 516 239 516 c 0,35,36
 130 516 130 516 63 422 c 1,37,-1
 44 431 l 1,0,1
237 293 m 0,38,39
 237 320 237 320 223 336 c 128,-1,40
 209 352 209 352 195 352 c 0,41,42
 177 352 177 352 165.5 335.5 c 128,-1,43
 154 319 154 319 154 294 c 0,44,45
 154 265 154 265 166 249 c 128,-1,46
 178 233 178 233 196 233 c 0,47,48
 217 233 217 233 227 252 c 128,-1,49
 237 271 237 271 237 293 c 0,38,39
EndSplineSet
EndChar

StartChar: uni0E2E
Encoding: 3630 3630 257
Width: 571
GlyphClass: 2
Flags: W
LayerCount: 2
Fore
SplineSet
145 398 m 0,0,1
 103 398 103 398 73.5 412.5 c 128,-1,2
 44 427 44 427 44 456 c 0,3,4
 44 488 44 488 79 513.5 c 128,-1,5
 114 539 114 539 159 551.5 c 128,-1,6
 204 564 204 564 245 564 c 0,7,8
 323 564 323 564 378 536 c 1,9,10
 399 567 399 567 404 608 c 1,11,-1
 472 608 l 1,12,13
 463 544 463 544 423 504 c 1,14,15
 463 467 463 467 463 406 c 2,16,-1
 463 113 l 2,17,18
 463 61 463 61 402.5 27 c 128,-1,19
 342 -7 342 -7 270 -7 c 0,20,21
 190 -7 190 -7 132.5 23.5 c 128,-1,22
 75 54 75 54 75 113 c 2,23,-1
 75 258 l 2,24,25
 75 305 75 305 101 335 c 128,-1,26
 127 365 127 365 170 365 c 0,27,28
 216 365 216 365 240.5 338 c 128,-1,29
 265 311 265 311 265 268 c 0,30,31
 265 232 265 232 244.5 207.5 c 128,-1,32
 224 183 224 183 195 183 c 128,-1,33
 166 183 166 183 151 201 c 1,34,-1
 151 114 l 2,35,36
 151 75 151 75 186.5 49 c 128,-1,37
 222 23 222 23 267 23 c 0,38,39
 313 23 313 23 350 49 c 128,-1,40
 387 75 387 75 387 114 c 2,41,-1
 387 391 l 2,42,43
 387 433 387 433 363 457 c 1,44,45
 303 424 303 424 254.5 411 c 128,-1,46
 206 398 206 398 145 398 c 0,0,1
83 454 m 0,47,48
 83 441 83 441 94 434 c 128,-1,49
 105 427 105 427 117 426 c 128,-1,50
 129 425 129 425 151 425 c 0,51,52
 208 425 208 425 257 444 c 128,-1,53
 306 463 306 463 334 488 c 1,54,55
 297 516 297 516 242 516 c 0,56,57
 183 516 183 516 133 501 c 128,-1,58
 83 486 83 486 83 454 c 0,47,48
152 272 m 0,59,60
 152 242 152 242 164 226.5 c 128,-1,61
 176 211 176 211 195 211 c 0,62,63
 216 211 216 211 226 230 c 128,-1,64
 236 249 236 249 236 271 c 0,65,66
 236 298 236 298 221.5 314 c 128,-1,67
 207 330 207 330 193 330 c 0,68,69
 176 330 176 330 164 313.5 c 128,-1,70
 152 297 152 297 152 272 c 0,59,60
EndSplineSet
EndChar

StartChar: uni0E2F
Encoding: 3631 3631 258
Width: 537
GlyphClass: 2
Flags: W
LayerCount: 2
Fore
SplineSet
227 478 m 0,0,1
 227 447 227 447 208.5 422 c 128,-1,2
 190 397 190 397 163 397 c 2,3,-1
 151 398 l 1,4,5
 168 384 168 384 198 384 c 0,6,7
 219 384 219 384 239.5 412.5 c 128,-1,8
 260 441 260 441 279.5 482 c 128,-1,9
 299 523 299 523 306 533 c 0,10,11
 332 564 332 564 372 564 c 0,12,13
 396 564 396 564 416.5 540.5 c 128,-1,14
 437 517 437 517 437 476 c 2,15,-1
 437 0 l 1,16,-1
 360 0 l 1,17,-1
 360 466 l 2,18,19
 360 483 360 483 343 483 c 0,20,21
 333 483 333 483 323 468.5 c 128,-1,22
 313 454 313 454 303 434 c 128,-1,23
 293 414 293 414 280 393.5 c 128,-1,24
 267 373 267 373 244.5 358.5 c 128,-1,25
 222 344 222 344 193 344 c 0,26,27
 141 344 141 344 108 379.5 c 128,-1,28
 75 415 75 415 75 464 c 0,29,30
 75 511 75 511 98.5 537.5 c 128,-1,31
 122 564 122 564 161 564 c 0,32,33
 193 564 193 564 210 538 c 128,-1,34
 227 512 227 512 227 478 c 0,0,1
198 478 m 0,35,36
 198 502 198 502 188 514.5 c 128,-1,37
 178 527 178 527 163 527 c 0,38,39
 126 527 126 527 126 478 c 0,40,41
 126 426 126 426 163 426 c 0,42,43
 198 426 198 426 198 478 c 0,35,36
EndSplineSet
EndChar

StartChar: uni0E30
Encoding: 3632 3632 259
Width: 458
GlyphClass: 2
Flags: W
LayerCount: 2
Fore
SplineSet
359 557 m 1,0,1
 359 464 359 464 301 399 c 128,-1,2
 243 334 243 334 151 334 c 0,3,4
 95 334 95 334 55 371.5 c 128,-1,5
 15 409 15 409 15 464 c 0,6,7
 15 557 15 557 105 557 c 0,8,9
 134 557 134 557 152 532.5 c 128,-1,10
 170 508 170 508 170 476 c 0,11,12
 170 443 170 443 152 418.5 c 128,-1,13
 134 394 134 394 105 394 c 1,14,-1
 92 397 l 2,15,16
 95 395 95 395 105.5 387 c 128,-1,17
 116 379 116 379 121 376 c 128,-1,18
 126 373 126 373 137.5 369.5 c 128,-1,19
 149 366 149 366 161 366 c 0,20,21
 217 366 217 366 250.5 424.5 c 128,-1,22
 284 483 284 483 284 557 c 1,23,-1
 359 557 l 1,0,1
139 476 m 0,24,25
 139 524 139 524 105 524 c 0,26,27
 70 524 70 524 70 476 c 0,28,29
 70 423 70 423 105 423 c 0,30,31
 120 423 120 423 129.5 439 c 128,-1,32
 139 455 139 455 139 476 c 0,24,25
359 231 m 1,33,34
 359 138 359 138 301 72.5 c 128,-1,35
 243 7 243 7 151 7 c 0,36,37
 94 7 94 7 54.5 45 c 128,-1,38
 15 83 15 83 15 139 c 0,39,40
 15 231 15 231 105 231 c 0,41,42
 134 231 134 231 152 206.5 c 128,-1,43
 170 182 170 182 170 151 c 0,44,45
 170 117 170 117 152 92 c 128,-1,46
 134 67 134 67 105 67 c 1,47,-1
 92 70 l 2,48,49
 95 68 95 68 102.5 62 c 128,-1,50
 110 56 110 56 114.5 53.5 c 128,-1,51
 119 51 119 51 126.5 47 c 128,-1,52
 134 43 134 43 142.5 41.5 c 128,-1,53
 151 40 151 40 161 40 c 0,54,55
 217 40 217 40 250.5 99 c 128,-1,56
 284 158 284 158 284 231 c 1,57,-1
 359 231 l 1,33,34
139 151 m 0,58,59
 139 198 139 198 105 198 c 0,60,61
 70 198 70 198 70 151 c 0,62,63
 70 128 70 128 79 114 c 128,-1,64
 88 100 88 100 105 100 c 128,-1,65
 122 100 122 100 130.5 115 c 128,-1,66
 139 130 139 130 139 151 c 0,58,59
EndSplineSet
EndChar

StartChar: uni0E31
Encoding: 3633 3633 260
Width: 0
GlyphClass: 4
Flags: W
AnchorPoint: "Anchor-2" -153 937 basemark 0
AnchorPoint: "Anchor-1" -109 615 mark 0
LayerCount: 2
Fore
SplineSet
31 850 m 1,0,1
 31 742 31 742 -32 681 c 128,-1,2
 -95 620 -95 620 -204 620 c 0,3,4
 -278 620 -278 620 -331 654 c 128,-1,5
 -384 688 -384 688 -384 754 c 0,6,7
 -384 850 -384 850 -293 850 c 0,8,9
 -226 850 -226 850 -226 766 c 0,10,11
 -226 732 -226 732 -244 706.5 c 128,-1,12
 -262 681 -262 681 -291 681 c 1,13,-1
 -305 684 l 1,14,15
 -278 653 -278 653 -199 653 c 0,16,17
 -128 653 -128 653 -85 708.5 c 128,-1,18
 -42 764 -42 764 -42 850 c 1,19,-1
 31 850 l 1,0,1
-256 766 m 0,20,21
 -256 816 -256 816 -291 816 c 0,22,23
 -327 816 -327 816 -327 766 c 0,24,25
 -327 713 -327 713 -291 713 c 0,26,27
 -277 713 -277 713 -266.5 730 c 128,-1,28
 -256 747 -256 747 -256 766 c 0,20,21
EndSplineSet
EndChar

StartChar: uni0E32
Encoding: 3634 3634 261
Width: 398
GlyphClass: 2
Flags: W
LayerCount: 2
Fore
SplineSet
299 0 m 1,0,-1
 223 0 l 1,1,-1
 223 435 l 2,2,3
 223 469 223 469 194.5 492.5 c 128,-1,4
 166 516 166 516 129 516 c 0,5,6
 60 516 60 516 13 438 c 1,7,-1
 -7 450 l 1,8,9
 36 564 36 564 163 564 c 0,10,11
 224 564 224 564 261.5 530 c 128,-1,12
 299 496 299 496 299 437 c 2,13,-1
 299 0 l 1,0,-1
EndSplineSet
EndChar

